<svg xmlns="http://www.w3.org/2000/svg" xmlns:xlink="http://www.w3.org/1999/xlink" width="738.053" height="433.629" viewBox="0 0 738.053 433.629"><g class="item"><path fill="none" stroke="#030104" stroke-width="2" stroke-miterlimit="10" d="M343.198 102.248V45.25H82.231"/><g class="item__element"><circle fill="none" stroke="#030104" stroke-width="2" stroke-miterlimit="10" cx="45.244" cy="42.088" r="36.444"/><path fill="#9DBB42" d="M50.834 45.135v-3.799.003c3.535-1.456 6.377-4.456 6.377-8.258 0-.604.004-1.272-.004-1.982h.787s.547-5.435-.783-9.768c-1.33-4.338-5.936-3.76-5.939-3.76-1.143-1.382-3.756-2.732-5.871-2.641-3.164.136-9.975 1.512-11.01 7.707-1.029 6.19-.342 8.461-.342 8.461h.922c-.004.71-.002 1.379-.002 1.982 0 3.921 3.021 6.989 6.711 8.392v3.623c-9.984 1.087-13.617 5.934-13.617 10.781v9.38a29.408 29.408 0 0 0 18.025 6.141 29.42 29.42 0 0 0 18.029-6.141v-9.38c.001-4.792-3.552-9.584-13.283-10.741z"/></g></g><g class="item"><path fill="none" stroke="#030104" stroke-width="2" stroke-miterlimit="10" d="M314.7 130.746H115.209v134.993"/><g class="item__element"><circle fill="none" stroke="#030104" stroke-width="2" stroke-miterlimit="10" cx="115.226" cy="301.088" r="36.445"/><path fill="#CC651D" d="M119.284 303.497v-3.799.004c3.537-1.457 6.379-4.457 6.379-8.259 0-.604.004-1.272-.004-1.982h.785s.549-5.436-.781-9.768c-1.33-4.338-5.938-3.76-5.939-3.76-1.143-1.383-3.756-2.731-5.871-2.642-3.164.135-9.975 1.511-11.01 7.707-1.031 6.188-.344 8.46-.344 8.46h.922c-.004.71-.002 1.379-.002 1.98 0 3.924 3.023 6.99 6.711 8.395v3.622c-9.984 1.087-13.617 5.935-13.617 10.778v9.383a29.418 29.418 0 0 0 18.027 6.141 29.428 29.428 0 0 0 18.029-6.141v-9.383c0-4.787-3.553-9.578-13.285-10.736z"/></g></g><g class="item"><path fill="none" stroke="#030104" stroke-width="2" stroke-miterlimit="10" d="M282.911 189.243h-29.998v166.491"/><g class="item__element"><circle fill="none" stroke="#030104" stroke-width="2" stroke-miterlimit="10" cx="252.913" cy="393.011" r="36.444"/><path fill="#B52F2C" d="M257.656 394.982v-3.799.004c3.537-1.457 6.379-4.457 6.379-8.26 0-.604.004-1.271-.004-1.98h.785s.549-5.437-.781-9.769c-1.33-4.338-5.938-3.76-5.939-3.76-1.143-1.382-3.756-2.731-5.871-2.642-3.164.136-9.975 1.512-11.01 7.707-1.031 6.188-.344 8.459-.344 8.459h.922c-.004.711-.002 1.381-.002 1.982 0 3.922 3.023 6.99 6.711 8.393v3.623c-9.984 1.088-13.617 5.935-13.617 10.779v9.381a29.407 29.407 0 0 0 18.027 6.143 29.417 29.417 0 0 0 18.029-6.143v-9.381c0-4.786-3.553-9.577-13.285-10.737z"/></g></g><g class="item"><path fill="none" stroke="#030104" stroke-width="2" stroke-miterlimit="10" d="M457.025 189.243h29.998v166.491"/><g class="item__element"><circle fill="none" stroke="#030104" stroke-width="2" stroke-miterlimit="10" cx="487.001" cy="393.088" r="36.444"/><path fill="#3F1D73" d="M492.389 394.982v-3.799.004c3.535-1.457 6.377-4.457 6.377-8.261 0-.604.004-1.271-.004-1.979h.787s.547-5.437-.783-9.77c-1.33-4.338-5.936-3.76-5.938-3.76-1.145-1.382-3.756-2.73-5.871-2.643-3.164.138-9.975 1.513-11.01 7.707-1.029 6.19-.344 8.461-.344 8.461h.924c-.005.711-.002 1.379-.002 1.981 0 3.923 3.021 6.99 6.711 8.394v3.623c-9.984 1.087-13.617 5.935-13.617 10.778v9.381a29.391 29.391 0 0 0 18.023 6.143 29.408 29.408 0 0 0 18.029-6.143v-9.381c.001-4.785-3.552-9.576-13.282-10.736z"/></g></g><g class="item"><path fill="none" stroke="#030104" stroke-width="2" stroke-miterlimit="10" d="M424.523 130.746h199.491v134.993"/><g class="item__element"><circle fill="none" stroke="#030104" stroke-width="2" stroke-miterlimit="10" cx="623.997" cy="301.088" r="36.444"/><path fill="#331C78" d="M629.813 304.136v-3.8.004c3.537-1.456 6.381-4.456 6.381-8.258 0-.604.004-1.271-.006-1.982h.785s.549-5.435-.779-9.768c-1.33-4.338-5.938-3.76-5.939-3.76-1.143-1.383-3.756-2.731-5.871-2.641-3.164.135-9.975 1.51-11.01 7.707-1.031 6.188-.344 8.461-.344 8.461h.922c-.004.709-.002 1.377-.002 1.98 0 3.921 3.021 6.988 6.711 8.393v3.622c-9.984 1.089-13.617 5.935-13.617 10.779v9.381c4.99 3.849 11.24 6.144 18.027 6.144s13.033-2.295 18.027-6.144v-9.381c0-4.788-3.553-9.579-13.285-10.737z"/></g></g><g class="item"><path fill="none" stroke="#030104" stroke-width="2" stroke-miterlimit="10" d="M396.025 102.248V45.25h260.967"/><g class="item__element"><circle fill="none" stroke="#030104" stroke-width="2" stroke-miterlimit="10" cx="693.979" cy="42.088" r="36.444"/><path fill="#238641" d="M697.795 46.135v-3.799.003c3.537-1.456 6.379-4.456 6.379-8.258 0-.604.004-1.271-.004-1.981h.785s.549-5.435-.781-9.768c-1.33-4.338-5.938-3.76-5.938-3.76-1.145-1.382-3.758-2.732-5.871-2.641-3.164.135-9.977 1.511-11.012 7.707-1.029 6.189-.344 8.461-.344 8.461h.922c-.004.71-.002 1.378-.002 1.981 0 3.922 3.023 6.99 6.711 8.393v3.622c-9.982 1.087-13.616 5.934-13.616 10.78v9.381a29.413 29.413 0 0 0 18.026 6.141 29.428 29.428 0 0 0 18.029-6.141v-9.381c.001-4.791-3.552-9.582-13.284-10.74z"/></g></g><defs><path id="a" d="M430.871 207.471h5.117v8.087h-5.117z"/></defs><clipPath id="b"><use xlink:href="#a" overflow="visible"/></clipPath><path clip-path="url(#b)" fill="#030104" d="M434.771 215.558c-.096 0-.143-.051-.162-.141l-.283-1.477h-1.799l-.271 1.477c-.021.09-.072.141-.164.141h-1.08c-.111 0-.164-.061-.133-.173l1.68-7.772c.021-.1.078-.142.17-.142h1.406c.09 0 .152.042.17.142l1.68 7.772c.021.112-.021.173-.143.173h-1.071zm-1.345-6.317l-.646 3.526h1.295l-.649-3.526z"/><defs><path id="c" d="M436.893 207.471h3.939v8.087h-3.939z"/></defs><clipPath id="d"><use xlink:href="#c" overflow="visible"/></clipPath><path clip-path="url(#d)" fill="#030104" d="M438.268 214.223h2.404c.111 0 .16.063.16.16v1.013c0 .111-.049.162-.16.162h-3.617c-.104 0-.164-.051-.164-.162v-7.763c0-.1.063-.162.164-.162h1.051c.109 0 .162.063.162.162v6.59z"/><path fill="#9DBB42" d="M370.943 195.761c-.732 1.175-1.463 2.384-2.191 3.563 5.591-13.839 1.979-27.763 1.506-41.595-.293-.025-.582-.045-.875-.072-.801 3.276-1.604 6.555-2.408 9.831-.17-2.316.021-4.542.336-6.749.945-6.601.451-8.512-1.029-19.521-1.482-11.012-7.502-23.956-11.918-26.104-.498-.407-1.518.028-1.842.05-.9-.663-1.729-1.755-2.307-1.604-1.418.373-2.873 1.105-4 2.143-.424.392-.25 2.181.119 3.071.715 1.705 1.766 3.225 2.678 4.824-.158.127-.313.255-.469.384l-4.379-5.353c-2.992 4.564-2.156 9.563 2.684 18.076-.799 1.085-2.061 2.062-1.959 2.773.223 1.538.828 6.936 1.742 14.107.133 1.01 3.705 7.435 3.846 8.51.152 1.148-3.129-3.046-2.965-1.838 1.404 10.367 3.281 22.67 5.455 32.407.172.766 2.678 1.649 2.846 2.38.117.514-2.854-1.139-2.738-.646.678 2.918 1.965 6.623 3.234 8.427h13.666c.707-1.802.748-4.623.968-7.064"/><path fill="#CC651D" d="M343.399 170.332c-.244-.022-.486-.013-.729-.035-.674 2.741-1.344 5.502-2.018 8.241-.146-1.936.018-3.794.279-5.642.791-5.53.381-7.121-.863-16.344-1.24-9.217-6.281-20.056-9.979-21.854-.416-.342-1.27.025-1.543.042-.754-.558-1.445-1.471-1.93-1.342-1.189.312-2.404.925-3.35 1.796-.355.328-.213 1.825.1 2.57.598 1.429 1.479 2.7 2.239 4.039-.134.106-.261.213-.392.321a3172.114 3172.114 0 0 0-3.666-4.482c-2.504 3.822-1.805 8.009 2.246 15.135-.668.909-1.725 1.726-1.641 2.325.186 1.286.696 5.808 1.463 11.808.105.85 3.1 6.229 3.217 7.13.127.962-2.617-2.551-2.481-1.538 1.177 8.679 2.747 18.982 4.567 27.136.146.642 2.242 1.377 2.381 1.99.104.431-2.389-.965-2.293-.553.141.606.314 1.752.511 1.752h13.44c3.479-10.827.814-21.671.442-32.495"/><path fill="#C12C2B" d="M322.133 186.284c-.244-.023-.488-.014-.73-.039-.671 2.745-1.344 5.5-2.018 8.247-.145-1.942.018-3.801.281-5.646.791-5.53.379-7.121-.863-16.343-1.242-9.219-6.281-20.06-9.979-21.852-.417-.342-1.271.021-1.542.04-.753-.557-1.445-1.471-1.929-1.344-1.189.311-2.406.928-3.35 1.797-.357.328-.211 1.827.1 2.567.598 1.431 1.477 2.704 2.238 4.042l-.391.32c-1.213-1.484-2.426-2.97-3.664-4.479-2.506 3.82-1.807 8.005 2.246 15.133-.667.912-1.724 1.726-1.64 2.325.184 1.286.695 5.808 1.461 11.808.107.849 3.1 6.226 3.219 7.129.127.963-2.621-2.617-2.484-1.604.621 4.568 1.35 9.028 2.168 14.441h18.117c-.265-5.411-1.05-11.021-1.24-16.542"/><path fill="#3F1D73" d="M442.012 188.387c.139-1.015-2.607 2.534-2.48 1.57.115-.902 3.109-6.263 3.219-7.113.766-6.001 1.275-10.514 1.459-11.799.086-.6-.969-1.412-1.639-2.322 4.053-7.126 4.752-11.309 2.248-15.13-1.238 1.511-2.455 2.993-3.668 4.478-.133-.105-.264-.21-.393-.318.762-1.338 1.645-2.611 2.238-4.041.311-.741.455-2.241.104-2.568-.945-.87-2.164-1.486-3.35-1.797-.488-.127-1.178.789-1.934 1.344-.273-.016-1.125-.381-1.541-.04-3.699 1.794-8.738 12.638-9.979 21.855-1.242 9.221-1.656 10.819-.865 16.345.266 1.851.428 3.717.281 5.653-.67-2.739-1.342-5.485-2.018-8.225-.244.022-.486-.02-.729.003-.189 5.521-.975 11.131-1.24 16.544h18.117c.82-5.411 1.553-9.871 2.17-14.439"/><path fill="#331C78" d="M416.176 201.699c1.82-8.154 3.395-18.422 4.568-27.104.137-1.011-2.609 2.516-2.482 1.556.119-.902 3.111-6.273 3.217-7.118.77-6.006 1.279-10.522 1.465-11.808.082-.599-.975-1.413-1.645-2.321 4.055-7.127 4.754-11.313 2.248-15.135-1.238 1.512-2.451 2.997-3.668 4.48-.129-.106-.258-.212-.387-.322.762-1.334 1.641-2.607 2.238-4.039.313-.745.453-2.242.098-2.569-.941-.871-2.158-1.486-3.348-1.795-.484-.126-1.178.787-1.93 1.342-.271-.016-1.127-.382-1.543-.04-3.699 1.796-8.736 12.635-9.98 21.856-1.242 9.218-1.654 10.818-.861 16.346.264 1.848.424 3.715.279 5.654-.672-2.744-1.346-5.485-2.018-8.227-.24.021-.486-.021-.729.001-.346 10.115-2.699 19.542-.17 30.369h13.146c.646.003 1.418-.747 1.502-1.126"/><path fill="#238641" d="M392.559 193.783c.115-.491-2.855 1.13-2.74.617.168-.73 2.676-1.601 2.846-2.365 2.174-9.736 4.051-22.033 5.459-32.396.162-1.209-3.119 2.989-2.967 1.841.143-1.079 3.713-7.499 3.842-8.509.916-7.172 1.523-12.57 1.744-14.104.102-.716-1.16-1.69-1.959-2.778 4.84-8.511 5.674-13.507 2.684-18.071l-4.379 5.35a39.43 39.43 0 0 1-.465-.385c.91-1.596 1.959-3.116 2.674-4.821.371-.89.545-2.679.119-3.071-1.127-1.04-2.58-1.774-3.998-2.143-.58-.153-1.404.939-2.307 1.603-.326-.021-1.344-.458-1.844-.049-4.416 2.144-10.434 15.093-11.916 26.1-1.484 11.011-1.977 12.92-1.031 19.522.314 2.208.508 4.436.336 6.752-.805-3.274-1.607-6.549-2.41-9.826-.289.027-.58.054-.869.083-.475 13.832-4.09 27.768 1.504 41.608-.729-1.177-1.461-2.418-2.188-3.594.236 2.667.266 5.876 1.18 7.68h13.141c1.364-1.804 2.809-5.884 3.544-9.044"/><defs><path id="e" d="M304.446 219.072h137.167v1.804H304.446z"/></defs><clipPath id="f"><use xlink:href="#e" overflow="visible"/></clipPath><path clip-path="url(#f)" fill="#030104" d="M304.446 219.072h137.167v1.804H304.446z"/><defs><path id="g" d="M304.858 207.471h4.043v8.087h-4.043z"/></defs><clipPath id="h"><use xlink:href="#g" overflow="visible"/></clipPath><path clip-path="url(#h)" fill="#030104" d="M308.901 208.645c0 .102-.063.163-.16.163h-2.508v2.028h1.898c.104 0 .162.063.162.163v1.013c0 .11-.061.159-.162.159h-1.898v3.225c0 .102-.063.162-.16.162h-1.053c-.109 0-.16-.061-.16-.162v-7.763c0-.1.051-.162.16-.162h3.721c.1 0 .16.063.16.162v1.012z"/><defs><path id="i" d="M309.711 207.471h4.041v8.087h-4.041z"/></defs><clipPath id="j"><use xlink:href="#i" overflow="visible"/></clipPath><path clip-path="url(#j)" fill="#030104" d="M313.549 207.471c.113 0 .203.093.203.203v6.428c0 .949-.506 1.456-1.455 1.456h-1.135c-.947 0-1.453-.507-1.453-1.456v-6.428c0-.109.09-.203.201-.203h.973c.109 0 .199.093.199.203v6.146c0 .272.143.404.406.404h.523c.264 0 .404-.132.404-.404v-6.146c0-.109.09-.203.201-.203h.933z"/><defs><path id="k" d="M314.762 207.471h4.314v8.087h-4.314z"/></defs><clipPath id="l"><use xlink:href="#k" overflow="visible"/></clipPath><path clip-path="url(#l)" fill="#030104" d="M318.915 207.471c.102 0 .162.063.162.162v7.763c0 .102-.063.162-.162.162h-1c-.09 0-.152-.042-.182-.133l-1.549-4.314h-.051v4.285c0 .102-.051.162-.16.162h-1.051c-.102 0-.162-.061-.162-.162v-7.763c0-.1.063-.162.162-.162h1c.09 0 .15.042.184.134l1.533 4.293h.063v-4.266c0-.1.053-.162.162-.162h1.051v.001z"/><defs><path id="m" d="M320.088 207.471h4.041v8.087h-4.041z"/></defs><clipPath id="n"><use xlink:href="#m" overflow="visible"/></clipPath><path clip-path="url(#n)" fill="#030104" d="M320.086 207.633c0-.1.051-.162.162-.162h2.426c.951 0 1.455.516 1.455 1.466v5.165c0 .949-.504 1.456-1.455 1.456h-2.426c-.111 0-.162-.051-.162-.162v-7.763zm2.305 6.59c.264 0 .404-.132.404-.404v-4.595c0-.277-.143-.416-.404-.416h-.932v5.415h.932z"/><defs><path id="o" d="M324.737 207.471h5.116v8.087h-5.116z"/></defs><clipPath id="p"><use xlink:href="#o" overflow="visible"/></clipPath><path clip-path="url(#p)" fill="#030104" d="M328.637 215.558c-.094 0-.143-.051-.164-.141l-.279-1.477h-1.803l-.271 1.477c-.021.09-.07.141-.16.141h-1.082c-.111 0-.162-.061-.133-.173l1.678-7.772c.021-.1.082-.142.172-.142H328c.09 0 .15.042.17.142l1.68 7.772c.021.112-.021.173-.145.173h-1.068zm-1.345-6.317l-.646 3.526h1.293l-.647-3.526z"/><defs><path id="q" d="M330.553 207.471h4.057v8.087h-4.057z"/></defs><clipPath id="r"><use xlink:href="#q" overflow="visible"/></clipPath><path clip-path="url(#r)" fill="#030104" d="M334.608 210.02c0 .1-.063.161-.16.161h-1.014c-.109 0-.16-.061-.16-.161v-.809c0-.264-.143-.403-.404-.403h-.525c-.271 0-.402.139-.402.403v4.608c0 .272.141.404.402.404h.525c.264 0 .404-.132.404-.404v-.808c0-.101.051-.161.16-.161h1.014c.1 0 .16.06.16.161v1.091c0 .949-.52 1.456-1.455 1.456h-1.137c-.945 0-1.465-.507-1.465-1.456v-5.174c0-.952.52-1.457 1.465-1.457h1.137c.938 0 1.455.505 1.455 1.457v1.092z"/><defs><path id="s" d="M335.616 207.471h1.377v8.087h-1.377z"/></defs><clipPath id="t"><use xlink:href="#s" overflow="visible"/></clipPath><path clip-path="url(#t)" fill="#030104" d="M336.831 207.471c.102 0 .162.063.162.162v7.763c0 .102-.063.162-.162.162h-1.053c-.109 0-.16-.061-.16-.162v-7.763c0-.1.051-.162.16-.162h1.053z"/><defs><path id="u" d="M338.002 207.471h4.043v8.087h-4.043z"/></defs><clipPath id="v"><use xlink:href="#u" overflow="visible"/></clipPath><path clip-path="url(#v)" fill="#030104" d="M338.002 208.927c0-.951.504-1.456 1.455-1.456h1.133c.949 0 1.453.505 1.453 1.456v5.175c0 .949-.504 1.456-1.453 1.456h-1.133c-.951 0-1.455-.507-1.455-1.456v-5.175zm2.334 5.325c.264 0 .404-.13.404-.403v-4.669c0-.264-.143-.405-.404-.405h-.588c-.262 0-.402.142-.402.405v4.669c0 .273.143.403.402.403h.588z"/><defs><path id="w" d="M343.055 207.471h4.314v8.087h-4.314z"/></defs><clipPath id="x"><use xlink:href="#w" overflow="visible"/></clipPath><path clip-path="url(#x)" fill="#030104" d="M347.208 207.471c.102 0 .162.063.162.162v7.763c0 .102-.063.162-.162.162h-1c-.09 0-.152-.042-.182-.133l-1.548-4.314h-.052v4.285c0 .102-.051.162-.16.162h-1.051c-.104 0-.162-.061-.162-.162v-7.763c0-.1.061-.162.162-.162h1c.09 0 .148.042.181.134l1.534 4.293h.063v-4.266c0-.1.051-.162.162-.162h1.051l.002.001z"/><defs><path id="y" d="M350.805 207.471h5.117v8.087h-5.117z"/></defs><clipPath id="z"><use xlink:href="#y" overflow="visible"/></clipPath><path clip-path="url(#z)" fill="#030104" d="M354.706 215.558c-.094 0-.141-.051-.164-.141l-.281-1.477h-1.799l-.271 1.477c-.021.09-.07.141-.164.141h-1.08c-.111 0-.164-.061-.133-.173l1.68-7.772c.018-.1.078-.142.17-.142h1.406c.09 0 .15.042.172.142l1.678 7.772c.021.112-.023.173-.143.173h-1.071zm-1.346-6.317l-.646 3.526h1.291l-.645-3.526z"/><defs><path id="A" d="M356.827 207.471h4.151v8.087h-4.151z"/></defs><clipPath id="B"><use xlink:href="#A" overflow="visible"/></clipPath><path clip-path="url(#B)" fill="#030104" d="M360.979 211.394c0 .677-.252 1.122-.734 1.332l.693 2.648c.031.123-.027.184-.141.184h-1.051c-.1 0-.15-.051-.172-.141l-.676-2.567h-.698v2.546c0 .102-.063.162-.162.162h-1.051c-.102 0-.16-.061-.16-.162v-7.763c0-.1.061-.162.16-.162h2.537c.949 0 1.454.505 1.454 1.456v2.467h.001zm-1.779.121c.264 0 .406-.142.406-.404v-1.9c0-.264-.145-.403-.406-.403h-1v2.707h1z"/><defs><path id="C" d="M361.788 207.471h4.043v8.087h-4.043z"/></defs><clipPath id="D"><use xlink:href="#C" overflow="visible"/></clipPath><path clip-path="url(#D)" fill="#030104" d="M365.668 207.471c.111 0 .162.063.162.162v1.012c0 .102-.051.163-.162.163h-1.172v6.588c0 .111-.053.162-.162.162h-1.051c-.104 0-.162-.051-.162-.162v-6.588h-1.174c-.104 0-.16-.061-.16-.163v-1.012c0-.1.059-.162.16-.162h3.721z"/><defs><path id="E" d="M366.637 207.471h1.375v8.087h-1.375z"/></defs><clipPath id="F"><use xlink:href="#E" overflow="visible"/></clipPath><path clip-path="url(#F)" fill="#030104" d="M367.85 207.471c.104 0 .162.063.162.162v7.763c0 .102-.061.162-.162.162h-1.053c-.109 0-.16-.061-.16-.162v-7.763c0-.1.051-.162.16-.162h1.053z"/><defs><path id="G" d="M369.021 207.471h4.043v8.087h-4.043z"/></defs><clipPath id="H"><use xlink:href="#G" overflow="visible"/></clipPath><path clip-path="url(#H)" fill="#030104" d="M371.607 207.471c.947 0 1.457.505 1.457 1.456v1.072c0 .102-.053.163-.162.163h-1.053c-.102 0-.16-.061-.16-.163v-.788c0-.264-.133-.403-.404-.403h-.484c-.251 0-.402.139-.402.403v1.394l2.402.79c.172.07.266.18.266.374v2.334c0 .949-.51 1.456-1.457 1.456h-1.131c-.938 0-1.454-.507-1.454-1.456v-1.061c0-.111.063-.163.158-.163h1.055c.107 0 .162.051.162.163v.778c0 .272.15.404.402.404h.484c.264 0 .404-.132.404-.404v-1.347l-2.396-.785c-.182-.061-.271-.185-.271-.375v-2.386c0-.951.516-1.456 1.455-1.456h1.129z"/><defs><path id="I" d="M373.67 207.471h4.041v8.087h-4.041z"/></defs><clipPath id="J"><use xlink:href="#I" overflow="visible"/></clipPath><path clip-path="url(#J)" fill="#030104" d="M377.549 207.471c.113 0 .162.063.162.162v1.012c0 .102-.049.163-.162.163h-1.17v6.588c0 .111-.051.162-.162.162h-1.051c-.102 0-.164-.051-.164-.162v-6.588h-1.17c-.102 0-.16-.061-.16-.163v-1.012c0-.1.059-.162.16-.162h3.717z"/><defs><path id="K" d="M378.52 207.471h1.375v8.087h-1.375z"/></defs><clipPath id="L"><use xlink:href="#K" overflow="visible"/></clipPath><path clip-path="url(#L)" fill="#030104" d="M379.732 207.471c.102 0 .16.063.16.162v7.763c0 .102-.061.162-.16.162h-1.053c-.109 0-.161-.061-.161-.162v-7.763c0-.1.052-.162.161-.162h1.053z"/><defs><path id="M" d="M380.904 207.471h4.053v8.087h-4.053z"/></defs><clipPath id="N"><use xlink:href="#M" overflow="visible"/></clipPath><path clip-path="url(#N)" fill="#030104" d="M384.957 210.02c0 .1-.061.161-.162.161h-1.012c-.109 0-.162-.061-.162-.161v-.809c0-.264-.141-.403-.402-.403h-.523c-.273 0-.406.139-.406.403v4.608c0 .272.145.404.406.404h.523c.264 0 .402-.132.402-.404v-.808c0-.101.053-.161.162-.161h1.012c.102 0 .162.06.162.161v1.091c0 .949-.516 1.456-1.457 1.456h-1.131c-.949 0-1.465-.507-1.465-1.456v-5.174c0-.952.516-1.457 1.465-1.457h1.131c.941 0 1.457.505 1.457 1.457v1.092z"/><defs><path id="O" d="M385.766 207.471h5.117v8.087h-5.117z"/></defs><clipPath id="P"><use xlink:href="#O" overflow="visible"/></clipPath><path clip-path="url(#P)" fill="#030104" d="M389.666 215.558c-.092 0-.141-.051-.164-.141l-.281-1.477h-1.799l-.273 1.477c-.021.09-.068.141-.16.141h-1.082c-.107 0-.16-.061-.133-.173l1.682-7.772c.02-.1.08-.142.17-.142h1.406c.09 0 .148.042.17.142l1.68 7.772c.02.112-.021.173-.143.173h-1.073zm-1.346-6.317l-.646 3.526h1.291l-.645-3.526z"/><defs><path id="Q" d="M394.008 207.471h5.115v8.087h-5.115z"/></defs><clipPath id="R"><use xlink:href="#Q" overflow="visible"/></clipPath><path clip-path="url(#R)" fill="#030104" d="M398.941 207.471c.148 0 .221.093.162.231l-1.852 4.499v3.153c0 .133-.07.204-.203.204h-.971c-.131 0-.201-.071-.201-.204v-3.153l-1.852-4.499c-.061-.138.014-.231.164-.231h1.01c.123 0 .191.053.232.162l1.135 2.902 1.131-2.902c.039-.109.109-.162.229-.162h1.016z"/><defs><path id="S" d="M340.696 204.768h1.67v2.186h-1.67z"/></defs><clipPath id="T"><use xlink:href="#S" overflow="visible"/></clipPath><path clip-path="url(#T)" fill="#030104" d="M342.368 205.006l-.314 1.777c-.021.128-.104.188-.234.164l-.953-.169c-.129-.022-.188-.104-.162-.233l.313-1.776"/><defs><path id="U" d="M367.323 204.768h1.674v2.186h-1.674z"/></defs><clipPath id="V"><use xlink:href="#U" overflow="visible"/></clipPath><path clip-path="url(#V)" fill="#030104" d="M368.997 205.006l-.313 1.777c-.021.128-.104.188-.234.164l-.955-.169c-.129-.022-.188-.104-.162-.233l.313-1.776"/><defs><path id="W" d="M402.355 207.471h4.053v8.087h-4.053z"/></defs><clipPath id="X"><use xlink:href="#W" overflow="visible"/></clipPath><path clip-path="url(#X)" fill="#030104" d="M406.408 210.02c0 .1-.063.161-.16.161h-1.014c-.109 0-.16-.061-.16-.161v-.809c0-.264-.143-.403-.404-.403h-.525c-.271 0-.404.139-.404.403v4.608c0 .272.145.404.404.404h.525c.264 0 .404-.132.404-.404v-.808c0-.101.051-.161.16-.161h1.014c.1 0 .16.06.16.161v1.091c0 .949-.52 1.456-1.455 1.456h-1.133c-.947 0-1.465-.507-1.465-1.456v-5.174c0-.952.518-1.457 1.465-1.457h1.133c.938 0 1.455.505 1.455 1.457v1.092z"/><defs><path id="Y" d="M407.418 207.471h4.041v8.087h-4.041z"/></defs><clipPath id="Z"><use xlink:href="#Y" overflow="visible"/></clipPath><path clip-path="url(#Z)" fill="#030104" d="M411.258 207.471c.111 0 .201.093.201.203v6.428c0 .949-.504 1.456-1.453 1.456h-1.133c-.951 0-1.453-.507-1.453-1.456v-6.428c0-.109.088-.203.199-.203h.969c.113 0 .205.093.205.203v6.146c0 .272.141.404.402.404h.525c.264 0 .404-.132.404-.404v-6.146c0-.109.09-.203.201-.203h.933z"/><defs><path id="aa" d="M412.471 207.471h3.941v8.087h-3.941z"/></defs><clipPath id="ab"><use xlink:href="#aa" overflow="visible"/></clipPath><path clip-path="url(#ab)" fill="#030104" d="M413.844 214.223h2.406c.111 0 .16.063.16.16v1.013c0 .111-.049.162-.16.162h-3.617c-.104 0-.162-.051-.162-.162v-7.763c0-.1.061-.162.162-.162h1.051c.109 0 .16.063.16.162v6.59z"/><defs><path id="ac" d="M416.209 207.471h4.041v8.087h-4.041z"/></defs><clipPath id="ad"><use xlink:href="#ac" overflow="visible"/></clipPath><path clip-path="url(#ad)" fill="#030104" d="M420.088 207.471c.113 0 .162.063.162.162v1.012c0 .102-.049.163-.162.163h-1.17v6.588c0 .111-.051.162-.164.162h-1.049c-.102 0-.164-.051-.164-.162v-6.588h-1.17c-.104 0-.162-.061-.162-.163v-1.012c0-.1.061-.162.162-.162h3.717z"/><defs><path id="ae" d="M421.059 207.471h4.043v8.087h-4.043z"/></defs><clipPath id="af"><use xlink:href="#ae" overflow="visible"/></clipPath><path clip-path="url(#af)" fill="#030104" d="M424.898 207.471c.109 0 .199.093.199.203v6.428c0 .949-.504 1.456-1.451 1.456h-1.135c-.949 0-1.455-.507-1.455-1.456v-6.428c0-.109.092-.203.201-.203h.973c.107 0 .201.093.201.203v6.146c0 .272.143.404.404.404h.523c.262 0 .404-.132.404-.404v-6.146c0-.109.092-.203.201-.203h.935z"/><defs><path id="ag" d="M426.111 207.471h4.15v8.087h-4.15z"/></defs><clipPath id="ah"><use xlink:href="#ag" overflow="visible"/></clipPath><path clip-path="url(#ah)" fill="#030104" d="M430.264 211.394c0 .677-.254 1.122-.734 1.332l.693 2.648c.031.123-.027.184-.141.184h-1.051c-.102 0-.152-.051-.172-.141l-.678-2.567h-.695v2.546c0 .102-.063.162-.162.162h-1.053c-.102 0-.16-.061-.16-.162v-7.763c0-.1.061-.162.16-.162h2.535c.951 0 1.455.505 1.455 1.456l.003 2.467zm-1.778.121c.264 0 .402-.142.402-.404v-1.9c0-.264-.141-.403-.402-.403h-1v2.707h1z"/><defs><path id="ai" d="M304.477 225.855h7.602v15.166h-7.602z"/></defs><clipPath id="aj"><use xlink:href="#ai" overflow="visible"/></clipPath><path clip-path="url(#aj)" fill="#030104" d="M312.079 230.633c0 .188-.113.303-.303.303h-1.896c-.207 0-.303-.115-.303-.303v-1.518c0-.494-.268-.76-.758-.76h-.988c-.51 0-.758.266-.758.76v8.643c0 .514.268.762.758.762h.988c.49 0 .758-.248.758-.762v-1.518c0-.188.096-.301.303-.301h1.896c.188 0 .303.112.303.301v2.051c0 1.779-.967 2.729-2.732 2.729h-2.118c-1.784 0-2.75-.946-2.75-2.729v-9.706c0-1.783.967-2.729 2.75-2.729h2.118c1.768 0 2.732.946 2.732 2.729v2.048z"/><defs><path id="ak" d="M313.598 225.855h9.6v15.166h-9.6z"/></defs><clipPath id="al"><use xlink:href="#ak" overflow="visible"/></clipPath><path clip-path="url(#al)" fill="#030104" d="M320.913 241.021c-.172 0-.267-.096-.303-.266l-.531-2.768h-3.377l-.51 2.768c-.039.17-.135.266-.305.266h-2.025c-.211 0-.309-.113-.248-.321l3.146-14.58c.039-.188.152-.265.322-.265h2.635c.172 0 .283.076.32.265l3.146 14.58c.039.208-.035.321-.266.321h-2.004zm-2.522-11.849l-1.213 6.618h2.426l-1.213-6.618z"/><defs><path id="am" d="M324.512 225.855h7.604v15.166h-7.604z"/></defs><clipPath id="an"><use xlink:href="#am" overflow="visible"/></clipPath><path clip-path="url(#an)" fill="#030104" d="M332.112 230.633c0 .188-.111.303-.305.303h-1.895c-.209 0-.305-.115-.305-.303v-1.518c0-.494-.266-.76-.76-.76h-.984c-.513 0-.758.266-.758.76v8.643c0 .514.268.762.758.762h.984c.494 0 .76-.248.76-.762v-1.518c0-.188.096-.301.305-.301h1.895c.191 0 .305.112.305.301v2.051c0 1.779-.966 2.729-2.729 2.729h-2.121c-1.785 0-2.75-.946-2.75-2.729v-9.706c0-1.783.965-2.729 2.75-2.729h2.121c1.764 0 2.729.946 2.729 2.729v2.048z"/><defs><path id="ao" d="M334.008 225.855h2.578v15.166h-2.578z"/></defs><clipPath id="ap"><use xlink:href="#ao" overflow="visible"/></clipPath><path clip-path="url(#ap)" fill="#030104" d="M336.281 225.855c.188 0 .303.112.303.304v14.558c0 .19-.113.305-.303.305h-1.972c-.209 0-.305-.112-.305-.305v-14.558c0-.19.096-.304.305-.304h1.972z"/><defs><path id="aq" d="M338.48 225.855h7.582v16.834h-7.582z"/></defs><clipPath id="ar"><use xlink:href="#aq" overflow="visible"/></clipPath><path clip-path="url(#ar)" fill="#030104" d="M346.063 238.292c0 1.192-.416 2.009-1.23 2.425l.76 1.631c.094.211-.059.342-.266.342h-1.975c-.188 0-.248-.112-.32-.265l-.646-1.403h-1.176c-1.781 0-2.729-.946-2.729-2.729v-9.706c0-1.782.945-2.729 2.729-2.729h2.125c1.781 0 2.729.947 2.729 2.729v9.705h-.001zm-5.004-.533c0 .515.266.761.76.761h.984c.492 0 .758-.246.758-.761v-8.643c0-.491-.266-.759-.758-.759h-.984c-.494 0-.76.268-.76.759v8.643z"/><defs><path id="as" d="M347.958 225.855h7.584v15.166h-7.584z"/></defs><clipPath id="at"><use xlink:href="#as" overflow="visible"/></clipPath><path clip-path="url(#at)" fill="#030104" d="M355.163 225.855a.38.38 0 0 1 .379.379v12.058c0 1.781-.947 2.729-2.732 2.729h-2.119c-1.781 0-2.732-.947-2.732-2.729v-12.058c0-.207.172-.379.383-.379h1.818a.38.38 0 0 1 .379.379v11.523c0 .516.266.762.758.762h.986c.494 0 .76-.246.76-.762v-11.523a.38.38 0 0 1 .379-.379h1.741z"/><defs><path id="au" d="M357.434 225.855h7.564v15.166h-7.564z"/></defs><clipPath id="av"><use xlink:href="#au" overflow="visible"/></clipPath><path clip-path="url(#av)" fill="#030104" d="M364.999 228.055c0 .188-.076.323-.303.323h-4.738v3.791h3.619c.188 0 .305.113.305.322v1.876c0 .206-.115.32-.305.32h-3.619v3.832h4.738c.227 0 .303.092.303.301v1.896c0 .19-.076.306-.303.306h-6.979c-.17 0-.281-.113-.281-.306v-14.558c0-.19.111-.305.281-.305h6.979c.227 0 .303.113.303.305v1.897z"/><defs><path id="aw" d="M371.252 225.855h7.584v15.166h-7.584z"/></defs><clipPath id="ax"><use xlink:href="#aw" overflow="visible"/></clipPath><path clip-path="url(#ax)" fill="#030104" d="M378.531 225.855c.209 0 .303.112.303.304v1.896c0 .188-.094.303-.303.303h-2.199v12.359c0 .21-.094.305-.305.305h-1.973c-.188 0-.303-.095-.303-.305v-12.359h-2.199c-.189 0-.305-.113-.305-.303v-1.896c0-.19.113-.304.305-.304h6.979z"/><defs><path id="ay" d="M380.35 225.855h7.582v15.166h-7.582z"/></defs><clipPath id="az"><use xlink:href="#ay" overflow="visible"/></clipPath><path clip-path="url(#az)" fill="#030104" d="M387.553 225.855a.38.38 0 0 1 .379.379v12.058c0 1.781-.943 2.729-2.729 2.729h-2.125c-1.781 0-2.729-.947-2.729-2.729v-12.058c0-.207.173-.379.38-.379h1.819a.38.38 0 0 1 .379.379v11.523c0 .516.268.762.758.762h.986c.494 0 .758-.246.758-.762v-11.523a.38.38 0 0 1 .379-.379h1.745z"/><defs><path id="aA" d="M389.828 225.855h8.094v15.166h-8.094z"/></defs><clipPath id="aB"><use xlink:href="#aA" overflow="visible"/></clipPath><path clip-path="url(#aB)" fill="#030104" d="M397.617 225.855c.188 0 .305.112.305.304v14.558c0 .19-.115.305-.305.305h-1.875c-.17 0-.285-.076-.342-.246l-2.9-8.094h-.096v8.035c0 .19-.096.305-.307.305h-1.969c-.188 0-.303-.112-.303-.305v-14.558c0-.19.113-.304.303-.304h1.877c.17 0 .281.076.34.248l2.883 8.057h.111v-8c0-.19.098-.303.307-.303h1.971v-.002z"/><defs><path id="aC" d="M399.814 225.855h7.584v15.166h-7.584z"/></defs><clipPath id="aD"><use xlink:href="#aC" overflow="visible"/></clipPath><path clip-path="url(#aD)" fill="#030104" d="M399.814 226.159c0-.19.098-.304.305-.304h4.549c1.781 0 2.73.969 2.73 2.748v9.688c0 1.781-.949 2.729-2.73 2.729h-4.549c-.207 0-.305-.095-.305-.305v-14.556zm4.325 12.361c.492 0 .758-.246.758-.761v-8.624c0-.514-.266-.777-.758-.777h-1.744v10.162h1.744z"/><defs><path id="aE" d="M408.537 225.855h9.598v15.166h-9.598z"/></defs><clipPath id="aF"><use xlink:href="#aE" overflow="visible"/></clipPath><path clip-path="url(#aF)" fill="#030104" d="M415.852 241.021c-.17 0-.266-.096-.303-.266l-.531-2.768h-3.375l-.51 2.768c-.039.17-.135.266-.305.266h-2.027c-.209 0-.305-.113-.248-.321l3.148-14.58c.037-.188.148-.265.322-.265h2.633c.172 0 .285.076.324.265l3.146 14.58c.037.208-.037.321-.264.321h-2.01zm-2.522-11.849l-1.213 6.618h2.426l-1.213-6.618z"/><defs><path id="aG" d="M419.451 225.855h10.805v15.166h-10.805z"/></defs><clipPath id="aH"><use xlink:href="#aG" overflow="visible"/></clipPath><path clip-path="url(#aH)" fill="#030104" d="M429.879 225.855c.248 0 .379.133.379.379v14.408c0 .248-.131.379-.379.379h-1.764c-.246 0-.379-.131-.379-.379v-8.531h-.133l-1.875 8.566c-.061.229-.189.344-.42.344h-.93c-.227 0-.359-.113-.416-.344l-1.877-8.566h-.135v8.531c0 .248-.131.379-.377.379h-1.744c-.248 0-.381-.131-.381-.379v-14.408c0-.246.133-.379.381-.379h2.5c.229 0 .363.112.418.34l2.104 9.44 2.104-9.44c.057-.228.188-.34.416-.34h2.508z"/><defs><path id="aI" d="M431.586 225.855h9.6v15.166h-9.6z"/></defs><clipPath id="aJ"><use xlink:href="#aI" overflow="visible"/></clipPath><path clip-path="url(#aJ)" fill="#030104" d="M438.9 241.021c-.172 0-.268-.096-.305-.266l-.529-2.768h-3.375l-.514 2.768c-.037.17-.133.266-.301.266h-2.029c-.209 0-.307-.113-.244-.321l3.146-14.58c.037-.188.15-.265.32-.265h2.635c.172 0 .285.076.324.265l3.146 14.58c.037.208-.039.321-.268.321H438.9zm-2.521-11.849l-1.213 6.618h2.426l-1.213-6.618z"/></svg>