<?xml version="1.0" encoding="utf-8"?>
<!-- Generator: Adobe Illustrator 16.0.0, SVG Export Plug-In . SVG Version: 6.00 Build 0)  -->
<!DOCTYPE svg PUBLIC "-//W3C//DTD SVG 1.1//EN" "http://www.w3.org/Graphics/SVG/1.1/DTD/svg11.dtd">
<svg version="1.1" id="Capa_1" xmlns="http://www.w3.org/2000/svg" xmlns:xlink="http://www.w3.org/1999/xlink" x="0px" y="0px"
	 width="660.082px" height="560.244px" viewBox="0 0 660.082 560.244" enable-background="new 0 0 660.082 560.244"
	 xml:space="preserve">
<g>
	<g>
		<path fill="#FFFFFF" d="M323.703,358.315c-2.817,4.527-5.632,9.186-8.439,13.721c21.539-53.299,7.62-106.925,5.799-160.197
			c-1.127-0.099-2.24-0.177-3.366-0.282c-3.086,12.619-6.179,25.248-9.272,37.863c-0.658-8.922,0.078-17.492,1.294-25.993
			c3.643-25.423,1.737-32.784-3.976-75.181c-5.709-42.412-28.891-92.267-45.898-100.537c-1.92-1.564-5.838,0.109-7.09,0.191
			c-3.479-2.554-6.654-6.759-8.884-6.176c-5.464,1.434-11.063,4.254-15.405,8.252c-1.634,1.509-0.965,8.399,0.457,11.829
			c2.751,6.567,6.799,12.42,10.314,18.577c-0.609,0.488-1.207,0.985-1.806,1.482c-5.586-6.839-11.177-13.666-16.862-20.617
			c-11.524,17.581-8.309,36.831,10.336,69.621c-3.078,4.18-7.939,7.94-7.549,10.683c0.848,5.921,3.189,26.712,6.715,54.335
			c0.508,3.889,14.265,28.635,14.807,32.775c0.584,4.424-12.047-11.736-11.42-7.078c5.414,39.929,12.643,87.313,21.014,124.813
			c0.658,2.953,10.314,6.354,10.961,9.172c0.453,1.977-11.003-4.391-10.557-2.491c2.611,11.237,7.566,25.51,12.469,32.461h52.635
			C322.694,378.586,322.854,367.719,323.703,358.315"/>
		<path fill="#FFFFFF" d="M217.619,260.377c-0.94-0.082-1.876-0.049-2.809-0.131c-2.593,10.553-5.177,21.187-7.771,31.735
			c-0.557-7.453,0.068-14.616,1.082-21.731c3.045-21.301,1.463-27.427-3.329-62.947c-4.782-35.504-24.198-77.246-38.433-84.17
			c-1.605-1.316-4.896,0.094-5.941,0.162c-2.906-2.148-5.568-5.664-7.439-5.168c-4.574,1.199-9.258,3.562-12.893,6.916
			c-1.371,1.265-0.814,7.029,0.379,9.9c2.301,5.502,5.694,10.399,8.629,15.557c-0.51,0.406-1.002,0.82-1.503,1.236
			c-4.677-5.724-9.356-11.441-14.126-17.264c-9.641,14.722-6.948,30.846,8.657,58.293c-2.573,3.501-6.646,6.645-6.319,8.951
			c0.715,4.953,2.684,22.371,5.629,45.481c0.418,3.271,11.94,23.993,12.394,27.461c0.489,3.704-10.084-9.826-9.565-5.922
			c4.535,33.426,10.59,73.111,17.602,104.514c0.551,2.472,8.634,5.31,9.167,7.669c0.393,1.66-9.201-3.719-8.835-2.132
			c0.537,2.333,1.214,6.749,1.964,6.749h51.776C229.31,343.831,219.05,302.067,217.619,260.377"/>
		<path fill="#FFFFFF" d="M135.708,321.817c-0.937-0.092-1.877-0.058-2.817-0.15c-2.583,10.572-5.172,21.186-7.763,31.764
			c-0.555-7.48,0.061-14.644,1.083-21.748c3.045-21.301,1.46-27.426-3.323-62.945c-4.79-35.505-24.197-77.259-38.439-84.165
			c-1.604-1.316-4.895,0.088-5.941,0.154c-2.9-2.144-5.561-5.664-7.432-5.174c-4.581,1.199-9.266,3.572-12.901,6.923
			c-1.37,1.263-0.813,7.034,0.388,9.889c2.301,5.511,5.685,10.41,8.621,15.567c-0.502,0.41-1.001,0.824-1.504,1.23
			c-4.676-5.713-9.346-11.438-14.117-17.248c-9.647,14.713-6.956,30.832,8.656,58.283c-2.578,3.514-6.646,6.646-6.318,8.955
			c0.707,4.957,2.676,22.367,5.623,45.482c0.418,3.268,11.939,23.98,12.396,27.456c0.491,3.708-10.097-10.08-9.57-6.176
			c2.395,17.595,5.199,34.772,8.35,55.622h69.785C139.468,364.688,136.438,343.083,135.708,321.817"/>
		<path fill="#FFFFFF" d="M597.427,329.915c0.523-3.907-10.051,9.761-9.564,6.048c0.453-3.476,11.986-24.122,12.396-27.394
			c2.953-23.116,4.916-40.499,5.619-45.442c0.336-2.314-3.727-5.439-6.307-8.949c15.607-27.445,18.301-43.555,8.652-58.273
			c-4.77,5.82-9.449,11.533-14.127,17.25c-0.5-0.406-1.004-0.813-1.5-1.223c2.934-5.157,6.322-10.057,8.621-15.564
			c1.195-2.857,1.752-8.635,0.395-9.892c-3.645-3.351-8.334-5.724-12.9-6.923c-1.877-0.49-4.531,3.042-7.443,5.174
			c-1.055-0.061-4.334-1.467-5.938-0.15c-14.244,6.91-33.652,48.674-38.434,84.177c-4.781,35.515-6.375,41.667-3.328,62.953
			c1.016,7.131,1.639,14.313,1.082,21.776c-2.582-10.555-5.172-21.127-7.771-31.683c-0.939,0.089-1.875-0.073-2.805,0.017
			c-0.736,21.267-3.754,42.871-4.781,63.721h69.783C592.228,364.688,595.046,347.51,597.427,329.915"/>
		<path fill="#FFFFFF" d="M497.919,381.188c7.012-31.402,13.063-70.951,17.596-104.394c0.527-3.894-10.051,9.688-9.561,5.995
			c0.455-3.476,11.979-24.158,12.389-27.415c2.955-23.133,4.924-40.524,5.635-45.479c0.316-2.305-3.75-5.439-6.326-8.939
			c15.615-27.45,18.311-43.574,8.658-58.292c-4.77,5.826-9.445,11.543-14.127,17.257c-0.498-0.406-0.994-0.816-1.49-1.238
			c2.936-5.142,6.318-10.046,8.621-15.557c1.199-2.865,1.748-8.635,0.377-9.896c-3.627-3.354-8.316-5.721-12.895-6.913
			c-1.865-0.488-4.529,3.027-7.428,5.168c-1.051-0.061-4.338-1.467-5.943-0.15c-14.244,6.917-33.652,48.667-38.443,84.18
			c-4.787,35.502-6.371,41.664-3.318,62.957c1.016,7.115,1.633,14.307,1.076,21.777c-2.588-10.569-5.176-21.127-7.768-31.688
			c-0.928,0.083-1.875-0.075-2.809,0.007c-1.332,38.959-10.396,75.263-0.654,116.969h50.633
			C494.625,385.537,497.595,382.647,497.919,381.188"/>
		<path fill="#FFFFFF" d="M406.955,350.699c0.447-1.892-11.002,4.353-10.561,2.377c0.646-2.81,10.305-6.163,10.963-9.109
			c8.373-37.499,15.602-84.861,21.021-124.775c0.625-4.656-12.01,11.518-11.428,7.093c0.549-4.155,14.305-28.882,14.803-32.774
			c3.527-27.623,5.875-48.415,6.717-54.32c0.391-2.758-4.469-6.51-7.547-10.697c18.643-32.779,21.854-52.025,10.338-69.605
			c-5.688,6.951-11.275,13.777-16.865,20.607c-0.6-0.488-1.197-0.984-1.791-1.481c3.506-6.149,7.545-12.002,10.299-18.569
			c1.426-3.43,2.096-10.32,0.459-11.829c-4.346-4.005-9.938-6.83-15.402-8.252c-2.229-0.587-5.404,3.618-8.885,6.177
			c-1.252-0.08-5.164-1.766-7.09-0.192c-17.012,8.259-40.186,58.13-45.898,100.526c-5.721,42.409-7.611,49.762-3.975,75.191
			c1.215,8.5,1.955,17.084,1.289,26.006c-3.088-12.613-6.188-25.229-9.279-37.847c-1.113,0.109-2.232,0.211-3.346,0.319
			c-1.832,53.275-15.757,106.948,5.787,160.252c-2.813-4.532-5.623-9.312-8.43-13.841c0.914,10.271,1.023,22.632,4.543,29.583
			h50.613C398.562,378.586,404.126,362.87,406.955,350.699"/>
	</g>
	<path fill="#FFFFFF" d="M207.851,400.75l3.675,0.651c0.505,0.09,1.037-0.137,1.127-0.633l1.429-6.826v-0.018l-5.431-0.92
		l-1.313,6.842C207.245,400.349,207.358,400.663,207.851,400.75z"/>
	<path fill="#FFFFFF" d="M310.411,400.75l3.684,0.651c0.502,0.09,0.814-0.137,0.904-0.633l1.203-6.843l-5.212-0.921l-1.202,6.842
		C309.693,400.349,309.916,400.663,310.411,400.75z"/>
	<path fill="#FFFFFF" d="M498.082,404.041v3.901c0,0.391,0.199,0.302,0.588,0.302h0.412v-5h-0.412
		C498.281,403.244,498.082,403.657,498.082,404.041z"/>
	<g>
		<path fill="#FFFFFF" d="M561.017,403.879l-6.686,29.977c-0.029,0.104-0.25,0.236-0.25,0.316v0.017
			c0,0.244,0.654,0.057,0.979,0.057h4.158c0.352,0,0.551-0.078,0.631-0.424l1.047-5.576h6.93l1.092,5.576
			c0.078,0.346,0.262,0.424,0.625,0.424h4.117c0.471,0,0.625-0.073,0.545-0.506l-6.461-29.939c-0.068-0.384-0.314-0.555-0.658-0.555
			h-5.412C561.318,403.244,561.089,403.494,561.017,403.879z M564.359,410.662l2.496,13.582h-4.986L564.359,410.662z"/>
		<path fill="#FFFFFF" d="M578.082,404.022v29.937c0,0.413-0.139,0.285,0.25,0.285h13.936c0.43,0,0.814,0.124,0.814-0.305v-3.9
			c0-0.376-0.387-0.795-0.814-0.795h-9.186v-25.203c0-0.384-0.277-0.797-0.703-0.797h-4.047
			C577.943,403.244,578.082,403.649,578.082,404.022z"/>
		<rect x="68.081" y="448.244" fill="#FFFFFF" width="528" height="7"/>
		<path fill="#FFFFFF" d="M69.081,404.041v29.898c0,0.391,0.297,0.305,0.721,0.305h4.053c0.38,0,0.227,0.086,0.227-0.305v-12.695
			h7.709c0.392,0,0.291,0.084,0.291-0.339v-3.898c0-0.384,0.101-0.763-0.291-0.763h-7.709v-8H84.13c0.387,0,0.951,0.089,0.951-0.302
			v-3.901c0-0.384-0.564-0.797-0.951-0.797H69.802C69.378,403.244,69.081,403.657,69.081,404.041z"/>
		<path fill="#FFFFFF" d="M88.081,404.17v24.868c0,3.601,1.754,5.206,5.379,5.206h4.369c3.654,0,5.252-1.632,5.252-5.289v-24.756
			c0-0.423,0.002-0.955-0.43-0.955h-3.579c-0.434,0-0.991,0.532-0.991,0.955v23.67c0,1.045-0.337,1.375-1.348,1.375h-2.021
			c-1.015,0-1.632-0.33-1.632-1.375v-23.67c0-0.423-0.279-0.955-0.703-0.955h-3.74C88.216,403.244,88.081,403.763,88.081,404.17z"/>
		<path fill="#FFFFFF" d="M107.946,434.244h4.047c0.424,0,1.088,0.086,1.088-0.305v-16.695h-0.277l5.96,16.552
			c0.114,0.354,0.352,0.448,0.7,0.448h3.851c0.392,0,0.767,0.086,0.767-0.305v-29.898c0-0.384-0.375-0.797-0.767-0.797h-4.045
			c-0.425,0-0.188,0.413-0.188,0.797v16.203h-0.673l-5.911-16.509c-0.118-0.354-0.352-0.491-0.701-0.491h-3.85
			c-0.389,0-0.865,0.413-0.865,0.797v29.898C107.081,434.33,107.558,434.244,107.946,434.244z"/>
		<path fill="#FFFFFF" d="M128.081,404.021v29.941c0,0.411-0.05,0.282,0.373,0.282h9.338c3.663,0,5.289-1.632,5.289-5.289v-19.888
			c0-3.66-1.626-5.823-5.289-5.823h-9.338C128.031,403.244,128.081,403.649,128.081,404.021z M133.081,408.244h3.626
			c1.008,0,1.374,0.858,1.374,1.925v17.7c0,1.045-0.366,1.375-1.374,1.375h-3.626V408.244z"/>
		<path fill="#FFFFFF" d="M152.229,403.879l-6.458,29.816c-0.118,0.433,0.077,0.549,0.509,0.549h4.164
			c0.346,0,0.541-0.078,0.619-0.424l1.048-5.576h6.938l1.081,5.576c0.08,0.346,0.272,0.424,0.63,0.424h4.118
			c0.474,0,0.631-0.073,0.553-0.506l-6.467-29.939c-0.073-0.384-0.312-0.555-0.658-0.555h-5.41
			C152.544,403.244,152.305,403.494,152.229,403.879z M155.581,410.662l2.488,13.582h-4.984L155.581,410.662z"/>
		<path fill="#FFFFFF" d="M173.785,434.244h4.365c3.616,0,5.931-1.632,5.931-5.289v-4.201c0-0.387-0.559-0.51-0.943-0.51h-3.893
			c-0.434,0-0.164,0.123-0.164,0.51v3.115c0,1.045-1.005,1.375-2.02,1.375h-2.021c-1.017,0-1.959-0.33-1.959-1.375v-17.75
			c0-1.017,0.904-1.875,1.959-1.875h2.021c1.015,0,2.02,0.858,2.02,1.875v3.114c0,0.388-0.27,1.011,0.164,1.011h3.893
			c0.385,0,0.943-0.623,0.943-1.011v-4.201c0-3.667-2.314-5.788-5.931-5.788h-4.365c-3.654,0-5.704,2.121-5.704,5.788v19.923
			C168.081,432.612,170.131,434.244,173.785,434.244z"/>
		<path fill="#FFFFFF" d="M188.081,404.041v29.898c0,0.391-0.242,0.305,0.182,0.305h4.053c0.391,0,0.766,0.086,0.766-0.305v-29.898
			c0-0.384-0.375-0.797-0.766-0.797h-4.053C187.839,403.244,188.081,403.657,188.081,404.041z"/>
		<path fill="#FFFFFF" d="M197.081,409.024v19.931c0,3.657,1.689,5.289,5.355,5.289h4.359c3.66,0,5.285-1.632,5.285-5.289v-19.931
			c0-3.659-1.625-5.78-5.285-5.78h-4.359C198.771,403.244,197.081,405.365,197.081,409.024z M202.081,410.003
			c0-1.016,0.465-1.759,1.478-1.759h2.263c1.014,0,1.26,0.743,1.26,1.759v17.982c0,1.054-0.246,1.259-1.26,1.259h-2.263
			c-1.013,0-1.478-0.205-1.478-1.259V410.003z"/>
		<path fill="#FFFFFF" d="M216.081,404.041v29.898c0,0.391,0.438,0.305,0.836,0.305h4.044c0.427,0,0.12,0.086,0.12-0.305v-16.695
			h0.692l5.961,16.552c0.114,0.354,0.352,0.448,0.698,0.448h3.854c0.389,0,0.795,0.086,0.795-0.305v-29.898
			c0-0.384-0.406-0.797-0.795-0.797h-4.047c-0.431,0-0.158,0.413-0.158,0.797v16.203h-0.705l-5.915-16.509
			c-0.12-0.354-0.347-0.491-0.696-0.491h-3.848C216.519,403.244,216.081,403.657,216.081,404.041z"/>
		<path fill="#FFFFFF" d="M252.64,403.879l-6.496,29.977c-0.029,0.104-0.063,0.237-0.063,0.317v0.016
			c0,0.244,0.279,0.057,0.601,0.057h4.161c0.357,0,0.55-0.078,0.629-0.424l1.049-5.576h6.931l1.083,5.576
			c0.087,0.346,0.271,0.424,0.628,0.424h4.12c0.466,0,0.625-0.073,0.55-0.506l-6.458-29.939c-0.076-0.384-0.32-0.555-0.666-0.555
			h-5.41C252.943,403.244,252.706,403.494,252.64,403.879z M255.983,410.662l2.486,13.582h-4.974L255.983,410.662z"/>
		<path fill="#FFFFFF" d="M269.081,404.041v29.898c0,0.391,0.485,0.305,0.872,0.305h4.046c0.391,0,1.082,0.086,1.082-0.305v-9.695
			h2.234l2.6,9.674c0.085,0.346,0.277,0.326,0.666,0.326h4.047c0.43,0,0.658-0.073,0.541-0.547l-2.806-10.117
			c1.871-0.813,2.718-2.444,2.718-5.05v-9.506c0-3.659-1.697-5.78-5.358-5.78h-9.77
			C269.566,403.244,269.081,403.657,269.081,404.041z M275.081,408.244h3.395c1.016,0,1.605,0.858,1.605,1.875v7.319
			c0,1.008-0.59,1.806-1.605,1.806h-3.395V408.244z"/>
		<path fill="#FFFFFF" d="M289.06,408.244h4.021v25.695c0,0.429,0.732,0.305,1.122,0.305h4.046c0.426,0,0.832,0.124,0.832-0.305
			v-25.695h4.303c0.435,0,0.697,0.089,0.697-0.302v-3.901c0-0.384-0.264-0.797-0.697-0.797H289.06c-0.391,0-0.979,0.413-0.979,0.797
			v3.901C288.081,408.333,288.669,408.244,289.06,408.244z"/>
		<path fill="#FFFFFF" d="M307.739,434.244h4.052c0.39,0,0.29,0.086,0.29-0.305v-29.898c0-0.384,0.1-0.797-0.29-0.797h-4.052
			c-0.427,0-0.658,0.413-0.658,0.797v29.898C307.081,434.33,307.313,434.244,307.739,434.244z"/>
		<path fill="#FFFFFF" d="M316.081,409.024v9.192c0,0.729,0.215,1.208,0.915,1.44l9.085,3.022v5.188
			c0,1.045-0.047,1.375-1.063,1.375h-1.864c-0.968,0-1.072-0.33-1.072-1.375v-2.999c0-0.427-0.682-0.626-1.107-0.626h-4.053
			c-0.379,0-0.84,0.199-0.84,0.626v4.085c0,3.657,2.206,5.289,5.826,5.289h4.356c3.638,0,5.816-1.614,5.816-5.233v-9.075
			c0-0.723-0.221-1.139-0.871-1.404l-9.128-3.045v-5.366c0-1.017,0.104-1.875,1.072-1.875h1.864c1.055,0,1.063,0.858,1.063,1.875
			v3.034c0,0.393,0.734,1.091,1.123,1.091h4.042c0.422,0,0.834-0.688,0.834-1.063v-4.212c0-3.622-2.179-5.726-5.816-5.726h-4.356
			C318.287,403.244,316.081,405.365,316.081,409.024z"/>
		<path fill="#FFFFFF" d="M334.082,404.041v3.901c0,0.391,0.359,0.302,0.748,0.302h4.252v25.695c0,0.429,0.498,0.305,0.889,0.305
			h4.043c0.434,0,1.068,0.124,1.068-0.305v-25.695h4.066c0.432,0,0.934,0.089,0.934-0.302v-3.901c0-0.384-0.502-0.797-0.934-0.797
			H334.83C334.441,403.244,334.082,403.657,334.082,404.041z"/>
		<path fill="#FFFFFF" d="M353.509,434.244h4.049c0.393,0,0.523,0.086,0.523-0.305v-29.898c0-0.384-0.133-0.797-0.523-0.797h-4.049
			c-0.428,0-0.428,0.413-0.428,0.797v29.898C353.082,434.33,353.082,434.244,353.509,434.244z"/>
		<path fill="#FFFFFF" d="M362.082,408.978v20.032c0,3.62,1.996,5.234,5.631,5.234h4.357c3.621,0,6.012-1.632,6.012-5.289v-4.201
			c0-0.387-0.639-0.51-1.025-0.51h-3.896c-0.422,0-1.078,0.123-1.078,0.51v3.115c0,1.045-0.088,1.375-1.096,1.375h-2.027
			c-1.008,0-1.877-0.33-1.877-1.375v-17.75c0-1.017,0.828-1.875,1.877-1.875h2.027c1.008,0,1.096,0.858,1.096,1.875v3.114
			c0,0.388,0.656,1.011,1.078,1.011h3.896c0.387,0,1.025-0.623,1.025-1.011v-4.201c0-3.667-2.391-5.788-6.012-5.788h-4.357
			C364.078,403.244,362.082,405.349,362.082,408.978z"/>
		<path fill="#FFFFFF" d="M387.294,403.879l-6.469,29.816c-0.117,0.433,0.086,0.549,0.502,0.549h4.168
			c0.35,0,0.543-0.078,0.625-0.424l1.053-5.576h6.924l1.088,5.576c0.088,0.346,0.275,0.424,0.633,0.424h4.117
			c0.463,0,0.621-0.073,0.555-0.506l-6.471-29.939c-0.074-0.384-0.313-0.555-0.658-0.555h-5.412
			C387.599,403.244,387.369,403.494,387.294,403.879z M390.634,410.662l2.49,13.582h-4.977L390.634,410.662z"/>
		<path fill="#FFFFFF" d="M412.082,403.938v0.019c0,0.106,0.416,0.226,0.471,0.354l7.529,17.324v12.146
			c0,0.511-0.064,0.463,0.438,0.463h3.738c0.51,0,0.822,0.048,0.822-0.463v-12.146l7.021-17.324c0.055-0.131-0.021-0.25-0.021-0.355
			v-0.018c0-0.321-0.109-0.694-0.543-0.694h-3.895c-0.461,0-0.74,0.289-0.887,0.711l-4.355,11.221l-4.365-11.243
			c-0.154-0.422-0.426-0.688-0.9-0.688h-3.889C412.816,403.244,412.082,403.617,412.082,403.938z"/>
		<path fill="#FFFFFF" d="M450.332,434.244h4.363c3.609,0,5.387-1.632,5.387-5.289v-4.201c0-0.387-0.016-0.51-0.402-0.51h-3.9
			c-0.422,0-0.697,0.123-0.697,0.51v3.115c0,1.045-0.461,1.375-1.475,1.375h-2.023c-1.01,0-1.502-0.33-1.502-1.375v-17.75
			c0-1.017,0.447-1.875,1.502-1.875h2.023c1.014,0,1.475,0.858,1.475,1.875v3.114c0,0.388,0.275,1.011,0.697,1.011h3.9
			c0.389,0,0.402-0.623,0.402-1.011v-4.201c0-3.667-1.775-5.788-5.387-5.788h-4.363c-3.65,0-5.25,2.121-5.25,5.788v19.923
			C445.082,432.612,446.681,434.244,450.332,434.244z"/>
		<path fill="#FFFFFF" d="M464.082,404.199v24.756c0,3.657,2.049,5.289,5.713,5.289h4.361c3.654,0,5.926-1.632,5.926-5.289v-24.756
			c0-0.423-0.674-0.955-1.104-0.955h-3.58c-0.43,0-0.316,0.532-0.316,0.955v23.67c0,1.045-1.012,1.375-2.021,1.375h-2.025
			c-1.008,0-1.953-0.33-1.953-1.375v-23.67c0-0.423,0.049-0.955-0.387-0.955h-3.73C464.535,403.244,464.082,403.776,464.082,404.199
			z"/>
		<path fill="#FFFFFF" d="M484.275,434.244h13.807v-5h-9v-25.203c0-0.384-0.34-0.797-0.762-0.797h-4.045
			c-0.398,0-0.193,0.413-0.193,0.797v29.898C484.082,434.368,483.876,434.244,484.275,434.244z"/>
		<path fill="#FFFFFF" d="M499.082,433.939v-3.9c0-0.376-0.447-0.795-0.877-0.795h-0.123v5h0.123
			C498.634,434.244,499.082,434.368,499.082,433.939z"/>
		<path fill="#FFFFFF" d="M503.082,408.244v25.695c0,0.429,0.338,0.305,0.725,0.305h4.043c0.438,0,0.232,0.124,0.232-0.305v-25.695
			h4.906c0.432,0,1.094,0.089,1.094-0.302v-3.901c0-0.384-0.662-0.797-1.094-0.797h-13.906v5H503.082z"/>
		<path fill="#FFFFFF" d="M522.33,434.244h4.363c3.65,0,5.389-1.632,5.389-5.289v-24.756c0-0.423-0.139-0.955-0.566-0.955h-3.58
			c-0.43,0-0.854,0.532-0.854,0.955v23.67c0,1.045-0.479,1.375-1.486,1.375h-2.02c-1.018,0-1.494-0.33-1.494-1.375v-23.67
			c0-0.423-0.42-0.955-0.842-0.955h-3.738c-0.43,0-0.42,0.532-0.42,0.955v24.756C517.082,432.612,518.667,434.244,522.33,434.244z"
			/>
		<path fill="#FFFFFF" d="M536.802,434.244h4.053c0.389,0,0.227,0.086,0.227-0.305v-9.695h3.084l2.605,9.674
			c0.074,0.346,0.277,0.326,0.658,0.326h4.051c0.43,0,0.658-0.073,0.543-0.547l-2.729-10.117c1.859-0.813,2.787-2.444,2.787-5.05
			v-9.506c0-3.659-1.844-5.78-5.506-5.78h-9.773c-0.383,0-0.721,0.413-0.721,0.797v29.898
			C536.082,434.33,536.419,434.244,536.802,434.244z M541.082,408.244h4.248c1.02,0,1.752,0.858,1.752,1.875v7.319
			c0,1.008-0.732,1.806-1.752,1.806h-4.248V408.244z"/>
		<path fill="#FFFFFF" d="M86.464,474.244h-8.163c-6.872,0-10.22,3.635-10.22,10.499v37.383c0,6.856,3.348,10.118,10.22,10.118
			h8.163c6.799,0,10.617-3.263,10.617-10.118v-7.895c0-0.724-0.529-0.987-1.26-0.987h-7.307c-0.798,0-1.434,0.265-1.434,0.987v5.845
			c0,1.979-0.756,3.168-2.654,3.168h-3.801c-1.889,0-2.545-1.189-2.545-3.168v-33.291c0-1.903,0.576-2.541,2.545-2.541h3.801
			c1.898,0,2.654,0.638,2.654,2.541v5.845c0,0.723,0.636,1.614,1.434,1.614h7.307c0.73,0,1.26-0.893,1.26-1.614v-7.887
			C97.081,477.879,93.263,474.244,86.464,474.244z"/>
		<path fill="#FFFFFF" d="M139.767,531.199l-12.125-56.046c-0.145-0.727-0.574-0.909-1.238-0.909h-10.146
			c-0.652,0-1.091,0.282-1.238,1.008l-12.123,55.951c-0.223,0.803,0.146,1.041,0.955,1.041h7.813c0.652,0,1.012-0.026,1.162-0.68
			l1.963-10.32h13.009l2.044,10.32c0.145,0.652,0.504,0.68,1.166,0.68h7.734C139.622,532.244,139.913,532.002,139.767,531.199z
			 M116.626,512.244l4.669-25.49l4.672,25.49H116.626z"/>
		<path fill="#FFFFFF" d="M174.081,522.126v-7.895c0-0.724-0.365-0.987-1.103-0.987h-7.302c-0.799,0-1.596,0.265-1.596,0.987v5.845
			c0,1.979-0.593,3.168-2.49,3.168h-3.801c-1.892,0-2.709-1.189-2.709-3.168v-33.291c0-1.903,0.74-2.541,2.709-2.541h3.801
			c1.897,0,2.49,0.638,2.49,2.541v5.845c0,0.723,0.797,1.614,1.596,1.614h7.302c0.737,0,1.103-0.893,1.103-1.614v-7.887
			c0-6.864-3.654-10.499-10.447-10.499h-8.172c-6.869,0-10.381,3.635-10.381,10.499v37.383c0,6.855,3.512,10.118,10.381,10.118
			h8.172C170.427,532.244,174.081,528.982,174.081,522.126z"/>
		<path fill="#FFFFFF" d="M191.081,531.465v-56.067c0-0.729-0.148-1.152-0.877-1.152h-7.593c-0.79,0-1.53,0.411-1.53,1.118V531.5
			c0,0.712,0.74,0.745,1.53,0.745h7.593C190.933,532.244,191.081,532.199,191.081,531.465z"/>
		<path fill="#FFFFFF" d="M217.364,474.244h-8.18c-6.858,0-10.104,3.635-10.104,10.499v37.383c0,6.863,3.245,10.118,10.104,10.118
			h4.53l2.482,5.692c0.284,0.578,0.509,1.308,1.239,1.308h7.596c0.801,0,1.384-0.6,1.021-1.408l-2.824-6.326
			c3.146-1.602,4.853-4.788,4.853-9.384v-37.383C228.081,477.879,224.228,474.244,217.364,474.244z M218.081,520.076
			c0,1.979-0.863,3.168-2.76,3.168h-3.801c-1.897,0-2.439-1.189-2.439-3.168v-33.291c0-1.894,0.542-2.541,2.439-2.541h3.801
			c1.896,0,2.76,0.647,2.76,2.541V520.076z"/>
		<path fill="#FFFFFF" d="M264.081,522.126v-46.438c0-0.805-0.359-1.444-1.16-1.444h-6.715c-0.808,0-1.125,0.641-1.125,1.444v44.388
			c0,1.979-1.359,3.168-3.262,3.168h-3.796c-1.898,0-2.942-1.189-2.942-3.168v-44.387c0-0.806-0.637-1.445-1.436-1.445h-7.008
			c-0.79,0-1.557,0.615-1.557,1.396v46.627c0,6.77,3.796,9.977,10.607,9.977h8.174C260.731,532.244,264.081,528.989,264.081,522.126
			z"/>
		<path fill="#FFFFFF" d="M299.638,474.244h-26.873c-0.652,0-0.684,0.423-0.684,1.151v56.068c0,0.734,0.031,0.779,0.684,0.779
			h26.873c0.875,0,1.443-0.045,1.443-0.779v-7.297c0-0.806-0.568-0.924-1.443-0.924h-18.557v-15h14.247
			c0.729,0,0.753-0.438,0.753-1.235v-7.225c0-0.807-0.023-1.54-0.753-1.54h-14.247v-14h18.557c0.875,0,1.443-0.825,1.443-1.544
			v-7.305C301.081,474.667,300.513,474.244,299.638,474.244z"/>
		<path fill="#FFFFFF" d="M344.082,531.465v-47.221h8.85c0.807,0,1.15-0.821,1.15-1.544v-7.304c0-0.729-0.344-1.152-1.15-1.152
			h-26.869c-0.72,0-0.98,0.406-0.98,1.104v7.399c0,0.691,0.262,1.496,0.98,1.496h8.019v47.221c0,0.809,0.895,0.779,1.617,0.779h7.59
			C344.097,532.244,344.082,532.272,344.082,531.465z"/>
		<path fill="#FFFFFF" d="M387.677,474.244h-6.717c-0.805,0-1.879,0.641-1.879,1.445v44.387c0,1.979-0.6,3.168-2.498,3.168h-3.801
			c-1.896,0-2.701-1.189-2.701-3.168v-44.387c0-0.806-0.871-1.445-1.678-1.445h-7.012c-0.797,0-1.313,0.641-1.313,1.445v46.437
			c0,6.863,3.502,10.118,10.363,10.118h8.184c6.867,0,10.453-3.255,10.453-10.118v-46.438
			C389.082,474.885,388.482,474.244,387.677,474.244z"/>
		<path fill="#FFFFFF" d="M426.441,474.244h-7.594c-0.803,0-0.768,0.423-0.768,1.151v30.849h-0.84l-11.096-31.037
			c-0.227-0.662-0.654-0.963-1.313-0.963h-7.23c-0.729,0-1.521,0.423-1.521,1.151v56.068c0,0.734,0.793,0.779,1.521,0.779h7.588
			c0.813,0,0.891-0.045,0.891-0.779v-31.221h0.65l11.172,31.115c0.217,0.649,0.662,0.885,1.313,0.885h7.227
			c0.729,0,1.641-0.045,1.641-0.779v-56.068C428.082,474.667,427.171,474.244,426.441,474.244z"/>
		<path fill="#FFFFFF" d="M453.597,474.244h-17.523c-0.797,0-0.992,0.423-0.992,1.151v56.068c0,0.809,0.195,0.779,0.992,0.779
			h17.523c6.861,0,10.484-3.255,10.484-10.118V484.81C464.082,477.957,460.458,474.244,453.597,474.244z M454.082,520.076
			c0,1.979-0.627,3.168-2.527,3.168h-6.473v-39h6.473c1.9,0,2.527,0.638,2.527,2.616V520.076z"/>
		<path fill="#FFFFFF" d="M505.435,531.199l-12.117-56.046c-0.152-0.727-0.588-0.909-1.25-0.909h-10.141
			c-0.662,0-1.098,0.282-1.244,1.008l-12.123,55.951c-0.219,0.803,0.146,1.041,0.955,1.041h7.809c0.654,0,1.023-0.026,1.17-0.68
			l1.967-10.32h13l2.041,10.32c0.148,0.652,0.516,0.68,1.172,0.68h7.744C505.291,532.244,505.578,532.002,505.435,531.199z
			 M482.289,512.244l4.67-25.49l4.672,25.49H482.289z"/>
		<path fill="#FFFFFF" d="M552.082,531.195V475.67c0-0.938-0.439-1.426-1.389-1.426h-9.641c-0.877,0-1.385,0.43-1.605,1.302
			l-8.105,36.36l-8.102-36.358c-0.209-0.872-0.73-1.304-1.609-1.304h-9.633c-0.955,0-1.916,0.494-1.916,1.445v55.485
			c0,0.955,0.961,1.068,1.916,1.068h6.721c0.949,0,1.363-0.113,1.363-1.068v-32.932h0.604l7.23,32.846
			c0.213,0.877,0.729,1.154,1.605,1.154h3.58c0.875,0,1.381-0.277,1.605-1.154l7.227-32.846h0.146v32.932
			c0,0.955,0.875,1.068,1.824,1.068h6.787C551.642,532.244,552.082,532.136,552.082,531.195z"/>
		<path fill="#FFFFFF" d="M594.205,531.199l-12.115-56.046c-0.148-0.727-0.588-0.909-1.25-0.909h-10.146
			c-0.654,0-1.092,0.282-1.232,1.008l-12.119,55.951c-0.232,0.803,0.139,1.041,0.947,1.041h7.816c0.646,0,1.014-0.026,1.158-0.68
			l1.971-10.32h12.998l2.047,10.32c0.143,0.652,0.504,0.68,1.166,0.68h7.732C594.058,532.244,594.351,532.002,594.205,531.199z
			 M571.06,512.244l4.674-25.49l4.672,25.49H571.06z"/>
	</g>
</g>
</svg>
