<?xml version="1.0" encoding="utf-8"?>
<!-- Generator: Adobe Illustrator 16.0.0, SVG Export Plug-In . SVG Version: 6.00 Build 0)  -->
<!DOCTYPE svg PUBLIC "-//W3C//DTD SVG 1.1//EN" "http://www.w3.org/Graphics/SVG/1.1/DTD/svg11.dtd">
<svg version="1.1" id="Layer_1" xmlns="http://www.w3.org/2000/svg" xmlns:xlink="http://www.w3.org/1999/xlink" x="0px" y="0px"
	 width="659px" height="560px" viewBox="0 0 659 560" enable-background="new 0 0 659 560" xml:space="preserve">
<g>
	<path d="M324.622,348.072c-2.817,4.527-5.632,9.185-8.439,13.72c21.539-53.299,7.62-106.924,5.798-160.197
		c-1.126-0.099-2.24-0.177-3.366-0.282c-3.086,12.619-6.178,25.249-9.272,37.863c-0.658-8.921,0.078-17.492,1.294-25.993
		c3.642-25.423,1.737-32.784-3.976-75.18c-5.709-42.412-28.891-92.267-45.898-100.538c-1.92-1.565-5.838,0.109-7.09,0.192
		c-3.479-2.554-6.654-6.759-8.884-6.176c-5.464,1.433-11.063,4.254-15.405,8.252c-1.634,1.509-0.965,8.399,0.457,11.829
		c2.751,6.567,6.799,12.42,10.314,18.577c-0.609,0.488-1.207,0.985-1.806,1.482c-5.586-6.838-11.177-13.665-16.862-20.616
		c-11.524,17.581-8.309,36.831,10.336,69.621c-3.078,4.179-7.939,7.94-7.549,10.682c0.848,5.92,3.189,26.712,6.715,54.335
		c0.508,3.889,14.265,28.634,14.807,32.775c0.584,4.423-12.047-11.736-11.42-7.079c5.414,39.929,12.643,87.313,21.014,124.813
		c0.658,2.952,10.314,6.353,10.961,9.171c0.453,1.977-11.003-4.39-10.557-2.491c2.611,11.238,7.566,25.51,12.469,32.461h52.635
		C323.613,368.342,323.773,357.475,324.622,348.072"/>
	<path d="M218.538,250.132c-0.94-0.082-1.876-0.048-2.809-0.131c-2.593,10.553-5.177,21.187-7.771,31.737
		c-0.557-7.454,0.068-14.617,1.082-21.732c3.045-21.301,1.463-27.427-3.329-62.948c-4.782-35.503-24.198-77.246-38.433-84.169
		c-1.605-1.316-4.896,0.094-5.941,0.162c-2.906-2.148-5.568-5.665-7.439-5.168c-4.574,1.2-9.258,3.562-12.893,6.917
		c-1.371,1.264-0.814,7.029,0.379,9.899c2.301,5.502,5.694,10.4,8.629,15.557c-0.51,0.406-1.002,0.82-1.503,1.237
		c-4.677-5.724-9.356-11.442-14.126-17.264c-9.641,14.722-6.948,30.846,8.657,58.292c-2.573,3.501-6.646,6.646-6.319,8.951
		c0.715,4.954,2.684,22.372,5.629,45.482c0.418,3.271,11.94,23.993,12.394,27.461c0.489,3.704-10.084-9.826-9.565-5.922
		c4.535,33.426,10.59,73.111,17.602,104.514c0.551,2.472,8.634,5.309,9.167,7.669c0.393,1.66-9.201-3.719-8.835-2.132
		c0.537,2.333,1.214,6.749,1.964,6.749h51.776C230.229,333.587,219.969,291.823,218.538,250.132"/>
	<path d="M136.627,311.573c-0.937-0.091-1.877-0.057-2.817-0.15c-2.583,10.572-5.172,21.186-7.763,31.764
		c-0.555-7.481,0.061-14.644,1.083-21.748c3.045-21.301,1.46-27.426-3.323-62.945c-4.79-35.505-24.197-77.259-38.439-84.165
		c-1.604-1.317-4.895,0.087-5.941,0.154c-2.9-2.144-5.561-5.665-7.432-5.175c-4.581,1.199-9.266,3.573-12.901,6.923
		c-1.37,1.263-0.813,7.034,0.388,9.889c2.301,5.51,5.685,10.41,8.621,15.567c-0.502,0.41-1.001,0.824-1.504,1.23
		c-4.676-5.712-9.346-11.437-14.117-17.248c-9.647,14.713-6.956,30.833,8.656,58.284c-2.578,3.513-6.646,6.646-6.318,8.955
		c0.707,4.957,2.676,22.368,5.623,45.482c0.418,3.268,11.939,23.98,12.396,27.456c0.491,3.708-10.097-10.08-9.57-6.176
		c2.395,17.595,5.199,34.772,8.35,55.622h69.785C140.387,354.443,137.357,332.839,136.627,311.573"/>
	<path d="M598.346,319.671c0.523-3.907-10.05,9.761-9.564,6.048c0.452-3.476,11.987-24.122,12.397-27.393
		c2.952-23.117,4.916-40.499,5.619-45.444c0.335-2.314-3.728-5.439-6.308-8.948c15.609-27.446,18.302-43.555,8.654-58.273
		c-4.77,5.82-9.451,11.533-14.127,17.25c-0.5-0.406-1.005-0.813-1.501-1.223c2.934-5.157,6.323-10.057,8.621-15.564
		c1.195-2.858,1.752-8.634,0.395-9.892c-3.645-3.351-8.335-5.724-12.9-6.923c-1.877-0.49-4.532,3.042-7.444,5.175
		c-1.054-0.061-4.333-1.467-5.938-0.151c-14.244,6.91-33.651,48.674-38.433,84.177c-4.781,35.514-6.375,41.667-3.329,62.953
		c1.017,7.131,1.64,14.314,1.083,21.776c-2.583-10.554-5.172-21.126-7.771-31.682c-0.94,0.088-1.876-0.074-2.806,0.017
		c-0.736,21.266-3.754,42.87-4.78,63.72h69.782C593.147,354.443,595.965,337.266,598.346,319.671"/>
	<path d="M498.839,370.943c7.011-31.402,13.062-70.951,17.596-104.393c0.526-3.893-10.052,9.689-9.562,5.996
		c0.455-3.475,11.979-24.158,12.389-27.416c2.956-23.132,4.925-40.524,5.636-45.478c0.315-2.306-3.751-5.439-6.328-8.939
		c15.617-27.451,18.311-43.575,8.659-58.292c-4.77,5.826-9.445,11.543-14.127,17.257c-0.497-0.406-0.993-0.817-1.49-1.238
		c2.935-5.142,6.318-10.046,8.621-15.557c1.199-2.866,1.749-8.636,0.377-9.896c-3.627-3.355-8.316-5.721-12.895-6.913
		c-1.865-0.488-4.528,3.028-7.428,5.168c-1.05-0.06-4.338-1.466-5.942-0.15c-14.245,6.917-33.653,48.667-38.444,84.18
		c-4.787,35.502-6.372,41.664-3.318,62.957c1.016,7.115,1.633,14.306,1.076,21.777c-2.588-10.57-5.175-21.127-7.767-31.688
		c-0.929,0.083-1.876-0.076-2.81,0.007c-1.332,38.959-10.396,75.263-0.654,116.969h50.634
		C495.544,375.293,498.515,372.403,498.839,370.943"/>
	<path d="M407.873,340.455c0.448-1.891-11.002,4.353-10.559,2.377c0.646-2.809,10.303-6.163,10.962-9.109
		c8.372-37.499,15.601-84.861,21.021-124.776c0.625-4.656-12.01,11.518-11.428,7.093c0.55-4.156,14.305-28.882,14.803-32.775
		c3.527-27.623,5.875-48.415,6.717-54.32c0.391-2.757-4.469-6.51-7.546-10.697c18.642-32.779,21.853-52.026,10.337-69.606
		c-5.688,6.951-11.275,13.777-16.866,20.608c-0.598-0.488-1.196-0.985-1.79-1.482c3.505-6.149,7.545-12.002,10.298-18.569
		c1.426-3.43,2.096-10.321,0.459-11.829c-4.345-4.005-9.937-6.83-15.401-8.252c-2.23-0.586-5.404,3.619-8.885,6.176
		c-1.253-0.079-5.164-1.765-7.09-0.192c-17.012,8.259-40.185,58.129-45.898,100.526c-5.721,42.409-7.612,49.761-3.976,75.191
		c1.216,8.5,1.955,17.084,1.29,26.006c-3.088-12.613-6.188-25.228-9.279-37.847c-1.113,0.109-2.233,0.211-3.347,0.32
		c-1.831,53.275-15.757,106.948,5.788,160.251c-2.813-4.532-5.623-9.312-8.43-13.841c0.914,10.271,1.023,22.632,4.544,29.583h50.612
		C399.482,368.342,405.045,352.626,407.873,340.455"/>
	<path d="M561.937,393.635l-6.687,29.976c-0.029,0.104-0.25,0.237-0.25,0.317v0.016c0,0.245,0.654,0.057,0.98,0.057h4.158
		c0.351,0,0.55-0.078,0.63-0.424l1.048-5.576h6.929l1.091,5.576c0.079,0.346,0.263,0.424,0.625,0.424h4.117
		c0.472,0,0.625-0.073,0.546-0.506l-6.462-29.939c-0.068-0.384-0.313-0.555-0.658-0.555h-5.411
		C562.237,393,562.008,393.25,561.937,393.635z M565.277,400.418L567.774,414h-4.987L565.277,400.418z"/>
	<path d="M579,393.779v29.936c0,0.413-0.139,0.285,0.25,0.285h13.936c0.429,0,0.814,0.124,0.814-0.305v-3.9
		c0-0.376-0.386-0.795-0.814-0.795H584v-25.203c0-0.384-0.277-0.797-0.703-0.797h-4.047C578.861,393,579,393.406,579,393.779z"/>
	<rect x="69" y="438" width="528" height="7"/>
	<path d="M70,393.797v29.898c0,0.391,0.297,0.305,0.721,0.305h4.053c0.38,0,0.227,0.086,0.227-0.305V411h7.709
		c0.392,0,0.291,0.084,0.291-0.338v-3.899c0-0.384,0.101-0.763-0.291-0.763H75v-8h10.049c0.387,0,0.951,0.089,0.951-0.302v-3.901
		c0-0.384-0.564-0.797-0.951-0.797H70.721C70.297,393,70,393.413,70,393.797z"/>
	<path d="M89,393.926v24.868c0,3.601,1.754,5.206,5.379,5.206h4.369c3.654,0,5.252-1.632,5.252-5.289v-24.756
		c0-0.422,0.002-0.955-0.43-0.955h-3.579c-0.434,0-0.991,0.533-0.991,0.955v23.67c0,1.045-0.337,1.375-1.348,1.375h-2.021
		c-1.015,0-1.632-0.33-1.632-1.375v-23.67c0-0.422-0.279-0.955-0.703-0.955h-3.74C89.135,393,89,393.518,89,393.926z"/>
	<path d="M108.865,424h4.047c0.424,0,1.088,0.086,1.088-0.305V407h-0.277l5.96,16.552c0.114,0.354,0.352,0.448,0.7,0.448h3.851
		c0.392,0,0.767,0.086,0.767-0.305v-29.898c0-0.384-0.375-0.797-0.767-0.797h-4.045c-0.425,0-0.188,0.413-0.188,0.797V410h-0.673
		l-5.911-16.508c-0.118-0.355-0.352-0.492-0.701-0.492h-3.85c-0.389,0-0.865,0.413-0.865,0.797v29.898
		C108,424.086,108.477,424,108.865,424z"/>
	<path d="M129,393.776v29.941c0,0.411-0.05,0.282,0.373,0.282h9.338c3.663,0,5.289-1.632,5.289-5.289v-19.888
		c0-3.66-1.626-5.823-5.289-5.823h-9.338C128.95,393,129,393.405,129,393.776z M134,398h3.626c1.008,0,1.374,0.859,1.374,1.925v17.7
		c0,1.045-0.366,1.375-1.374,1.375H134V398z"/>
	<path d="M153.148,393.635l-6.458,29.816c-0.118,0.433,0.077,0.549,0.509,0.549h4.164c0.346,0,0.541-0.078,0.619-0.424L153.03,418
		h6.938l1.081,5.576c0.08,0.346,0.272,0.424,0.63,0.424h4.118c0.474,0,0.631-0.073,0.553-0.506l-6.467-29.939
		c-0.073-0.384-0.312-0.555-0.658-0.555h-5.41C153.463,393,153.224,393.25,153.148,393.635z M156.5,400.418L158.988,414h-4.984
		L156.5,400.418z"/>
	<path d="M174.704,424h4.365c3.616,0,5.931-1.632,5.931-5.289v-4.201c0-0.387-0.559-0.51-0.943-0.51h-3.893
		c-0.434,0-0.164,0.123-0.164,0.51v3.115c0,1.045-1.005,1.375-2.02,1.375h-2.021c-1.017,0-1.959-0.33-1.959-1.375v-17.75
		c0-1.016,0.904-1.875,1.959-1.875h2.021c1.015,0,2.02,0.859,2.02,1.875v3.114c0,0.388-0.27,1.011,0.164,1.011h3.893
		c0.385,0,0.943-0.623,0.943-1.011v-4.201c0-3.667-2.314-5.788-5.931-5.788h-4.365c-3.654,0-5.704,2.121-5.704,5.788v19.923
		C169,422.368,171.05,424,174.704,424z"/>
	<path d="M189,393.797v29.898c0,0.391-0.242,0.305,0.182,0.305h4.053c0.391,0,0.766,0.086,0.766-0.305v-29.898
		c0-0.384-0.375-0.797-0.766-0.797h-4.053C188.758,393,189,393.413,189,393.797z"/>
	<path d="M198,398.781v19.93c0,3.657,1.689,5.289,5.355,5.289h4.359c3.66,0,5.285-1.632,5.285-5.289v-19.93
		c0-3.66-1.625-5.781-5.285-5.781h-4.359C199.689,393,198,395.121,198,398.781z M203,399.759c0-1.016,0.465-1.759,1.478-1.759h2.263
		c1.014,0,1.26,0.743,1.26,1.759v17.982c0,1.054-0.246,1.259-1.26,1.259h-2.263c-1.013,0-1.478-0.205-1.478-1.259V399.759z"/>
	<path d="M217,393.797v29.898c0,0.391,0.438,0.305,0.836,0.305h4.044c0.427,0,0.12,0.086,0.12-0.305V407h0.692l5.961,16.552
		c0.114,0.354,0.352,0.448,0.698,0.448h3.854c0.389,0,0.795,0.086,0.795-0.305v-29.898c0-0.384-0.406-0.797-0.795-0.797h-4.047
		c-0.431,0-0.158,0.413-0.158,0.797V410h-0.705l-5.915-16.508c-0.12-0.355-0.347-0.492-0.696-0.492h-3.848
		C217.438,393,217,393.413,217,393.797z"/>
	<path d="M253.559,393.635l-6.496,29.976c-0.029,0.104-0.063,0.238-0.063,0.318v0.015c0,0.245,0.279,0.057,0.601,0.057h4.161
		c0.357,0,0.55-0.078,0.629-0.424l1.049-5.576h6.931l1.083,5.576c0.087,0.346,0.271,0.424,0.628,0.424h4.12
		c0.466,0,0.625-0.073,0.55-0.506l-6.458-29.939c-0.076-0.384-0.32-0.555-0.666-0.555h-5.41
		C253.862,393,253.625,393.25,253.559,393.635z M256.902,400.418L259.389,414h-4.974L256.902,400.418z"/>
	<path d="M270,393.797v29.898c0,0.391,0.485,0.305,0.872,0.305h4.046c0.391,0,1.082,0.086,1.082-0.305V414h2.234l2.6,9.674
		c0.085,0.346,0.277,0.326,0.666,0.326h4.047c0.43,0,0.658-0.073,0.541-0.547l-2.806-10.117c1.871-0.813,2.718-2.444,2.718-5.05
		v-9.505c0-3.66-1.697-5.781-5.358-5.781h-9.77C270.485,393,270,393.413,270,393.797z M276,398h3.395
		c1.016,0,1.605,0.859,1.605,1.875v7.32c0,1.008-0.59,1.805-1.605,1.805H276V398z"/>
	<path d="M289.979,398H294v25.695c0,0.429,0.732,0.305,1.122,0.305h4.046c0.426,0,0.832,0.124,0.832-0.305V398h4.303
		c0.434,0,0.697,0.089,0.697-0.302v-3.901c0-0.384-0.264-0.797-0.697-0.797h-14.324c-0.391,0-0.979,0.413-0.979,0.797v3.901
		C289,398.089,289.588,398,289.979,398z"/>
	<path d="M308.658,424h4.052c0.39,0,0.29,0.086,0.29-0.305v-29.898c0-0.384,0.1-0.797-0.29-0.797h-4.052
		c-0.427,0-0.658,0.413-0.658,0.797v29.898C308,424.086,308.231,424,308.658,424z"/>
	<path d="M317,398.781v9.192c0,0.729,0.215,1.208,0.915,1.44l9.085,3.023v5.188c0,1.045-0.047,1.375-1.063,1.375h-1.865
		c-0.967,0-1.072-0.33-1.072-1.375v-2.999c0-0.427-0.682-0.626-1.107-0.626h-4.053c-0.379,0-0.84,0.199-0.84,0.626v4.085
		c0,3.657,2.206,5.289,5.826,5.289h4.357c3.637,0,5.816-1.614,5.816-5.233v-9.075c0-0.723-0.222-1.139-0.872-1.405L323,405.242
		v-5.367c0-1.016,0.105-1.875,1.072-1.875h1.865c1.054,0,1.063,0.859,1.063,1.875v3.035c0,0.392,0.734,1.09,1.123,1.09h4.043
		c0.422,0,0.834-0.689,0.834-1.063v-4.212c0-3.622-2.18-5.726-5.816-5.726h-4.357C319.206,393,317,395.121,317,398.781z"/>
	<path d="M335,393.797v3.901c0,0.391,0.359,0.302,0.748,0.302H340v25.695c0,0.429,0.498,0.305,0.889,0.305h4.044
		c0.432,0,1.067,0.124,1.067-0.305V398h4.066c0.432,0,0.934,0.089,0.934-0.302v-3.901c0-0.384-0.502-0.797-0.934-0.797h-14.318
		C335.359,393,335,393.413,335,393.797z"/>
	<path d="M354.429,424h4.048c0.392,0,0.523,0.086,0.523-0.305v-29.898c0-0.384-0.132-0.797-0.523-0.797h-4.048
		C354,393,354,393.413,354,393.797v29.898C354,424.086,354,424,354.429,424z"/>
	<path d="M363,398.733v20.032c0,3.62,1.996,5.234,5.632,5.234h4.356c3.622,0,6.012-1.632,6.012-5.289v-4.201
		c0-0.387-0.639-0.51-1.025-0.51h-3.896c-0.422,0-1.078,0.123-1.078,0.51v3.115c0,1.045-0.088,1.375-1.097,1.375h-2.026
		c-1.008,0-1.877-0.33-1.877-1.375v-17.75c0-1.016,0.828-1.875,1.877-1.875h2.026c1.009,0,1.097,0.859,1.097,1.875v3.114
		c0,0.388,0.656,1.011,1.078,1.011h3.896c0.387,0,1.025-0.623,1.025-1.011v-4.201c0-3.667-2.39-5.788-6.012-5.788h-4.356
		C364.996,393,363,395.104,363,398.733z"/>
	<path d="M388.213,393.635l-6.469,29.816c-0.117,0.433,0.086,0.549,0.503,0.549h4.167c0.351,0,0.543-0.078,0.625-0.424l1.053-5.576
		h6.925l1.087,5.576c0.088,0.346,0.275,0.424,0.633,0.424h4.117c0.463,0,0.621-0.073,0.555-0.506l-6.471-29.939
		c-0.074-0.384-0.313-0.555-0.658-0.555h-5.412C388.518,393,388.288,393.25,388.213,393.635z M391.553,400.418l2.49,13.582h-4.976
		L391.553,400.418z"/>
	<path d="M413,393.695v0.018c0,0.106,0.417,0.225,0.472,0.354L421,411.393v12.145c0,0.511-0.064,0.463,0.439,0.463h3.738
		c0.51,0,0.822,0.048,0.822-0.463v-12.145l7.021-17.325c0.055-0.13-0.021-0.249-0.021-0.355v-0.017c0-0.322-0.11-0.695-0.544-0.695
		h-3.893c-0.462,0-0.741,0.289-0.888,0.711l-4.355,11.221l-4.366-11.243c-0.154-0.422-0.426-0.688-0.899-0.688h-3.889
		C413.734,393,413,393.373,413,393.695z"/>
	<path d="M208.77,390.506l3.675,0.651c0.505,0.09,1.037-0.137,1.127-0.633l1.429-6.825v-0.018l-5.431-0.92l-1.313,6.842
		C208.164,390.104,208.277,390.419,208.77,390.506z"/>
	<path d="M311.33,390.506l3.684,0.651c0.502,0.09,0.814-0.137,0.904-0.633l1.203-6.842l-5.212-0.921l-1.202,6.842
		C310.612,390.104,310.835,390.419,311.33,390.506z"/>
	<path d="M451.251,424h4.363c3.61,0,5.386-1.632,5.386-5.289v-4.201c0-0.387-0.015-0.51-0.401-0.51h-3.901
		c-0.422,0-0.697,0.123-0.697,0.51v3.115c0,1.045-0.461,1.375-1.476,1.375h-2.023c-1.009,0-1.501-0.33-1.501-1.375v-17.75
		c0-1.016,0.447-1.875,1.501-1.875h2.023c1.015,0,1.476,0.859,1.476,1.875v3.114c0,0.388,0.275,1.011,0.697,1.011h3.901
		c0.387,0,0.401-0.623,0.401-1.011v-4.201c0-3.667-1.775-5.788-5.386-5.788h-4.363c-3.651,0-5.251,2.121-5.251,5.788v19.923
		C446,422.368,447.6,424,451.251,424z"/>
	<path d="M465,393.955v24.756c0,3.657,2.049,5.289,5.713,5.289h4.361c3.656,0,5.926-1.632,5.926-5.289v-24.756
		c0-0.422-0.674-0.955-1.103-0.955h-3.581c-0.429,0-0.316,0.533-0.316,0.955v23.67c0,1.045-1.011,1.375-2.02,1.375h-2.026
		c-1.009,0-1.954-0.33-1.954-1.375v-23.67c0-0.422,0.05-0.955-0.387-0.955h-3.73C465.453,393,465,393.533,465,393.955z"/>
	<path d="M485.193,424H499v-5h-9v-25.203c0-0.384-0.339-0.797-0.761-0.797h-4.046c-0.398,0-0.193,0.413-0.193,0.797v29.898
		C485,424.124,484.795,424,485.193,424z"/>
	<path d="M500,423.695v-3.9c0-0.376-0.447-0.795-0.876-0.795H499v5h0.124C499.553,424,500,424.124,500,423.695z"/>
	<path d="M499,393.797v3.901c0,0.391,0.199,0.302,0.588,0.302H500v-5h-0.412C499.199,393,499,393.413,499,393.797z"/>
	<path d="M504,398v25.695c0,0.429,0.338,0.305,0.725,0.305h4.044c0.436,0,0.231,0.124,0.231-0.305V398h4.906
		c0.433,0,1.094,0.089,1.094-0.302v-3.901c0-0.384-0.661-0.797-1.094-0.797H500v5H504z"/>
	<path d="M523.249,424h4.363c3.651,0,5.388-1.632,5.388-5.289v-24.756c0-0.422-0.138-0.955-0.566-0.955h-3.58
		c-0.429,0-0.854,0.533-0.854,0.955v23.67c0,1.045-0.478,1.375-1.486,1.375h-2.02c-1.016,0-1.494-0.33-1.494-1.375v-23.67
		c0-0.422-0.42-0.955-0.842-0.955h-3.738c-0.429,0-0.42,0.533-0.42,0.955v24.756C518,422.368,519.586,424,523.249,424z"/>
	<path d="M537.722,424h4.052c0.388,0,0.227,0.086,0.227-0.305V414h3.083l2.606,9.674c0.075,0.346,0.278,0.326,0.658,0.326h4.051
		c0.429,0,0.658-0.073,0.542-0.547l-2.728-10.117c1.859-0.813,2.787-2.444,2.787-5.05v-9.505c0-3.66-1.843-5.781-5.506-5.781h-9.772
		c-0.384,0-0.722,0.413-0.722,0.797v29.898C537,424.086,537.338,424,537.722,424z M542,398h4.248c1.021,0,1.752,0.859,1.752,1.875
		v7.32c0,1.008-0.731,1.805-1.752,1.805H542V398z"/>
	<path d="M87.383,464H79.22C72.348,464,69,467.635,69,474.499v37.383C69,518.738,72.348,522,79.22,522h8.163
		C94.182,522,98,518.738,98,511.882v-7.895c0-0.723-0.529-0.987-1.26-0.987h-7.307c-0.798,0-1.434,0.265-1.434,0.987v5.845
		c0,1.979-0.756,3.168-2.654,3.168h-3.801c-1.889,0-2.545-1.189-2.545-3.168v-33.291c0-1.903,0.576-2.541,2.545-2.541h3.801
		c1.898,0,2.654,0.638,2.654,2.541v5.845c0,0.723,0.636,1.614,1.434,1.614h7.307c0.73,0,1.26-0.892,1.26-1.614v-7.887
		C98,467.635,94.182,464,87.383,464z"/>
	<path d="M140.686,520.955l-12.125-56.046c-0.145-0.726-0.574-0.909-1.238-0.909h-10.146c-0.652,0-1.091,0.282-1.238,1.008
		l-12.123,55.951c-0.223,0.803,0.146,1.041,0.955,1.041h7.813c0.652,0,1.012-0.026,1.162-0.68l1.963-10.32h13.009l2.044,10.32
		c0.145,0.653,0.504,0.68,1.166,0.68h7.734C140.541,522,140.832,521.758,140.686,520.955z M117.545,502l4.669-25.49l4.672,25.49
		H117.545z"/>
	<path d="M175,511.882v-7.895c0-0.723-0.365-0.987-1.103-0.987h-7.302c-0.799,0-1.596,0.265-1.596,0.987v5.845
		c0,1.979-0.593,3.168-2.49,3.168h-3.801c-1.892,0-2.709-1.189-2.709-3.168v-33.291c0-1.903,0.74-2.541,2.709-2.541h3.801
		c1.897,0,2.49,0.638,2.49,2.541v5.845c0,0.723,0.797,1.614,1.596,1.614h7.302c0.737,0,1.103-0.892,1.103-1.614v-7.887
		c0-6.864-3.654-10.499-10.447-10.499h-8.172c-6.869,0-10.381,3.635-10.381,10.499v37.383c0,6.856,3.512,10.118,10.381,10.118h8.172
		C171.346,522,175,518.738,175,511.882z"/>
	<path d="M192,521.221v-56.068c0-0.729-0.148-1.152-0.877-1.152h-7.593c-0.79,0-1.53,0.411-1.53,1.118v56.137
		c0,0.712,0.74,0.745,1.53,0.745h7.593C191.852,522,192,521.955,192,521.221z"/>
	<path d="M218.283,464h-8.18c-6.858,0-10.104,3.635-10.104,10.499v37.383c0,6.863,3.245,10.118,10.104,10.118h4.53l2.482,5.693
		c0.284,0.578,0.509,1.307,1.239,1.307h7.596c0.801,0,1.384-0.599,1.021-1.408l-2.824-6.326c3.146-1.602,4.853-4.788,4.853-9.384
		v-37.383C229,467.635,225.146,464,218.283,464z M219,509.832c0,1.979-0.863,3.168-2.76,3.168h-3.801
		c-1.897,0-2.439-1.189-2.439-3.168v-33.291c0-1.893,0.542-2.541,2.439-2.541h3.801c1.896,0,2.76,0.648,2.76,2.541V509.832z"/>
	<path d="M265,511.882v-46.437c0-0.805-0.359-1.445-1.16-1.445h-6.715c-0.808,0-1.125,0.641-1.125,1.445v44.387
		c0,1.979-1.359,3.168-3.262,3.168h-3.796c-1.898,0-2.942-1.189-2.942-3.168v-44.387c0-0.805-0.637-1.445-1.436-1.445h-7.008
		c-0.79,0-1.557,0.615-1.557,1.397v46.627c0,6.769,3.796,9.976,10.607,9.976h8.174C261.65,522,265,518.745,265,511.882z"/>
	<path d="M300.557,464h-26.873c-0.652,0-0.684,0.423-0.684,1.152v56.068c0,0.734,0.031,0.779,0.684,0.779h26.873
		c0.875,0,1.443-0.045,1.443-0.779v-7.297c0-0.806-0.568-0.924-1.443-0.924H282v-15h14.247c0.729,0,0.753-0.438,0.753-1.235v-7.225
		c0-0.806-0.023-1.54-0.753-1.54H282v-14h18.557c0.875,0,1.443-0.825,1.443-1.544v-7.304C302,464.423,301.432,464,300.557,464z"/>
	<path d="M345,521.221V474h8.85c0.807,0,1.15-0.821,1.15-1.544v-7.304c0-0.729-0.344-1.152-1.15-1.152H326.98
		c-0.719,0-0.98,0.406-0.98,1.104v7.399c0,0.691,0.262,1.496,0.98,1.496H335v47.221c0,0.808,0.895,0.779,1.617,0.779h7.589
		C345.016,522,345,522.028,345,521.221z"/>
	<path d="M388.596,464h-6.717c-0.805,0-1.879,0.641-1.879,1.445v44.387c0,1.979-0.6,3.168-2.498,3.168h-3.801
		c-1.895,0-2.701-1.189-2.701-3.168v-44.387c0-0.805-0.871-1.445-1.677-1.445h-7.011c-0.797,0-1.313,0.641-1.313,1.445v46.437
		c0,6.863,3.502,10.118,10.363,10.118h8.184c6.867,0,10.453-3.255,10.453-10.118v-46.437C390,464.641,389.401,464,388.596,464z"/>
	<path d="M427.359,464h-7.593c-0.802,0-0.767,0.423-0.767,1.152V496h-0.84l-11.096-31.037c-0.227-0.662-0.654-0.963-1.313-0.963
		h-7.229c-0.729,0-1.522,0.423-1.522,1.152v56.068c0,0.734,0.793,0.779,1.522,0.779h7.587c0.813,0,0.891-0.045,0.891-0.779V490h0.65
		l11.172,31.115c0.217,0.65,0.662,0.885,1.313,0.885h7.225c0.73,0,1.641-0.045,1.641-0.779v-56.068
		C429,464.423,428.09,464,427.359,464z"/>
	<path d="M454.516,464h-17.523c-0.797,0-0.992,0.423-0.992,1.152v56.068c0,0.808,0.195,0.779,0.992,0.779h17.523
		c6.861,0,10.484-3.255,10.484-10.118v-37.316C465,467.713,461.377,464,454.516,464z M455,509.832c0,1.979-0.627,3.168-2.527,3.168
		H446v-39h6.473c1.9,0,2.527,0.638,2.527,2.616V509.832z"/>
	<path d="M506.354,520.955l-12.118-56.046c-0.151-0.726-0.587-0.909-1.25-0.909h-10.14c-0.662,0-1.098,0.282-1.244,1.008
		l-12.123,55.951c-0.218,0.803,0.146,1.041,0.955,1.041h7.809c0.654,0,1.023-0.026,1.17-0.68l1.967-10.32h12.999l2.042,10.32
		c0.147,0.653,0.515,0.68,1.171,0.68h7.744C506.21,522,506.496,521.758,506.354,520.955z M483.207,502l4.671-25.49L492.55,502
		H483.207z"/>
	<path d="M553,520.951v-55.525c0-0.938-0.439-1.426-1.388-1.426h-9.641c-0.876,0-1.384,0.43-1.605,1.302l-8.105,36.36l-8.103-36.358
		c-0.209-0.872-0.729-1.304-1.608-1.304h-9.633c-0.955,0-1.917,0.494-1.917,1.445v55.486c0,0.955,0.962,1.068,1.917,1.068h6.721
		c0.948,0,1.362-0.113,1.362-1.068V488h0.604l7.23,32.846c0.214,0.877,0.729,1.154,1.606,1.154h3.58
		c0.876,0,1.381-0.277,1.605-1.154L542.854,488H543v32.932c0,0.955,0.876,1.068,1.824,1.068h6.788
		C552.561,522,553,521.892,553,520.951z"/>
	<path d="M595.123,520.955l-12.115-56.046c-0.149-0.726-0.587-0.909-1.249-0.909h-10.147c-0.655,0-1.091,0.282-1.233,1.008
		l-12.118,55.951c-0.234,0.803,0.138,1.041,0.947,1.041h7.815c0.647,0,1.015-0.026,1.159-0.68l1.971-10.32h12.998l2.047,10.32
		c0.142,0.653,0.504,0.68,1.165,0.68h7.733C594.977,522,595.27,521.758,595.123,520.955z M571.979,502l4.672-25.49l4.672,25.49
		H571.979z"/>
</g>
</svg>
