<?xml version="1.0" encoding="utf-8"?>
<!-- Generator: Adobe Illustrator 16.0.0, SVG Export Plug-In . SVG Version: 6.00 Build 0)  -->
<!DOCTYPE svg PUBLIC "-//W3C//DTD SVG 1.1//EN" "http://www.w3.org/Graphics/SVG/1.1/DTD/svg11.dtd">
<svg version="1.1" id="Layer_1" xmlns="http://www.w3.org/2000/svg" xmlns:xlink="http://www.w3.org/1999/xlink" x="0px" y="0px"
	 width="659px" height="560px" viewBox="0 0 659 560" enable-background="new 0 0 659 560" xml:space="preserve">
<g>
	<path fill="#A8D038" d="M323.622,349.072c-2.817,4.527-5.631,9.185-8.439,13.72c21.539-53.299,7.62-106.924,5.799-160.197
		c-1.126-0.099-2.24-0.177-3.367-0.282c-3.086,12.619-6.179,25.249-9.272,37.863c-0.659-8.921,0.078-17.492,1.293-25.993
		c3.642-25.423,1.737-32.784-3.976-75.18c-5.709-42.412-28.891-92.267-45.899-100.538c-1.919-1.565-5.838,0.109-7.089,0.192
		c-3.478-2.554-6.654-6.759-8.884-6.176c-5.464,1.433-11.063,4.254-15.405,8.252c-1.634,1.509-0.965,8.399,0.457,11.829
		c2.751,6.567,6.8,12.42,10.314,18.577c-0.609,0.488-1.207,0.985-1.805,1.482c-5.586-6.838-11.177-13.665-16.863-20.616
		c-11.524,17.581-8.309,36.831,10.336,69.621c-3.079,4.179-7.939,7.94-7.548,10.682c0.847,5.92,3.189,26.712,6.714,54.335
		c0.509,3.889,14.265,28.634,14.807,32.775c0.584,4.423-12.047-11.736-11.42-7.079c5.415,39.929,12.643,87.313,21.014,124.813
		c0.659,2.951,10.314,6.353,10.961,9.171c0.452,1.977-11.003-4.39-10.557-2.491c2.612,11.238,7.567,25.51,12.469,32.461h52.636
		C322.613,369.342,322.773,358.475,323.622,349.072"/>
	<path fill="#D96600" d="M217.538,251.132c-0.94-0.082-1.876-0.048-2.809-0.131c-2.593,10.553-5.177,21.187-7.771,31.737
		c-0.557-7.454,0.068-14.617,1.082-21.732c3.045-21.301,1.463-27.427-3.329-62.948c-4.782-35.503-24.198-77.246-38.433-84.169
		c-1.606-1.316-4.896,0.094-5.942,0.162c-2.906-2.148-5.567-5.665-7.439-5.168c-4.575,1.2-9.258,3.562-12.893,6.917
		c-1.371,1.264-0.814,7.029,0.379,9.899c2.3,5.502,5.694,10.4,8.628,15.557c-0.509,0.406-1.002,0.82-1.502,1.237
		c-4.677-5.724-9.356-11.442-14.125-17.264c-9.642,14.722-6.949,30.846,8.657,58.292c-2.573,3.501-6.646,6.646-6.319,8.951
		c0.714,4.954,2.684,22.372,5.628,45.482c0.418,3.271,11.94,23.993,12.394,27.461c0.489,3.704-10.084-9.826-9.565-5.922
		c4.534,33.426,10.59,73.11,17.601,104.514c0.551,2.472,8.634,5.31,9.167,7.669c0.393,1.66-9.201-3.719-8.835-2.132
		c0.537,2.333,1.214,6.749,1.964,6.749h51.776C229.229,334.587,218.968,292.823,217.538,251.132"/>
	<path fill="#D9131F" d="M135.627,312.573c-0.937-0.091-1.877-0.058-2.818-0.15c-2.583,10.572-5.172,21.187-7.763,31.765
		c-0.555-7.481,0.061-14.645,1.083-21.748c3.045-21.301,1.459-27.426-3.323-62.945c-4.791-35.505-24.198-77.259-38.44-84.165
		c-1.604-1.317-4.894,0.087-5.941,0.154c-2.9-2.144-5.561-5.665-7.432-5.175c-4.581,1.199-9.266,3.573-12.901,6.923
		c-1.371,1.263-0.813,7.034,0.387,9.889c2.302,5.51,5.685,10.41,8.621,15.567c-0.502,0.41-1,0.824-1.503,1.23
		c-4.677-5.712-9.346-11.437-14.118-17.248c-9.647,14.713-6.956,30.833,8.657,58.284c-2.579,3.513-6.646,6.646-6.319,8.955
		c0.707,4.957,2.677,22.368,5.623,45.482c0.418,3.268,11.94,23.979,12.397,27.455c0.491,3.709-10.097-10.08-9.57-6.176
		c2.394,17.596,5.199,34.771,8.349,55.622h69.785C139.386,355.443,136.357,333.839,135.627,312.573"/>
	<path fill="#41077D" d="M597.346,320.671c0.523-3.907-10.05,9.761-9.563,6.048c0.452-3.476,11.986-24.121,12.396-27.393
		c2.952-23.117,4.916-40.499,5.619-45.444c0.335-2.314-3.728-5.439-6.308-8.948c15.608-27.446,18.302-43.555,8.653-58.273
		c-4.77,5.82-9.45,11.533-14.127,17.25c-0.5-0.406-1.005-0.813-1.501-1.223c2.935-5.157,6.323-10.057,8.621-15.564
		c1.195-2.858,1.752-8.634,0.396-9.892c-3.646-3.351-8.335-5.724-12.9-6.923c-1.877-0.49-4.532,3.042-7.444,5.175
		c-1.054-0.061-4.332-1.467-5.938-0.151c-14.244,6.91-33.651,48.674-38.433,84.177c-4.781,35.514-6.375,41.667-3.329,62.953
		c1.017,7.131,1.64,14.314,1.083,21.776c-2.583-10.554-5.172-21.126-7.771-31.683c-0.939,0.088-1.876-0.074-2.806,0.018
		c-0.736,21.266-3.754,42.869-4.78,63.72h69.782C592.146,355.443,594.965,338.266,597.346,320.671"/>
	<path fill="#320C84" d="M497.839,371.943c7.011-31.402,13.063-70.951,17.596-104.394c0.526-3.893-10.052,9.689-9.562,5.996
		c0.455-3.475,11.979-24.158,12.389-27.416c2.956-23.132,4.925-40.524,5.637-45.478c0.314-2.306-3.752-5.439-6.328-8.939
		c15.616-27.451,18.311-43.575,8.658-58.292c-4.77,5.826-9.444,11.543-14.127,17.257c-0.497-0.406-0.992-0.817-1.489-1.238
		c2.935-5.142,6.317-10.046,8.62-15.557c1.199-2.866,1.75-8.636,0.378-9.896c-3.628-3.355-8.316-5.721-12.896-6.913
		c-1.865-0.488-4.528,3.028-7.428,5.168c-1.05-0.06-4.338-1.466-5.942-0.15c-14.245,6.917-33.652,48.667-38.443,84.18
		c-4.788,35.502-6.373,41.664-3.319,62.957c1.016,7.115,1.633,14.306,1.076,21.777c-2.587-10.57-5.174-21.127-7.767-31.688
		c-0.929,0.083-1.876-0.076-2.81,0.007c-1.331,38.959-10.396,75.263-0.654,116.969h50.634
		C494.544,376.293,497.515,373.402,497.839,371.943"/>
	<path fill="#008E25" d="M406.874,341.455c0.448-1.891-11.002,4.354-10.559,2.377c0.646-2.809,10.303-6.163,10.961-9.109
		c8.372-37.498,15.601-84.861,21.021-124.776c0.624-4.656-12.011,11.518-11.428,7.093c0.549-4.156,14.305-28.882,14.802-32.775
		c3.528-27.623,5.875-48.415,6.717-54.32c0.392-2.757-4.468-6.51-7.545-10.697c18.643-32.779,21.854-52.026,10.336-69.606
		c-5.687,6.951-11.274,13.777-16.866,20.608c-0.598-0.488-1.195-0.985-1.789-1.482c3.504-6.149,7.544-12.002,10.297-18.569
		c1.426-3.43,2.096-10.321,0.459-11.829c-4.346-4.005-9.938-6.83-15.402-8.252c-2.23-0.586-5.404,3.619-8.884,6.176
		c-1.253-0.079-5.165-1.765-7.09-0.192c-17.012,8.259-40.185,58.129-45.898,100.526c-5.721,42.409-7.612,49.761-3.976,75.191
		c1.215,8.5,1.955,17.084,1.29,26.006c-3.087-12.613-6.188-25.228-9.278-37.847c-1.113,0.109-2.234,0.211-3.347,0.32
		c-1.832,53.275-15.758,106.948,5.788,160.251c-2.813-4.531-5.623-9.313-8.43-13.841c0.914,10.271,1.023,22.632,4.543,29.583h50.612
		C398.482,369.342,404.045,353.626,406.874,341.455"/>
	<path fill="#FFFFFF" d="M558.355,387.29l-6.646,29.915c-0.029,0.104-0.209,0.176-0.209,0.256v0.017c0,0.245,0.574,0.301,0.9,0.301
		h4.156c0.352,0,0.551-0.078,0.631-0.424l1.049-5.576h6.928l1.092,5.576c0.078,0.346,0.262,0.424,0.625,0.424h4.117
		c0.471,0,0.625-0.195,0.545-0.628l-6.461-29.878c-0.068-0.385-0.314-0.494-0.658-0.494h-5.412
		C558.656,386.777,558.426,386.905,558.355,387.29z M561.695,394.195l2.498,13.582h-4.988L561.695,394.195z"/>
	<path fill="#FFFFFF" d="M575.5,387.312v29.937c0,0.413-0.221,0.529,0.168,0.529h13.936c0.43,0,0.896-0.12,0.896-0.549v-3.9
		c0-0.376-0.467-0.551-0.896-0.551H580.5V387.33c0-0.384-0.357-0.553-0.783-0.553h-4.047
		C575.279,386.777,575.5,386.939,575.5,387.312z"/>
	<rect x="65.5" y="431.777" fill="#FFFFFF" width="528" height="7"/>
	<path fill="#FFFFFF" d="M66.5,387.33v29.898c0,0.391,0.216,0.549,0.64,0.549h4.053c0.38,0,0.308-0.158,0.308-0.549v-12.451h7.628
		c0.392,0,0.372-0.16,0.372-0.582v-3.899c0-0.384,0.02-0.519-0.372-0.519H71.5v-8h9.968c0.387,0,1.032-0.155,1.032-0.546v-3.901
		c0-0.384-0.646-0.553-1.032-0.553H67.14C66.715,386.777,66.5,386.946,66.5,387.33z"/>
	<path fill="#FFFFFF" d="M85.5,387.459v24.868c0,3.602,1.673,5.45,5.298,5.45h4.369c3.654,0,5.333-1.876,5.333-5.533v-24.756
		c0-0.422-0.079-0.711-0.511-0.711H96.41c-0.434,0-0.91,0.289-0.91,0.711v23.67c0,1.045-0.418,1.619-1.429,1.619h-2.021
		c-1.015,0-1.551-0.574-1.551-1.619v-23.67c0-0.422-0.36-0.711-0.784-0.711h-3.74C85.553,386.777,85.5,387.052,85.5,387.459z"/>
	<path fill="#FFFFFF" d="M105.284,417.777h4.047c0.424,0,1.169-0.158,1.169-0.549v-16.451h-0.358l5.96,16.552
		c0.114,0.354,0.352,0.448,0.7,0.448h3.851c0.392,0,0.848-0.158,0.848-0.549V387.33c0-0.384-0.456-0.553-0.848-0.553h-4.045
		c-0.425,0-0.107,0.169-0.107,0.553v16.447h-0.754l-5.911-16.509c-0.118-0.354-0.352-0.491-0.701-0.491h-3.85
		c-0.389,0-0.784,0.169-0.784,0.553v29.898C104.5,417.619,104.896,417.777,105.284,417.777z"/>
	<path fill="#FFFFFF" d="M125.5,387.31v29.94c0,0.411-0.131,0.526,0.292,0.526h9.338c3.663,0,5.37-1.876,5.37-5.533v-19.888
		c0-3.66-1.707-5.579-5.37-5.579h-9.338C125.369,386.777,125.5,386.938,125.5,387.31z M130.5,391.777h3.545
		c1.008,0,1.455,0.614,1.455,1.681v17.7c0,1.045-0.447,1.619-1.455,1.619H130.5V391.777z"/>
	<path fill="#FFFFFF" d="M149.566,387.29l-6.458,29.878c-0.118,0.433,0.077,0.609,0.509,0.609h4.164
		c0.346,0,0.541-0.078,0.619-0.424l1.048-5.576h6.938l1.081,5.576c0.08,0.346,0.272,0.424,0.63,0.424h4.118
		c0.474,0,0.631-0.195,0.553-0.628l-6.467-29.879c-0.073-0.385-0.312-0.493-0.658-0.493h-5.41
		C149.881,386.777,149.643,386.905,149.566,387.29z M152.918,394.195l2.488,13.582h-4.984L152.918,394.195z"/>
	<path fill="#FFFFFF" d="M171.123,417.777h4.365c3.616,0,6.012-1.876,6.012-5.533v-4.201c0-0.387-0.64-0.266-1.024-0.266h-3.893
		c-0.434,0-0.083-0.121-0.083,0.266v3.115c0,1.045-1.086,1.619-2.101,1.619h-2.021c-1.017,0-1.878-0.574-1.878-1.619v-17.75
		c0-1.017,0.823-1.631,1.878-1.631h2.021c1.015,0,2.101,0.614,2.101,1.631v3.114c0,0.388-0.351,1.255,0.083,1.255h3.893
		c0.385,0,1.024-0.867,1.024-1.255v-4.201c0-3.667-2.396-5.544-6.012-5.544h-4.365c-3.654,0-5.623,1.877-5.623,5.544v19.923
		C165.5,415.901,167.468,417.777,171.123,417.777z"/>
	<path fill="#FFFFFF" d="M185.5,387.33v29.898c0,0.391-0.323,0.549,0.101,0.549h4.053c0.391,0,0.847-0.158,0.847-0.549V387.33
		c0-0.384-0.456-0.553-0.847-0.553h-4.053C185.176,386.777,185.5,386.946,185.5,387.33z"/>
	<path fill="#FFFFFF" d="M194.5,392.314v19.93c0,3.657,1.608,5.533,5.274,5.533h4.359c3.66,0,5.366-1.876,5.366-5.533v-19.93
		c0-3.66-1.706-5.537-5.366-5.537h-4.359C196.107,386.777,194.5,388.654,194.5,392.314z M199.5,393.292
		c0-1.016,0.384-1.515,1.396-1.515h2.263c1.014,0,1.341,0.499,1.341,1.515v17.982c0,1.054-0.327,1.503-1.341,1.503h-2.263
		c-1.013,0-1.396-0.449-1.396-1.503V393.292z"/>
	<path fill="#FFFFFF" d="M213.5,387.33v29.898c0,0.391,0.356,0.549,0.755,0.549h4.044c0.427,0,0.201-0.158,0.201-0.549v-16.451
		h0.611l5.961,16.552c0.114,0.354,0.352,0.448,0.698,0.448h3.854c0.389,0,0.876-0.158,0.876-0.549V387.33
		c0-0.384-0.487-0.553-0.876-0.553h-4.047c-0.431,0-0.077,0.169-0.077,0.553v16.447h-0.786l-5.915-16.509
		c-0.12-0.354-0.347-0.491-0.696-0.491h-3.848C213.856,386.777,213.5,386.946,213.5,387.33z"/>
	<path fill="#FFFFFF" d="M249.978,387.29l-6.456,29.915c-0.029,0.104-0.022,0.177-0.022,0.257v0.016c0,0.245,0.198,0.301,0.52,0.301
		h4.161c0.357,0,0.55-0.078,0.629-0.424l1.049-5.576h6.931l1.083,5.576c0.087,0.346,0.271,0.424,0.628,0.424h4.12
		c0.466,0,0.625-0.195,0.55-0.628l-6.458-29.878c-0.076-0.385-0.32-0.494-0.666-0.494h-5.41
		C250.28,386.777,250.043,386.905,249.978,387.29z M253.32,394.195l2.486,13.582h-4.974L253.32,394.195z"/>
	<path fill="#FFFFFF" d="M266.5,387.33v29.898c0,0.391,0.404,0.549,0.791,0.549h4.046c0.391,0,1.163-0.158,1.163-0.549v-9.451h2.153
		l2.6,9.674c0.085,0.346,0.277,0.326,0.666,0.326h4.047c0.43,0,0.658-0.195,0.541-0.669l-2.765-10.18
		c1.871-0.813,2.758-2.504,2.758-5.109v-9.505c0-3.66-1.778-5.537-5.439-5.537h-9.77C266.903,386.777,266.5,386.946,266.5,387.33z
		 M272.5,391.777h3.313c1.016,0,1.687,0.614,1.687,1.631v7.319c0,1.009-0.671,2.05-1.687,2.05H272.5V391.777z"/>
	<path fill="#FFFFFF" d="M286.397,391.777h4.103v25.451c0,0.429,0.651,0.549,1.041,0.549h4.046c0.426,0,0.913-0.12,0.913-0.549
		v-25.451h4.222c0.435,0,0.778-0.155,0.778-0.546v-3.901c0-0.384-0.345-0.553-0.778-0.553h-14.324c-0.391,0-0.897,0.169-0.897,0.553
		v3.901C285.5,391.622,286.006,391.777,286.397,391.777z"/>
	<path fill="#FFFFFF" d="M305.077,417.777h4.052c0.39,0,0.371-0.158,0.371-0.549V387.33c0-0.384,0.019-0.553-0.371-0.553h-4.052
		c-0.427,0-0.577,0.169-0.577,0.553v29.898C304.5,417.619,304.65,417.777,305.077,417.777z"/>
	<path fill="#FFFFFF" d="M313.5,392.314v9.192c0,0.729,0.215,1.207,0.915,1.439l9.085,3.023v5.188c0,1.045-0.128,1.619-1.145,1.619
		h-1.864c-0.967,0-0.991-0.574-0.991-1.619v-2.999c0-0.427-0.763-0.382-1.188-0.382h-4.053c-0.379,0-0.759-0.045-0.759,0.382v4.085
		c0,3.657,2.125,5.533,5.745,5.533h4.356c3.638,0,5.897-1.858,5.897-5.479v-9.074c0-0.724-0.221-1.14-0.872-1.405l-9.128-3.044
		v-5.367c0-1.016,0.023-1.631,0.991-1.631h1.864c1.055,0,1.145,0.615,1.145,1.631v3.035c0,0.392,0.653,1.334,1.042,1.334h4.043
		c0.422,0,0.915-0.934,0.915-1.307v-4.213c0-3.621-2.261-5.48-5.897-5.48h-4.356C315.625,386.777,313.5,388.654,313.5,392.314z"/>
	<path fill="#FFFFFF" d="M331.5,387.33v3.901c0,0.391,0.277,0.546,0.666,0.546h4.334v25.451c0,0.429,0.416,0.549,0.807,0.549h4.045
		c0.432,0,1.148-0.12,1.148-0.549v-25.451h3.984c0.432,0,1.016-0.155,1.016-0.546v-3.901c0-0.384-0.584-0.553-1.016-0.553h-14.318
		C331.777,386.777,331.5,386.946,331.5,387.33z"/>
	<path fill="#FFFFFF" d="M350.848,417.777h4.047c0.393,0,0.605-0.158,0.605-0.549V387.33c0-0.384-0.213-0.553-0.605-0.553h-4.047
		c-0.43,0-0.348,0.169-0.348,0.553v29.898C350.5,417.619,350.418,417.777,350.848,417.777z"/>
	<path fill="#FFFFFF" d="M359.5,392.267v20.031c0,3.62,1.914,5.479,5.551,5.479h4.355c3.623,0,6.094-1.876,6.094-5.533v-4.2
		c0-0.388-0.721-0.267-1.107-0.267h-3.895c-0.422,0-0.998-0.121-0.998,0.267v3.114c0,1.045-0.168,1.619-1.178,1.619h-2.025
		c-1.008,0-1.797-0.574-1.797-1.619v-17.75c0-1.017,0.748-1.631,1.797-1.631h2.025c1.01,0,1.178,0.614,1.178,1.631v3.114
		c0,0.388,0.576,1.255,0.998,1.255h3.895c0.389,0,1.107-0.867,1.107-1.255v-4.201c0-3.667-2.471-5.544-6.094-5.544h-4.355
		C361.414,386.777,359.5,388.638,359.5,392.267z"/>
	<path fill="#FFFFFF" d="M384.631,387.29l-6.469,29.878c-0.117,0.433,0.086,0.609,0.504,0.609h4.166
		c0.352,0,0.543-0.078,0.625-0.424l1.053-5.576h6.926l1.086,5.576c0.09,0.346,0.275,0.424,0.635,0.424h4.115
		c0.465,0,0.621-0.195,0.557-0.628l-6.473-29.879c-0.072-0.385-0.313-0.493-0.656-0.493h-5.412
		C384.936,386.777,384.707,386.905,384.631,387.29z M387.971,394.195l2.49,13.582h-4.975L387.971,394.195z"/>
	<path fill="#FFFFFF" d="M409.5,387.228v0.019c0,0.106,0.416,0.226,0.471,0.354l7.529,17.324v12.146
		c0,0.511-0.146,0.707,0.357,0.707h3.738c0.51,0,0.902-0.196,0.902-0.707v-12.146l7.021-17.324c0.055-0.131-0.021-0.25-0.021-0.355
		v-0.018c0-0.321-0.191-0.45-0.625-0.45h-3.893c-0.463,0-0.74,0.167-0.889,0.589l-4.354,11.159l-4.367-11.151
		c-0.154-0.422-0.426-0.597-0.898-0.597h-3.889C410.152,386.777,409.5,386.906,409.5,387.228z"/>
	<path fill="#FFFFFF" d="M205.188,384.039l3.675,0.651c0.505,0.09,1.078-0.137,1.167-0.633l1.469-6.825v-0.019l-5.471-0.92
		l-1.333,6.842C204.604,383.638,204.695,383.952,205.188,384.039z"/>
	<path fill="#FFFFFF" d="M307.749,384.039l3.684,0.651c0.502,0.09,0.814-0.137,0.904-0.633l1.203-6.842l-5.212-0.922l-1.202,6.842
		C307.031,383.638,307.253,383.952,307.749,384.039z"/>
	<path fill="#FFFFFF" d="M447.67,417.777h4.363c3.609,0,5.467-1.876,5.467-5.533v-4.201c0-0.387-0.096-0.266-0.482-0.266h-3.9
		c-0.422,0-0.617-0.121-0.617,0.266v3.115c0,1.045-0.541,1.619-1.557,1.619h-2.023c-1.008,0-1.42-0.574-1.42-1.619v-17.75
		c0-1.017,0.367-1.631,1.42-1.631h2.023c1.016,0,1.557,0.614,1.557,1.631v3.114c0,0.388,0.195,1.255,0.617,1.255h3.9
		c0.387,0,0.482-0.867,0.482-1.255v-4.201c0-3.667-1.857-5.544-5.467-5.544h-4.363c-3.652,0-5.17,1.877-5.17,5.544v19.923
		C442.5,415.901,444.018,417.777,447.67,417.777z"/>
	<path fill="#FFFFFF" d="M461.5,387.488v24.756c0,3.657,1.967,5.533,5.631,5.533h4.361c3.656,0,6.008-1.876,6.008-5.533v-24.756
		c0-0.422-0.756-0.711-1.186-0.711h-3.58c-0.43,0-0.234,0.289-0.234,0.711v23.67c0,1.045-1.092,1.619-2.102,1.619h-2.025
		c-1.01,0-1.873-0.574-1.873-1.619v-23.67c0-0.422-0.031-0.711-0.469-0.711h-3.73C461.871,386.777,461.5,387.066,461.5,387.488z"/>
	<path fill="#FFFFFF" d="M481.611,417.777H495.5v-5h-9V387.33c0-0.384-0.42-0.553-0.842-0.553h-4.047
		c-0.398,0-0.111,0.169-0.111,0.553v29.898C481.5,417.657,481.213,417.777,481.611,417.777z"/>
	<path fill="#FFFFFF" d="M496.5,417.229v-3.9c0-0.376-0.529-0.551-0.957-0.551H495.5v5h0.043
		C495.971,417.777,496.5,417.657,496.5,417.229z"/>
	<path fill="#FFFFFF" d="M495.5,387.33v3.901c0,0.391,0.117,0.546,0.506,0.546h0.494v-5h-0.494
		C495.617,386.777,495.5,386.946,495.5,387.33z"/>
	<path fill="#FFFFFF" d="M500.5,391.777v25.451c0,0.429,0.256,0.549,0.643,0.549h4.045c0.436,0,0.313-0.12,0.313-0.549v-25.451
		h4.826c0.432,0,1.174-0.155,1.174-0.546v-3.901c0-0.384-0.742-0.553-1.174-0.553H496.5v5H500.5z"/>
	<path fill="#FFFFFF" d="M519.668,417.777h4.363c3.65,0,5.469-1.876,5.469-5.533v-24.756c0-0.422-0.219-0.711-0.648-0.711h-3.58
		c-0.428,0-0.771,0.289-0.771,0.711v23.67c0,1.045-0.559,1.619-1.566,1.619h-2.02c-1.018,0-1.414-0.574-1.414-1.619v-23.67
		c0-0.422-0.5-0.711-0.922-0.711h-3.738c-0.43,0-0.34,0.289-0.34,0.711v24.756C514.5,415.901,516.004,417.777,519.668,417.777z"/>
	<path fill="#FFFFFF" d="M534.141,417.777h4.053c0.387,0,0.307-0.158,0.307-0.549v-9.451h3.002l2.607,9.674
		c0.074,0.346,0.277,0.326,0.656,0.326h4.053c0.428,0,0.656-0.195,0.541-0.669l-2.688-10.18c1.859-0.813,2.828-2.504,2.828-5.109
		v-9.505c0-3.66-1.924-5.537-5.588-5.537h-9.771c-0.385,0-0.641,0.169-0.641,0.553v29.898
		C533.5,417.619,533.756,417.777,534.141,417.777z M538.5,391.777h4.166c1.021,0,1.834,0.614,1.834,1.631v7.319
		c0,1.009-0.814,2.05-1.834,2.05H538.5V391.777z"/>
	<path fill="#FFFFFF" d="M83.801,457.777h-8.163c-6.872,0-10.139,3.391-10.139,10.255v37.383c0,6.856,3.267,10.362,10.139,10.362
		h8.163c6.799,0,10.698-3.506,10.698-10.362v-7.895c0-0.724-0.61-0.743-1.341-0.743h-7.307c-0.798,0-1.353,0.021-1.353,0.743v5.845
		c0,1.979-0.837,3.412-2.735,3.412h-3.801c-1.889,0-2.464-1.435-2.464-3.412v-33.291c0-1.903,0.495-2.297,2.464-2.297h3.801
		c1.898,0,2.735,0.394,2.735,2.297v5.845c0,0.724,0.555,1.858,1.353,1.858h7.307c0.73,0,1.341-1.136,1.341-1.858v-7.887
		C94.5,461.168,90.601,457.777,83.801,457.777z"/>
	<path fill="#FFFFFF" d="M137.104,514.61l-12.125-55.985c-0.145-0.725-0.574-0.848-1.238-0.848h-10.146
		c-0.652,0-1.091,0.16-1.238,0.886l-12.123,56.014c-0.223,0.803,0.146,1.102,0.955,1.102h7.813c0.652,0,1.012-0.026,1.162-0.68
		l1.963-10.32h13.009l2.044,10.32c0.145,0.652,0.504,0.68,1.166,0.68h7.734C136.959,515.777,137.25,515.413,137.104,514.61z
		 M113.963,495.777l4.669-25.49l4.672,25.49H113.963z"/>
	<path fill="#FFFFFF" d="M171.5,505.415v-7.895c0-0.724-0.446-0.743-1.184-0.743h-7.302c-0.799,0-1.515,0.021-1.515,0.743v5.845
		c0,1.979-0.674,3.412-2.571,3.412h-3.801c-1.892,0-2.628-1.435-2.628-3.412v-33.291c0-1.903,0.659-2.297,2.628-2.297h3.801
		c1.897,0,2.571,0.394,2.571,2.297v5.845c0,0.724,0.716,1.858,1.515,1.858h7.302c0.737,0,1.184-1.136,1.184-1.858v-7.887
		c0-6.864-3.735-10.255-10.528-10.255h-8.172c-6.869,0-10.3,3.391-10.3,10.255v37.383c0,6.856,3.431,10.362,10.3,10.362h8.172
		C167.765,515.777,171.5,512.271,171.5,505.415z"/>
	<path fill="#FFFFFF" d="M188.5,514.754v-56.067c0-0.729-0.229-0.908-0.958-0.908h-7.593c-0.79,0-1.449,0.167-1.449,0.874v56.137
		c0,0.712,0.659,0.989,1.449,0.989h7.593C188.271,515.777,188.5,515.488,188.5,514.754z"/>
	<path fill="#FFFFFF" d="M214.702,457.777h-8.18c-6.858,0-10.022,3.391-10.022,10.255v37.383c0,6.863,3.164,10.362,10.022,10.362
		h4.53l2.482,5.692c0.284,0.578,0.509,1.308,1.239,1.308h7.596c0.801,0,1.384-0.721,1.021-1.53l-2.784-6.388
		c3.146-1.603,4.893-4.85,4.893-9.444v-37.383C225.5,461.168,221.564,457.777,214.702,457.777z M215.5,503.365
		c0,1.979-0.944,3.412-2.841,3.412h-3.801c-1.897,0-2.358-1.435-2.358-3.412v-33.291c0-1.893,0.461-2.297,2.358-2.297h3.801
		c1.896,0,2.841,0.404,2.841,2.297V503.365z"/>
	<path fill="#FFFFFF" d="M261.5,505.415v-46.437c0-0.806-0.44-1.201-1.241-1.201h-6.715c-0.808,0-1.044,0.396-1.044,1.201v44.387
		c0,1.979-1.44,3.412-3.343,3.412h-3.796c-1.898,0-2.861-1.435-2.861-3.412v-44.387c0-0.806-0.718-1.201-1.517-1.201h-7.008
		c-0.79,0-1.476,0.371-1.476,1.153v46.627c0,6.769,3.715,10.22,10.526,10.22h8.174C258.068,515.777,261.5,512.278,261.5,505.415z"/>
	<path fill="#FFFFFF" d="M296.975,457.777h-26.873c-0.652,0-0.603,0.179-0.603,0.908v56.067c0,0.734-0.05,1.023,0.603,1.023h26.873
		c0.875,0,1.524-0.289,1.524-1.023v-7.297c0-0.806-0.649-0.68-1.524-0.68H278.5v-15h14.166c0.729,0,0.834-0.683,0.834-1.479v-7.225
		c0-0.806-0.104-1.296-0.834-1.296H278.5v-14h18.476c0.875,0,1.524-1.069,1.524-1.788v-7.304
		C298.5,457.956,297.85,457.777,296.975,457.777z"/>
	<path fill="#FFFFFF" d="M341.5,514.754v-46.977h8.768c0.809,0,1.232-1.065,1.232-1.788v-7.304c0-0.729-0.426-0.908-1.232-0.908
		h-26.869c-0.72,0-0.899,0.162-0.899,0.86v7.398c0,0.691,0.181,1.74,0.899,1.74h8.101v46.977c0,0.809,0.813,1.023,1.535,1.023h7.59
		C341.434,515.777,341.5,515.562,341.5,514.754z"/>
	<path fill="#FFFFFF" d="M385.014,457.777h-6.717c-0.805,0-1.797,0.396-1.797,1.201v44.387c0,1.979-0.682,3.412-2.58,3.412h-3.801
		c-1.895,0-2.619-1.435-2.619-3.412v-44.387c0-0.806-0.953-1.201-1.758-1.201h-7.012c-0.797,0-1.23,0.396-1.23,1.201v46.437
		c0,6.863,3.42,10.362,10.281,10.362h8.184c6.867,0,10.535-3.499,10.535-10.362v-46.437
		C386.5,458.174,385.82,457.777,385.014,457.777z"/>
	<path fill="#FFFFFF" d="M423.777,457.777h-7.594c-0.801,0-0.686,0.179-0.686,0.908v31.092h-0.92l-11.096-31.037
		c-0.229-0.662-0.654-0.963-1.314-0.963h-7.229c-0.729,0-1.441,0.179-1.441,0.908v56.067c0,0.734,0.713,1.023,1.441,1.023h7.588
		c0.813,0,0.971-0.289,0.971-1.023v-30.977h0.57l11.172,31.115c0.217,0.649,0.662,0.885,1.313,0.885h7.225
		c0.73,0,1.723-0.289,1.723-1.023v-56.067C425.5,457.956,424.508,457.777,423.777,457.777z"/>
	<path fill="#FFFFFF" d="M450.934,457.777h-17.521c-0.797,0-0.912,0.179-0.912,0.908v56.067c0,0.809,0.115,1.023,0.912,1.023h17.521
		c6.861,0,10.566-3.499,10.566-10.362v-37.315C461.5,461.246,457.795,457.777,450.934,457.777z M451.5,503.365
		c0,1.979-0.709,3.412-2.609,3.412H442.5v-39h6.391c1.9,0,2.609,0.394,2.609,2.372V503.365z"/>
	<path fill="#FFFFFF" d="M502.771,514.61l-12.117-55.985c-0.15-0.725-0.586-0.848-1.25-0.848h-10.141
		c-0.662,0-1.098,0.16-1.244,0.886l-12.123,56.014c-0.217,0.803,0.146,1.102,0.955,1.102h7.811c0.652,0,1.021-0.026,1.17-0.68
		l1.967-10.32h12.998l2.043,10.32c0.146,0.652,0.514,0.68,1.17,0.68h7.744C502.629,515.777,502.914,515.413,502.771,514.61z
		 M479.625,495.777l4.672-25.49l4.672,25.49H479.625z"/>
	<path fill="#FFFFFF" d="M549.5,514.484v-55.525c0-0.938-0.521-1.182-1.469-1.182h-9.643c-0.875,0-1.383,0.308-1.604,1.18
		l-8.105,36.299l-8.104-36.267c-0.209-0.872-0.729-1.212-1.607-1.212h-9.633c-0.955,0-1.836,0.25-1.836,1.201v55.485
		c0,0.955,0.881,1.313,1.836,1.313h6.721c0.947,0,1.443-0.357,1.443-1.313v-32.688h0.523l7.229,32.846
		c0.215,0.877,0.73,1.154,1.607,1.154h3.58c0.875,0,1.381-0.277,1.604-1.154l7.227-32.846h0.229v32.688
		c0,0.955,0.795,1.313,1.744,1.313h6.787C548.979,515.777,549.5,515.425,549.5,514.484z"/>
	<path fill="#FFFFFF" d="M591.541,514.61l-12.115-55.985c-0.148-0.725-0.586-0.848-1.248-0.848h-10.146
		c-0.656,0-1.092,0.16-1.234,0.886l-12.117,56.014c-0.234,0.803,0.139,1.102,0.947,1.102h7.814c0.646,0,1.016-0.026,1.158-0.68
		l1.973-10.32h12.998l2.047,10.32c0.141,0.652,0.504,0.68,1.164,0.68h7.732C591.395,515.777,591.688,515.413,591.541,514.61z
		 M568.396,495.777l4.674-25.49l4.672,25.49H568.396z"/>
</g>
</svg>
