<?xml version="1.0" encoding="utf-8"?>
<!-- Generator: Adobe Illustrator 16.0.0, SVG Export Plug-In . SVG Version: 6.00 Build 0)  -->
<!DOCTYPE svg PUBLIC "-//W3C//DTD SVG 1.1//EN" "http://www.w3.org/Graphics/SVG/1.1/DTD/svg11.dtd">
<svg version="1.1" id="Layer_1" xmlns="http://www.w3.org/2000/svg" xmlns:xlink="http://www.w3.org/1999/xlink" x="0px" y="0px"
	 width="659px" height="560px" viewBox="0 0 659 560" enable-background="new 0 0 659 560" xml:space="preserve">
<g>
	<g>
		<g>
			<g>
				<defs>
					<rect id="SVGID_1_" x="554.438" y="394.173" width="19.709" height="31.146"/>
				</defs>
				<clipPath id="SVGID_2_">
					<use xlink:href="#SVGID_1_"  overflow="visible"/>
				</clipPath>
				<path clip-path="url(#SVGID_2_)" d="M569.461,425.318c-0.362,0-0.546-0.194-0.625-0.54l-1.091-5.691h-6.929l-1.049,5.691
					c-0.08,0.346-0.278,0.54-0.63,0.54h-4.157c-0.438,0-0.634-0.232-0.513-0.665l6.468-29.934c0.071-0.384,0.302-0.548,0.656-0.548
					h5.411c0.346,0,0.59,0.164,0.658,0.548l6.462,29.934c0.079,0.433-0.074,0.665-0.546,0.665H569.461z M564.277,400.992
					l-2.49,13.582h4.987L564.277,400.992z"/>
			</g>
		</g>
	</g>
	<g>
		<g>
			<g>
				<defs>
					<rect id="SVGID_3_" x="577.625" y="394.173" width="15.177" height="31.146"/>
				</defs>
				<clipPath id="SVGID_4_">
					<use xlink:href="#SVGID_3_"  overflow="visible"/>
				</clipPath>
				<path clip-path="url(#SVGID_4_)" d="M582.922,420.18h9.264c0.43,0,0.616,0.239,0.616,0.615v3.9c0,0.429-0.188,0.623-0.616,0.623
					H578.25c-0.396,0-0.628-0.194-0.628-0.623v-29.898c0-0.384,0.231-0.624,0.628-0.624h4.047c0.426,0,0.625,0.24,0.625,0.624
					V420.18z"/>
			</g>
		</g>
	</g>
	<g>
		<path fill="#A8D038" d="M323.622,349.072c-2.817,4.527-5.631,9.185-8.439,13.72c21.539-53.299,7.62-106.924,5.799-160.197
			c-1.126-0.099-2.24-0.177-3.367-0.282c-3.086,12.619-6.179,25.249-9.272,37.863c-0.659-8.921,0.078-17.492,1.293-25.993
			c3.642-25.423,1.737-32.784-3.976-75.18c-5.709-42.412-28.891-92.267-45.899-100.538c-1.919-1.565-5.838,0.109-7.089,0.192
			c-3.478-2.554-6.654-6.759-8.884-6.176c-5.464,1.433-11.063,4.254-15.405,8.252c-1.634,1.509-0.965,8.399,0.457,11.829
			c2.751,6.567,6.8,12.42,10.314,18.577c-0.609,0.488-1.207,0.985-1.805,1.482c-5.586-6.838-11.177-13.665-16.863-20.616
			c-11.524,17.581-8.309,36.831,10.336,69.621c-3.079,4.179-7.939,7.94-7.548,10.682c0.847,5.92,3.189,26.712,6.714,54.335
			c0.509,3.889,14.265,28.634,14.807,32.775c0.584,4.423-12.047-11.736-11.42-7.079c5.415,39.929,12.643,87.313,21.014,124.813
			c0.659,2.951,10.314,6.353,10.961,9.171c0.452,1.977-11.003-4.39-10.557-2.491c2.612,11.238,7.567,25.51,12.469,32.461h52.636
			C322.613,369.342,322.773,358.475,323.622,349.072"/>
		<path fill="#D96600" d="M217.538,251.132c-0.94-0.082-1.876-0.048-2.809-0.131c-2.593,10.553-5.177,21.187-7.771,31.737
			c-0.557-7.454,0.068-14.617,1.082-21.732c3.045-21.301,1.463-27.427-3.329-62.948c-4.782-35.503-24.198-77.246-38.433-84.169
			c-1.606-1.316-4.896,0.094-5.942,0.162c-2.906-2.148-5.567-5.665-7.439-5.168c-4.575,1.2-9.258,3.562-12.893,6.917
			c-1.371,1.264-0.814,7.029,0.379,9.899c2.3,5.502,5.694,10.4,8.628,15.557c-0.509,0.406-1.002,0.82-1.502,1.237
			c-4.677-5.724-9.356-11.442-14.125-17.264c-9.642,14.722-6.949,30.846,8.657,58.292c-2.573,3.501-6.646,6.646-6.319,8.951
			c0.714,4.954,2.684,22.372,5.628,45.482c0.418,3.271,11.94,23.993,12.394,27.461c0.489,3.704-10.084-9.826-9.565-5.922
			c4.534,33.426,10.59,73.11,17.601,104.514c0.551,2.472,8.634,5.31,9.167,7.669c0.393,1.66-9.201-3.719-8.835-2.132
			c0.537,2.333,1.214,6.749,1.964,6.749h51.776C229.229,334.587,218.968,292.823,217.538,251.132"/>
		<path fill="#D9131F" d="M135.627,312.573c-0.937-0.091-1.877-0.058-2.818-0.15c-2.583,10.572-5.172,21.187-7.763,31.765
			c-0.555-7.481,0.061-14.645,1.083-21.748c3.045-21.301,1.459-27.426-3.323-62.945c-4.791-35.505-24.198-77.259-38.44-84.165
			c-1.604-1.317-4.894,0.087-5.941,0.154c-2.9-2.144-5.561-5.665-7.432-5.175c-4.581,1.199-9.266,3.573-12.901,6.923
			c-1.371,1.263-0.813,7.034,0.387,9.889c2.302,5.51,5.685,10.41,8.621,15.567c-0.502,0.41-1,0.824-1.503,1.23
			c-4.677-5.712-9.346-11.437-14.118-17.248c-9.647,14.713-6.956,30.833,8.657,58.284c-2.579,3.513-6.646,6.646-6.319,8.955
			c0.707,4.957,2.677,22.368,5.623,45.482c0.418,3.268,11.94,23.979,12.397,27.455c0.491,3.709-10.097-10.08-9.57-6.176
			c2.394,17.596,5.199,34.771,8.349,55.622h69.785C139.386,355.443,136.357,333.839,135.627,312.573"/>
		<path fill="#41077D" d="M597.346,320.671c0.523-3.907-10.05,9.761-9.563,6.048c0.452-3.476,11.986-24.121,12.396-27.393
			c2.952-23.117,4.916-40.499,5.619-45.444c0.335-2.314-3.728-5.439-6.308-8.948c15.608-27.446,18.302-43.555,8.653-58.273
			c-4.77,5.82-9.45,11.533-14.127,17.25c-0.5-0.406-1.005-0.813-1.501-1.223c2.935-5.157,6.323-10.057,8.621-15.564
			c1.195-2.858,1.752-8.634,0.396-9.892c-3.646-3.351-8.335-5.724-12.9-6.923c-1.877-0.49-4.532,3.042-7.444,5.175
			c-1.054-0.061-4.332-1.467-5.938-0.151c-14.244,6.91-33.651,48.674-38.433,84.177c-4.781,35.514-6.375,41.667-3.329,62.953
			c1.017,7.131,1.64,14.314,1.083,21.776c-2.583-10.554-5.172-21.126-7.771-31.683c-0.939,0.088-1.876-0.074-2.806,0.018
			c-0.736,21.266-3.754,42.869-4.78,63.72h69.782C592.146,355.443,594.965,338.266,597.346,320.671"/>
		<path fill="#320C84" d="M497.839,371.943c7.011-31.402,13.063-70.951,17.596-104.394c0.526-3.893-10.052,9.689-9.562,5.996
			c0.455-3.475,11.979-24.158,12.389-27.416c2.956-23.132,4.925-40.524,5.637-45.478c0.314-2.306-3.752-5.439-6.328-8.939
			c15.616-27.451,18.311-43.575,8.658-58.292c-4.77,5.826-9.444,11.543-14.127,17.257c-0.497-0.406-0.992-0.817-1.489-1.238
			c2.935-5.142,6.317-10.046,8.62-15.557c1.199-2.866,1.75-8.636,0.378-9.896c-3.628-3.355-8.316-5.721-12.896-6.913
			c-1.865-0.488-4.528,3.028-7.428,5.168c-1.05-0.06-4.338-1.466-5.942-0.15c-14.245,6.917-33.652,48.667-38.443,84.18
			c-4.788,35.502-6.373,41.664-3.319,62.957c1.016,7.115,1.633,14.306,1.076,21.777c-2.587-10.57-5.174-21.127-7.767-31.688
			c-0.929,0.083-1.876-0.076-2.81,0.007c-1.331,38.959-10.396,75.263-0.654,116.969h50.634
			C494.544,376.293,497.515,373.402,497.839,371.943"/>
		<path fill="#008E25" d="M406.874,341.455c0.448-1.891-11.002,4.354-10.559,2.377c0.646-2.809,10.303-6.163,10.961-9.109
			c8.372-37.498,15.601-84.861,21.021-124.776c0.624-4.656-12.011,11.518-11.428,7.093c0.549-4.156,14.305-28.882,14.802-32.775
			c3.528-27.623,5.875-48.415,6.717-54.32c0.392-2.757-4.468-6.51-7.545-10.697c18.643-32.779,21.854-52.026,10.336-69.606
			c-5.687,6.951-11.274,13.777-16.866,20.608c-0.598-0.488-1.195-0.985-1.789-1.482c3.504-6.149,7.544-12.002,10.297-18.569
			c1.426-3.43,2.096-10.321,0.459-11.829c-4.346-4.005-9.938-6.83-15.402-8.252c-2.23-0.586-5.404,3.619-8.884,6.176
			c-1.253-0.079-5.165-1.765-7.09-0.192c-17.012,8.259-40.185,58.129-45.898,100.526c-5.721,42.409-7.612,49.761-3.976,75.191
			c1.215,8.5,1.955,17.084,1.29,26.006c-3.087-12.613-6.188-25.228-9.278-37.847c-1.113,0.109-2.234,0.211-3.347,0.32
			c-1.832,53.275-15.758,106.948,5.788,160.251c-2.813-4.531-5.623-9.313-8.43-13.841c0.914,10.271,1.023,22.632,4.543,29.583
			h50.612C398.482,369.342,404.045,353.626,406.874,341.455"/>
		<g>
			<g>
				<g>
					<defs>
						<rect id="SVGID_5_" x="67.507" y="438.857" width="528.293" height="6.948"/>
					</defs>
					<clipPath id="SVGID_6_">
						<use xlink:href="#SVGID_5_"  overflow="visible"/>
					</clipPath>
					<rect x="67.507" y="438.857" clip-path="url(#SVGID_6_)" width="528.293" height="6.948"/>
				</g>
			</g>
		</g>
		<g>
			<g>
				<g>
					<defs>
						<rect id="SVGID_7_" x="69.096" y="394.173" width="15.571" height="31.146"/>
					</defs>
					<clipPath id="SVGID_8_">
						<use xlink:href="#SVGID_7_"  overflow="visible"/>
					</clipPath>
					<path clip-path="url(#SVGID_8_)" d="M84.667,398.698c0,0.391-0.232,0.622-0.619,0.622h-9.657v7.816h7.317
						c0.391,0,0.621,0.241,0.621,0.625v3.899c0,0.422-0.229,0.612-0.621,0.612h-7.317v12.421c0,0.391-0.239,0.623-0.619,0.623H69.72
						c-0.423,0-0.619-0.232-0.619-0.623v-29.898c0-0.384,0.195-0.624,0.619-0.624h14.328c0.386,0,0.619,0.24,0.619,0.624V398.698z"
						/>
				</g>
			</g>
		</g>
		<g>
			<g>
				<g>
					<defs>
						<rect id="SVGID_9_" x="87.784" y="394.173" width="15.564" height="31.146"/>
					</defs>
					<clipPath id="SVGID_10_">
						<use xlink:href="#SVGID_9_"  overflow="visible"/>
					</clipPath>
					<path clip-path="url(#SVGID_10_)" d="M102.57,394.173c0.432,0,0.778,0.36,0.778,0.782v24.756c0,3.657-1.946,5.607-5.601,5.607
						h-4.369c-3.654,0-5.601-1.95-5.601-5.607v-24.756c0-0.422,0.346-0.782,0.779-0.782h3.74c0.424,0,0.77,0.36,0.77,0.782v23.67
						c0,1.045,0.551,1.555,1.565,1.555h2.021c1.01,0,1.559-0.51,1.559-1.555v-23.67c0-0.422,0.346-0.782,0.779-0.782H102.57z"/>
				</g>
			</g>
		</g>
		<g>
			<g>
				<g>
					<defs>
						<rect id="SVGID_11_" x="107.237" y="394.173" width="16.621" height="31.146"/>
					</defs>
					<clipPath id="SVGID_12_">
						<use xlink:href="#SVGID_11_"  overflow="visible"/>
					</clipPath>
					<path clip-path="url(#SVGID_12_)" d="M123.233,394.173c0.392,0,0.625,0.24,0.625,0.624v29.898c0,0.391-0.232,0.623-0.625,0.623
						h-3.851c-0.348,0-0.585-0.156-0.7-0.511l-5.96-16.612h-0.195v16.5c0,0.391-0.192,0.623-0.615,0.623h-4.047
						c-0.389,0-0.628-0.232-0.628-0.623v-29.898c0-0.384,0.239-0.624,0.628-0.624h3.85c0.35,0,0.583,0.164,0.701,0.521l5.911,16.533
						h0.237v-16.43c0-0.384,0.2-0.624,0.625-0.624H123.233L123.233,394.173z"/>
				</g>
			</g>
		</g>
		<g>
			<g>
				<g>
					<defs>
						<rect id="SVGID_13_" x="127.752" y="394.173" width="15.566" height="31.146"/>
					</defs>
					<clipPath id="SVGID_14_">
						<use xlink:href="#SVGID_13_"  overflow="visible"/>
					</clipPath>
					<path clip-path="url(#SVGID_14_)" d="M127.749,394.797c0-0.384,0.192-0.624,0.625-0.624h9.337c3.663,0,5.608,1.99,5.608,5.65
						v19.888c0,3.657-1.945,5.607-5.608,5.607h-9.337c-0.433,0-0.625-0.194-0.625-0.623V394.797z M136.626,420.18
						c1.008,0,1.557-0.51,1.557-1.555v-17.7c0-1.065-0.549-1.604-1.557-1.604h-3.59v20.857h3.59V420.18z"/>
				</g>
			</g>
		</g>
		<g>
			<g>
				<g>
					<defs>
						<rect id="SVGID_15_" x="145.658" y="394.173" width="19.708" height="31.146"/>
					</defs>
					<clipPath id="SVGID_16_">
						<use xlink:href="#SVGID_15_"  overflow="visible"/>
					</clipPath>
					<path clip-path="url(#SVGID_16_)" d="M160.679,425.318c-0.357,0-0.549-0.194-0.629-0.54l-1.082-5.691h-6.938l-1.048,5.691
						c-0.078,0.346-0.272,0.54-0.618,0.54H146.2c-0.432,0-0.628-0.232-0.509-0.665l6.458-29.934
						c0.075-0.384,0.314-0.548,0.666-0.548h5.411c0.346,0,0.584,0.164,0.657,0.548l6.467,29.934
						c0.079,0.433-0.079,0.665-0.552,0.665H160.679z M155.5,400.992l-2.496,13.582h4.984L155.5,400.992z"/>
				</g>
			</g>
		</g>
		<g>
			<g>
				<g>
					<defs>
						<rect id="SVGID_17_" x="168.062" y="394.173" width="15.611" height="31.146"/>
					</defs>
					<clipPath id="SVGID_18_">
						<use xlink:href="#SVGID_17_"  overflow="visible"/>
					</clipPath>
					<path clip-path="url(#SVGID_18_)" d="M183.673,403.989c0,0.388-0.231,0.622-0.616,0.622h-3.893
						c-0.434,0-0.628-0.234-0.628-0.622v-3.114c0-1.016-0.541-1.555-1.555-1.555h-2.022c-1.054,0-1.557,0.539-1.557,1.555v17.75
						c0,1.045,0.541,1.555,1.557,1.555h2.022c1.015,0,1.555-0.51,1.555-1.555v-3.115c0-0.387,0.195-0.619,0.628-0.619h3.893
						c0.385,0,0.616,0.232,0.616,0.619v4.201c0,3.657-1.987,5.607-5.604,5.607h-4.365c-3.654,0-5.643-1.95-5.643-5.607v-19.923
						c0-3.667,1.988-5.615,5.643-5.615h4.365c3.616,0,5.604,1.948,5.604,5.615V403.989z"/>
				</g>
			</g>
		</g>
		<g>
			<g>
				<g>
					<defs>
						<rect id="SVGID_19_" x="187.561" y="394.173" width="5.297" height="31.146"/>
					</defs>
					<clipPath id="SVGID_20_">
						<use xlink:href="#SVGID_19_"  overflow="visible"/>
					</clipPath>
					<path clip-path="url(#SVGID_20_)" d="M192.234,394.173c0.391,0,0.624,0.24,0.624,0.624v29.898c0,0.391-0.232,0.623-0.624,0.623
						h-4.053c-0.424,0-0.619-0.232-0.619-0.623v-29.898c0-0.384,0.195-0.624,0.619-0.624H192.234z"/>
				</g>
			</g>
		</g>
		<g>
			<g>
				<g>
					<defs>
						<rect id="SVGID_21_" x="196.748" y="394.173" width="15.574" height="31.146"/>
					</defs>
					<clipPath id="SVGID_22_">
						<use xlink:href="#SVGID_21_"  overflow="visible"/>
					</clipPath>
					<path clip-path="url(#SVGID_22_)" d="M196.75,399.781c0-3.66,1.939-5.608,5.605-5.608h4.359c3.66,0,5.599,1.948,5.599,5.608
						v19.93c0,3.657-1.939,5.607-5.599,5.607h-4.359c-3.666,0-5.605-1.95-5.605-5.607V399.781z M205.741,420.295
						c1.013,0,1.555-0.5,1.555-1.554v-17.982c0-1.016-0.542-1.561-1.555-1.561h-2.263c-1.013,0-1.555,0.545-1.555,1.561v17.982
						c0,1.054,0.542,1.554,1.555,1.554H205.741z"/>
				</g>
			</g>
		</g>
		<g>
			<g>
				<g>
					<defs>
						<rect id="SVGID_23_" x="216.208" y="394.173" width="16.622" height="31.146"/>
					</defs>
					<clipPath id="SVGID_24_">
						<use xlink:href="#SVGID_23_"  overflow="visible"/>
					</clipPath>
					<path clip-path="url(#SVGID_24_)" d="M232.205,394.173c0.389,0,0.625,0.24,0.625,0.624v29.898c0,0.391-0.236,0.623-0.625,0.623
						h-3.854c-0.346,0-0.583-0.156-0.698-0.511l-5.961-16.612h-0.193v16.5c0,0.391-0.192,0.623-0.619,0.623h-4.044
						c-0.398,0-0.624-0.232-0.624-0.623v-29.898c0-0.384,0.225-0.624,0.624-0.624h3.848c0.35,0,0.576,0.164,0.696,0.521
						l5.915,16.533h0.238v-16.43c0-0.384,0.195-0.624,0.625-0.624H232.205L232.205,394.173z"/>
				</g>
			</g>
		</g>
		<g>
			<g>
				<g>
					<defs>
						<rect id="SVGID_25_" x="246.063" y="394.173" width="19.706" height="31.146"/>
					</defs>
					<clipPath id="SVGID_26_">
						<use xlink:href="#SVGID_25_"  overflow="visible"/>
					</clipPath>
					<path clip-path="url(#SVGID_26_)" d="M261.081,425.318c-0.356,0-0.541-0.194-0.628-0.54l-1.083-5.691h-6.931l-1.049,5.691
						c-0.079,0.346-0.271,0.54-0.628,0.54H246.6c-0.43,0-0.628-0.232-0.507-0.665l6.465-29.934c0.067-0.384,0.304-0.548,0.659-0.548
						h5.41c0.346,0,0.59,0.164,0.666,0.548l6.458,29.934c0.076,0.433-0.084,0.665-0.549,0.665H261.081z M255.902,400.992
						l-2.487,13.582h4.974L255.902,400.992z"/>
				</g>
			</g>
		</g>
		<g>
			<g>
				<g>
					<defs>
						<rect id="SVGID_27_" x="269.251" y="394.173" width="15.997" height="31.146"/>
					</defs>
					<clipPath id="SVGID_28_">
						<use xlink:href="#SVGID_27_"  overflow="visible"/>
					</clipPath>
					<path clip-path="url(#SVGID_28_)" d="M285.248,409.286c0,2.604-0.971,4.315-2.842,5.129l2.682,10.197
						c0.118,0.474-0.112,0.706-0.541,0.706H280.5c-0.39,0-0.582-0.194-0.667-0.54l-2.599-9.888h-2.693v9.805
						c0,0.391-0.232,0.623-0.624,0.623h-4.045c-0.387,0-0.618-0.232-0.618-0.623v-29.898c0-0.384,0.231-0.624,0.618-0.624h9.77
						c3.662,0,5.606,1.948,5.606,5.608V409.286z M278.395,409.748c1.016,0,1.56-0.545,1.56-1.553v-7.32
						c0-1.016-0.544-1.555-1.56-1.555h-3.854v10.428H278.395z"/>
				</g>
			</g>
		</g>
		<g>
			<g>
				<g>
					<defs>
						<rect id="SVGID_29_" x="288.36" y="394.173" width="15.571" height="31.146"/>
					</defs>
					<clipPath id="SVGID_30_">
						<use xlink:href="#SVGID_29_"  overflow="visible"/>
					</clipPath>
					<path clip-path="url(#SVGID_30_)" d="M303.303,394.173c0.434,0,0.625,0.24,0.625,0.624v3.901c0,0.391-0.191,0.622-0.625,0.622
						h-4.509v25.375c0,0.429-0.2,0.623-0.625,0.623h-4.046c-0.39,0-0.628-0.194-0.628-0.623V399.32h-4.515
						c-0.392,0-0.619-0.231-0.619-0.622v-3.901c0-0.384,0.229-0.624,0.619-0.624H303.303z"/>
				</g>
			</g>
		</g>
		<g>
			<g>
				<g>
					<defs>
						<rect id="SVGID_31_" x="307.038" y="394.173" width="5.298" height="31.146"/>
					</defs>
					<clipPath id="SVGID_32_">
						<use xlink:href="#SVGID_31_"  overflow="visible"/>
					</clipPath>
					<path clip-path="url(#SVGID_32_)" d="M311.71,394.173c0.39,0,0.624,0.24,0.624,0.624v29.898c0,0.391-0.234,0.623-0.624,0.623
						h-4.052c-0.426,0-0.62-0.232-0.62-0.623v-29.898c0-0.384,0.193-0.624,0.62-0.624H311.71z"/>
				</g>
			</g>
		</g>
		<g>
			<g>
				<g>
					<defs>
						<rect id="SVGID_33_" x="316.219" y="394.173" width="15.572" height="31.146"/>
					</defs>
					<clipPath id="SVGID_34_">
						<use xlink:href="#SVGID_33_"  overflow="visible"/>
					</clipPath>
					<path clip-path="url(#SVGID_34_)" d="M326.183,394.173c3.657,0,5.612,1.948,5.612,5.608v4.129c0,0.392-0.196,0.625-0.629,0.625
						h-4.042c-0.39,0-0.628-0.233-0.628-0.625v-3.035c0-1.016-0.504-1.555-1.558-1.555h-1.865c-0.967,0-1.558,0.539-1.558,1.555
						v5.367l9.266,3.044c0.66,0.271,1.015,0.69,1.015,1.437v8.988c0,3.657-1.955,5.607-5.612,5.607h-4.355
						c-3.621,0-5.604-1.95-5.604-5.607v-4.085c0-0.427,0.237-0.623,0.617-0.623h4.052c0.427,0,0.624,0.196,0.624,0.623v2.999
						c0,1.045,0.591,1.555,1.558,1.555h1.865c1.016,0,1.558-0.51,1.558-1.555v-5.188l-9.221-3.023
						c-0.701-0.232-1.052-0.711-1.052-1.439v-9.192c0-3.66,1.983-5.608,5.604-5.608L326.183,394.173L326.183,394.173z"/>
				</g>
			</g>
		</g>
		<g>
			<g>
				<g>
					<defs>
						<rect id="SVGID_35_" x="334.127" y="394.173" width="15.563" height="31.146"/>
					</defs>
					<clipPath id="SVGID_36_">
						<use xlink:href="#SVGID_35_"  overflow="visible"/>
					</clipPath>
					<path clip-path="url(#SVGID_36_)" d="M349.066,394.173c0.432,0,0.624,0.24,0.624,0.624v3.901c0,0.391-0.192,0.622-0.624,0.622
						h-4.511v25.375c0,0.429-0.191,0.623-0.624,0.623h-4.044c-0.391,0-0.632-0.194-0.632-0.623V399.32h-4.509
						c-0.388,0-0.618-0.231-0.618-0.622v-3.901c0-0.384,0.229-0.624,0.618-0.624H349.066z"/>
				</g>
			</g>
		</g>
		<g>
			<g>
				<g>
					<defs>
						<rect id="SVGID_37_" x="352.805" y="394.173" width="5.295" height="31.146"/>
					</defs>
					<clipPath id="SVGID_38_">
						<use xlink:href="#SVGID_37_"  overflow="visible"/>
					</clipPath>
					<path clip-path="url(#SVGID_38_)" d="M357.477,394.173c0.392,0,0.624,0.24,0.624,0.624v29.898c0,0.391-0.231,0.623-0.624,0.623
						h-4.048c-0.429,0-0.624-0.232-0.624-0.623v-29.898c0-0.384,0.195-0.624,0.624-0.624H357.477z"/>
				</g>
			</g>
		</g>
		<g>
			<g>
				<g>
					<defs>
						<rect id="SVGID_39_" x="361.99" y="394.173" width="15.607" height="31.146"/>
					</defs>
					<clipPath id="SVGID_40_">
						<use xlink:href="#SVGID_39_"  overflow="visible"/>
					</clipPath>
					<path clip-path="url(#SVGID_40_)" d="M377.599,403.989c0,0.388-0.236,0.622-0.624,0.622h-3.896
						c-0.421,0-0.624-0.234-0.624-0.622v-3.114c0-1.016-0.542-1.555-1.551-1.555h-2.026c-1.05,0-1.561,0.539-1.561,1.555v17.75
						c0,1.045,0.552,1.555,1.561,1.555h2.026c1.009,0,1.551-0.51,1.551-1.555v-3.115c0-0.387,0.202-0.619,0.624-0.619h3.896
						c0.388,0,0.624,0.232,0.624,0.619v4.201c0,3.657-1.987,5.607-5.61,5.607h-4.356c-3.656,0-5.646-1.95-5.646-5.607v-19.923
						c0-3.667,1.989-5.615,5.646-5.615h4.356c3.623,0,5.61,1.948,5.61,5.615V403.989z"/>
				</g>
			</g>
		</g>
		<g>
			<g>
				<g>
					<defs>
						<rect id="SVGID_41_" x="380.714" y="394.173" width="19.708" height="31.146"/>
					</defs>
					<clipPath id="SVGID_42_">
						<use xlink:href="#SVGID_41_"  overflow="visible"/>
					</clipPath>
					<path clip-path="url(#SVGID_42_)" d="M395.736,425.318c-0.357,0-0.545-0.194-0.633-0.54l-1.087-5.691h-6.925l-1.052,5.691
						c-0.083,0.346-0.275,0.54-0.625,0.54h-4.167c-0.417,0-0.621-0.232-0.503-0.665l6.468-29.934
						c0.076-0.384,0.305-0.548,0.654-0.548h5.413c0.346,0,0.583,0.164,0.657,0.548l6.471,29.934
						c0.066,0.433-0.092,0.665-0.555,0.665H395.736z M390.553,400.992l-2.484,13.582h4.976L390.553,400.992z"/>
				</g>
			</g>
		</g>
		<g>
			<g>
				<g>
					<defs>
						<rect id="SVGID_43_" x="412.458" y="394.173" width="19.702" height="31.146"/>
					</defs>
					<clipPath id="SVGID_44_">
						<use xlink:href="#SVGID_43_"  overflow="visible"/>
					</clipPath>
					<path clip-path="url(#SVGID_44_)" d="M431.456,394.173c0.583,0,0.854,0.36,0.625,0.896l-7.121,17.324v12.146
						c0,0.511-0.273,0.781-0.782,0.781h-3.738c-0.505,0-0.774-0.271-0.774-0.781v-12.146l-7.131-17.324
						c-0.226-0.534,0.052-0.896,0.632-0.896h3.888c0.475,0,0.746,0.202,0.9,0.624l4.366,11.178l4.354-11.178
						c0.147-0.422,0.426-0.624,0.888-0.624H431.456z"/>
				</g>
			</g>
		</g>
		<g>
			<g>
				<g>
					<defs>
						<rect id="SVGID_45_" x="207.12" y="383.762" width="6.437" height="8.42"/>
					</defs>
					<clipPath id="SVGID_46_">
						<use xlink:href="#SVGID_45_"  overflow="visible"/>
					</clipPath>
					<path clip-path="url(#SVGID_46_)" d="M213.56,384.684l-1.209,6.842c-0.09,0.496-0.401,0.723-0.906,0.633l-3.674-0.651
						c-0.493-0.087-0.717-0.401-0.625-0.901l1.202-6.842"/>
				</g>
			</g>
		</g>
		<g>
			<g>
				<g>
					<defs>
						<rect id="SVGID_47_" x="309.678" y="383.762" width="6.445" height="8.42"/>
					</defs>
					<clipPath id="SVGID_48_">
						<use xlink:href="#SVGID_47_"  overflow="visible"/>
					</clipPath>
					<path clip-path="url(#SVGID_48_)" d="M316.122,384.684l-1.204,6.842c-0.09,0.496-0.402,0.723-0.904,0.633l-3.684-0.651
						c-0.496-0.087-0.718-0.401-0.624-0.901l1.202-6.842"/>
				</g>
			</g>
		</g>
		<g>
			<g>
				<g>
					<defs>
						<rect id="SVGID_49_" x="444.609" y="394.173" width="15.609" height="31.146"/>
					</defs>
					<clipPath id="SVGID_50_">
						<use xlink:href="#SVGID_49_"  overflow="visible"/>
					</clipPath>
					<path clip-path="url(#SVGID_50_)" d="M460.219,403.989c0,0.388-0.233,0.622-0.621,0.622h-3.9c-0.421,0-0.621-0.234-0.621-0.622
						v-3.114c0-1.016-0.538-1.555-1.552-1.555h-2.023c-1.054,0-1.565,0.539-1.565,1.555v17.75c0,1.045,0.558,1.555,1.565,1.555
						h2.023c1.014,0,1.552-0.51,1.552-1.555v-3.115c0-0.387,0.199-0.619,0.621-0.619h3.9c0.388,0,0.621,0.232,0.621,0.619v4.201
						c0,3.657-1.994,5.607-5.604,5.607h-4.363c-3.651,0-5.642-1.95-5.642-5.607v-19.923c0-3.667,1.989-5.615,5.642-5.615h4.363
						c3.61,0,5.604,1.948,5.604,5.615V403.989z"/>
				</g>
			</g>
		</g>
		<g>
			<g>
				<g>
					<defs>
						<rect id="SVGID_51_" x="464.107" y="394.173" width="15.563" height="31.146"/>
					</defs>
					<clipPath id="SVGID_52_">
						<use xlink:href="#SVGID_51_"  overflow="visible"/>
					</clipPath>
					<path clip-path="url(#SVGID_52_)" d="M478.897,394.173c0.429,0,0.773,0.36,0.773,0.782v24.756c0,3.657-1.94,5.607-5.598,5.607
						h-4.361c-3.665,0-5.598-1.95-5.598-5.607v-24.756c0-0.422,0.339-0.782,0.768-0.782h3.731c0.437,0,0.79,0.36,0.79,0.782v23.67
						c0,1.045,0.542,1.555,1.551,1.555h2.026c1.009,0,1.561-0.51,1.561-1.555v-23.67c0-0.422,0.347-0.782,0.775-0.782H478.897z"/>
				</g>
			</g>
		</g>
		<g>
			<g>
				<g>
					<defs>
						<rect id="SVGID_53_" x="483.565" y="394.173" width="15.184" height="31.146"/>
					</defs>
					<clipPath id="SVGID_54_">
						<use xlink:href="#SVGID_53_"  overflow="visible"/>
					</clipPath>
					<path clip-path="url(#SVGID_54_)" d="M488.857,420.18h9.267c0.429,0,0.618,0.239,0.618,0.615v3.9
						c0,0.429-0.189,0.623-0.618,0.623h-13.931c-0.398,0-0.628-0.194-0.628-0.623v-29.898c0-0.384,0.229-0.624,0.628-0.624h4.046
						c0.422,0,0.618,0.24,0.618,0.624V420.18z"/>
				</g>
			</g>
		</g>
		<g>
			<g>
				<g>
					<defs>
						<rect id="SVGID_55_" x="497.967" y="394.173" width="15.563" height="31.146"/>
					</defs>
					<clipPath id="SVGID_56_">
						<use xlink:href="#SVGID_55_"  overflow="visible"/>
					</clipPath>
					<path clip-path="url(#SVGID_56_)" d="M512.906,394.173c0.433,0,0.624,0.24,0.624,0.624v3.901c0,0.391-0.191,0.622-0.624,0.622
						h-4.51v25.375c0,0.429-0.192,0.623-0.629,0.623h-4.044c-0.387,0-0.628-0.194-0.628-0.623V399.32h-4.509
						c-0.389,0-0.621-0.231-0.621-0.622v-3.901c0-0.384,0.232-0.624,0.621-0.624H512.906z"/>
				</g>
			</g>
		</g>
		<g>
			<g>
				<g>
					<defs>
						<rect id="SVGID_57_" x="516.646" y="394.173" width="15.569" height="31.146"/>
					</defs>
					<clipPath id="SVGID_58_">
						<use xlink:href="#SVGID_57_"  overflow="visible"/>
					</clipPath>
					<path clip-path="url(#SVGID_58_)" d="M531.434,394.173c0.43,0,0.775,0.36,0.775,0.782v24.756c0,3.657-1.945,5.607-5.597,5.607
						h-4.363c-3.663,0-5.604-1.95-5.604-5.607v-24.756c0-0.422,0.346-0.782,0.773-0.782h3.738c0.422,0,0.778,0.36,0.778,0.782v23.67
						c0,1.045,0.541,1.555,1.558,1.555h2.02c1.01,0,1.562-0.51,1.562-1.555v-23.67c0-0.422,0.351-0.782,0.779-0.782H531.434z"/>
				</g>
			</g>
		</g>
		<g>
			<g>
				<g>
					<defs>
						<rect id="SVGID_59_" x="536.102" y="394.173" width="15.996" height="31.146"/>
					</defs>
					<clipPath id="SVGID_60_">
						<use xlink:href="#SVGID_59_"  overflow="visible"/>
					</clipPath>
					<path clip-path="url(#SVGID_60_)" d="M552.098,409.286c0,2.604-0.977,4.315-2.836,5.129l2.68,10.197
						c0.115,0.474-0.113,0.706-0.542,0.706h-4.052c-0.38,0-0.583-0.194-0.657-0.54l-2.606-9.888h-2.685v9.805
						c0,0.391-0.237,0.623-0.625,0.623h-4.053c-0.384,0-0.62-0.232-0.62-0.623v-29.898c0-0.384,0.236-0.624,0.62-0.624h9.772
						c3.663,0,5.604,1.948,5.604,5.608V409.286L552.098,409.286z M545.248,409.748c1.021,0,1.562-0.545,1.562-1.553v-7.32
						c0-1.016-0.541-1.555-1.562-1.555h-3.85v10.428H545.248z"/>
				</g>
			</g>
		</g>
		<g>
			<g>
				<g>
					<defs>
						<rect id="SVGID_61_" x="67.624" y="464.986" width="29.279" height="58.406"/>
					</defs>
					<clipPath id="SVGID_62_">
						<use xlink:href="#SVGID_61_"  overflow="visible"/>
					</clipPath>
					<path clip-path="url(#SVGID_62_)" d="M96.903,483.386c0,0.724-0.432,1.166-1.162,1.166h-7.308
						c-0.797,0-1.167-0.442-1.167-1.166v-5.845c0-1.903-1.022-2.923-2.92-2.923h-3.801c-1.969,0-2.919,1.02-2.919,2.923v33.291
						c0,1.979,1.029,2.926,2.919,2.926h3.801c1.898,0,2.92-0.947,2.92-2.926v-5.845c0-0.724,0.369-1.163,1.167-1.163h7.308
						c0.73,0,1.162,0.439,1.162,1.163v7.895c0,6.856-3.721,10.512-10.52,10.512H78.22c-6.873,0-10.596-3.654-10.596-10.512v-37.383
						c0-6.864,3.724-10.513,10.596-10.513h8.163c6.799,0,10.52,3.647,10.52,10.513V483.386z"/>
				</g>
			</g>
		</g>
		<g>
			<g>
				<g>
					<defs>
						<rect id="SVGID_63_" x="102.753" y="464.986" width="36.969" height="58.406"/>
					</defs>
					<clipPath id="SVGID_64_">
						<use xlink:href="#SVGID_63_"  overflow="visible"/>
					</clipPath>
					<path clip-path="url(#SVGID_64_)" d="M130.926,523.394c-0.662,0-1.021-0.364-1.167-1.019l-2.043-10.659h-13.009l-1.963,10.659
						c-0.15,0.653-0.51,1.019-1.162,1.019h-7.812c-0.809,0-1.177-0.438-0.956-1.24l12.124-56.151
						c0.147-0.726,0.585-1.015,1.238-1.015h10.146c0.664,0,1.094,0.289,1.239,1.015l12.125,56.151
						c0.146,0.803-0.145,1.24-1.025,1.24H130.926z M121.214,477.759l-4.669,25.49h9.341L121.214,477.759z"/>
				</g>
			</g>
		</g>
		<g>
			<g>
				<g>
					<defs>
						<rect id="SVGID_65_" x="144.789" y="464.986" width="29.28" height="58.406"/>
					</defs>
					<clipPath id="SVGID_66_">
						<use xlink:href="#SVGID_65_"  overflow="visible"/>
					</clipPath>
					<path clip-path="url(#SVGID_66_)" d="M174.065,483.386c0,0.724-0.431,1.166-1.167,1.166h-7.301
						c-0.799,0-1.167-0.442-1.167-1.166v-5.845c0-1.903-1.022-2.923-2.919-2.923h-3.801c-1.969,0-2.918,1.02-2.918,2.923v33.291
						c0,1.979,1.027,2.926,2.918,2.926h3.801c1.897,0,2.919-0.947,2.919-2.926v-5.845c0-0.724,0.368-1.163,1.167-1.163h7.301
						c0.737,0,1.167,0.439,1.167,1.163v7.895c0,6.856-3.72,10.512-10.512,10.512h-8.171c-6.87,0-10.588-3.654-10.588-10.512v-37.383
						c0-6.864,3.718-10.513,10.588-10.513h8.171c6.792,0,10.512,3.647,10.512,10.513V483.386z"/>
				</g>
			</g>
		</g>
		<g>
			<g>
				<g>
					<defs>
						<rect id="SVGID_67_" x="181.366" y="464.986" width="9.928" height="58.406"/>
					</defs>
					<clipPath id="SVGID_68_">
						<use xlink:href="#SVGID_67_"  overflow="visible"/>
					</clipPath>
					<path clip-path="url(#SVGID_68_)" d="M190.124,464.986c0.729,0,1.167,0.437,1.167,1.166v56.067
						c0,0.734-0.439,1.173-1.167,1.173h-7.593c-0.804,0-1.168-0.438-1.168-1.173v-56.067c0-0.729,0.365-1.166,1.168-1.166H190.124z"
						/>
				</g>
			</g>
		</g>
		<g>
			<g>
				<g>
					<defs>
						<rect id="SVGID_69_" x="198.591" y="464.986" width="29.204" height="64.832"/>
					</defs>
					<clipPath id="SVGID_70_">
						<use xlink:href="#SVGID_69_"  overflow="visible"/>
					</clipPath>
					<path clip-path="url(#SVGID_70_)" d="M227.794,512.882c0,4.596-1.604,7.737-4.749,9.339l2.926,6.28
						c0.363,0.811-0.22,1.317-1.021,1.317h-7.596c-0.73,0-0.955-0.44-1.239-1.02l-2.482-5.405h-4.531
						c-6.858,0-10.512-3.648-10.512-10.513v-37.383c0-6.864,3.654-10.513,10.512-10.513h8.181c6.862,0,10.511,3.647,10.511,10.513
						V512.882L227.794,512.882z M208.52,510.832c0,1.979,1.022,2.926,2.919,2.926h3.801c1.897,0,2.919-0.947,2.919-2.926v-33.291
						c0-1.893-1.022-2.923-2.919-2.923h-3.801c-1.897,0-2.919,1.03-2.919,2.923V510.832z"/>
				</g>
			</g>
		</g>
		<g>
			<g>
				<g>
					<defs>
						<rect id="SVGID_71_" x="235.091" y="464.986" width="29.212" height="58.406"/>
					</defs>
					<clipPath id="SVGID_72_">
						<use xlink:href="#SVGID_71_"  overflow="visible"/>
					</clipPath>
					<path clip-path="url(#SVGID_72_)" d="M262.84,464.986c0.801,0,1.459,0.653,1.459,1.459v46.437
						c0,6.863-3.648,10.512-10.518,10.512h-8.173c-6.861,0-10.521-3.647-10.521-10.512v-46.437c0-0.806,0.663-1.459,1.469-1.459
						h7.008c0.799,0,1.459,0.653,1.459,1.459v44.387c0,1.979,1.021,2.926,2.919,2.926h3.796c1.901,0,2.928-0.946,2.928-2.926
						v-44.387c0-0.806,0.651-1.459,1.459-1.459H262.84L262.84,464.986z"/>
				</g>
			</g>
		</g>
		<g>
			<g>
				<g>
					<defs>
						<rect id="SVGID_73_" x="271.592" y="464.986" width="29.134" height="58.406"/>
					</defs>
					<clipPath id="SVGID_74_">
						<use xlink:href="#SVGID_73_"  overflow="visible"/>
					</clipPath>
					<path clip-path="url(#SVGID_74_)" d="M300.726,473.456c0,0.719-0.294,1.241-1.169,1.241h-18.245v14.604h13.936
						c0.729,0,1.174,0.434,1.174,1.238v7.225c0,0.798-0.445,1.241-1.174,1.241h-13.936v14.752h18.245
						c0.875,0,1.169,0.36,1.169,1.166v7.297c0,0.734-0.294,1.173-1.169,1.173h-26.874c-0.652,0-1.083-0.438-1.083-1.173v-56.067
						c0-0.729,0.43-1.166,1.083-1.166h26.874c0.875,0,1.169,0.437,1.169,1.166V473.456z"/>
				</g>
			</g>
		</g>
		<g>
			<g>
				<g>
					<defs>
						<rect id="SVGID_75_" x="324.814" y="464.986" width="29.207" height="58.406"/>
					</defs>
					<clipPath id="SVGID_76_">
						<use xlink:href="#SVGID_75_"  overflow="visible"/>
					</clipPath>
					<path clip-path="url(#SVGID_76_)" d="M352.85,464.986c0.807,0,1.166,0.437,1.166,1.166v7.304c0,0.723-0.359,1.162-1.166,1.162
						h-8.47v47.603c0,0.809-0.365,1.173-1.174,1.173h-7.589c-0.723,0-1.167-0.364-1.167-1.173v-47.603h-8.469
						c-0.737,0-1.175-0.439-1.175-1.162v-7.304c0-0.729,0.438-1.166,1.175-1.166H352.85z"/>
				</g>
			</g>
		</g>
		<g>
			<g>
				<g>
					<defs>
						<rect id="SVGID_77_" x="359.854" y="464.986" width="29.202" height="58.406"/>
					</defs>
					<clipPath id="SVGID_78_">
						<use xlink:href="#SVGID_77_"  overflow="visible"/>
					</clipPath>
					<path clip-path="url(#SVGID_78_)" d="M387.596,464.986c0.806,0,1.459,0.653,1.459,1.459v46.437
						c0,6.863-3.641,10.512-10.509,10.512h-8.184c-6.861,0-10.509-3.647-10.509-10.512v-46.437c0-0.806,0.661-1.459,1.459-1.459
						h7.01c0.806,0,1.457,0.653,1.457,1.459v44.387c0,1.979,1.025,2.926,2.922,2.926h3.8c1.899,0,2.918-0.946,2.918-2.926v-44.387
						c0-0.806,0.654-1.459,1.459-1.459H387.596L387.596,464.986z"/>
				</g>
			</g>
		</g>
		<g>
			<g>
				<g>
					<defs>
						<rect id="SVGID_79_" x="396.357" y="464.986" width="31.173" height="58.406"/>
					</defs>
					<clipPath id="SVGID_80_">
						<use xlink:href="#SVGID_79_"  overflow="visible"/>
					</clipPath>
					<path clip-path="url(#SVGID_80_)" d="M426.36,464.986c0.729,0,1.17,0.437,1.17,1.166v56.067c0,0.734-0.44,1.173-1.17,1.173
						h-7.227c-0.649,0-1.095-0.297-1.313-0.946l-11.171-31.178h-0.369v30.951c0,0.734-0.36,1.173-1.173,1.173h-7.586
						c-0.729,0-1.166-0.438-1.166-1.173v-56.067c0-0.729,0.436-1.166,1.166-1.166h7.229c0.658,0,1.087,0.289,1.313,0.95
						l11.096,31.025h0.437v-30.811c0-0.729,0.368-1.166,1.17-1.166L426.36,464.986L426.36,464.986z"/>
				</g>
			</g>
		</g>
		<g>
			<g>
				<g>
					<defs>
						<rect id="SVGID_81_" x="434.823" y="464.986" width="29.209" height="58.406"/>
					</defs>
					<clipPath id="SVGID_82_">
						<use xlink:href="#SVGID_81_"  overflow="visible"/>
					</clipPath>
					<path clip-path="url(#SVGID_82_)" d="M434.823,466.152c0-0.729,0.372-1.166,1.17-1.166h17.522
						c6.861,0,10.518,3.727,10.518,10.579v37.315c0,6.863-3.656,10.513-10.518,10.513h-17.522c-0.798,0-1.17-0.365-1.17-1.174
						V466.152z M451.473,513.758c1.9,0,2.919-0.947,2.919-2.926v-33.216c0-1.979-1.019-2.998-2.919-2.998h-6.712v39.14H451.473z"/>
				</g>
			</g>
		</g>
		<g>
			<g>
				<g>
					<defs>
						<rect id="SVGID_83_" x="468.419" y="464.986" width="36.964" height="58.406"/>
					</defs>
					<clipPath id="SVGID_84_">
						<use xlink:href="#SVGID_83_"  overflow="visible"/>
					</clipPath>
					<path clip-path="url(#SVGID_84_)" d="M496.591,523.394c-0.656,0-1.022-0.364-1.171-1.019l-2.042-10.659h-12.999l-1.967,10.659
						c-0.146,0.653-0.516,1.019-1.17,1.019h-7.81c-0.809,0-1.173-0.438-0.954-1.24l12.122-56.151
						c0.146-0.726,0.582-1.015,1.244-1.015h10.141c0.663,0,1.099,0.289,1.25,1.015l12.118,56.151c0.143,0.803-0.145,1.24-1.02,1.24
						H496.591z M486.878,477.759l-4.671,25.49h9.343L486.878,477.759z"/>
				</g>
			</g>
		</g>
		<g>
			<g>
				<g>
					<defs>
						<rect id="SVGID_85_" x="510.454" y="464.986" width="41.614" height="58.406"/>
					</defs>
					<clipPath id="SVGID_86_">
						<use xlink:href="#SVGID_85_"  overflow="visible"/>
					</clipPath>
					<path clip-path="url(#SVGID_86_)" d="M550.612,464.986c0.956,0,1.459,0.508,1.459,1.459v55.485
						c0,0.955-0.503,1.462-1.459,1.462h-6.788c-0.948,0-1.46-0.507-1.46-1.462v-32.858h-0.512l-7.227,33.006
						c-0.225,0.877-0.729,1.314-1.604,1.314h-3.58c-0.877,0-1.394-0.438-1.606-1.314l-7.229-33.006h-0.516v32.858
						c0,0.955-0.504,1.462-1.452,1.462h-6.721c-0.955,0-1.463-0.507-1.463-1.462v-55.485c0-0.951,0.508-1.459,1.463-1.459h9.633
						c0.879,0,1.399,0.437,1.608,1.309l8.103,36.363l8.105-36.363c0.222-0.872,0.729-1.309,1.604-1.309H550.612L550.612,464.986z"/>
				</g>
			</g>
		</g>
	</g>
	<g>
		<g>
			<g>
				<defs>
					<rect id="SVGID_87_" x="557.191" y="464.986" width="36.97" height="58.406"/>
				</defs>
				<clipPath id="SVGID_88_">
					<use xlink:href="#SVGID_87_"  overflow="visible"/>
				</clipPath>
				<path clip-path="url(#SVGID_88_)" d="M585.362,523.394c-0.661,0-1.023-0.364-1.165-1.019l-2.047-10.659h-12.998l-1.972,10.659
					c-0.145,0.653-0.512,1.019-1.158,1.019h-7.815c-0.81,0-1.182-0.438-0.947-1.24l12.118-56.151
					c0.144-0.726,0.578-1.015,1.233-1.015h10.146c0.662,0,1.1,0.289,1.249,1.015l12.115,56.151c0.146,0.803-0.146,1.24-1.027,1.24
					H585.362z M575.651,477.759l-4.673,25.49h9.345L575.651,477.759z"/>
			</g>
		</g>
	</g>
</g>
</svg>
