<svg xmlns="http://www.w3.org/2000/svg" width="44.921" height="30.926" viewBox="0 0 44.921 30.926"><path fill="#FFF" d="M32.313 29.57h-9.965c-.673 0-1.21-.54-1.21-1.21 0-.665.537-1.21 1.21-1.21h9.965c4.827 0 8.756-3.931 8.756-8.764 0-4.826-3.929-8.754-8.756-8.754H5.33l2.519 2.519c.233.24.351.544.351.858 0 .306-.117.617-.351.851a1.211 1.211 0 0 1-1.71 0L1.554 9.28v-.006h-.007v-.007h-.006a1.254 1.254 0 0 1-.302-.54c-.01-.045-.024-.099-.031-.146v-.005a1.254 1.254 0 0 1 .353-1.012l4.578-4.581a1.21 1.21 0 0 1 1.71 1.708L5.33 7.22h26.983c6.163 0 11.176 5.012 11.176 11.174 0 6.163-5.012 11.176-11.176 11.176zm0 0"/></svg>