<svg xmlns="http://www.w3.org/2000/svg" width="20.542" height="20.429" viewBox="0 0 20.542 20.429"><path fill="#FFF" d="M14.317 10.625h-2.646v9.442H7.746v-9.442H5.881V7.291h1.865V5.132c0-1.544.733-3.961 3.959-3.961l2.907.013v3.238h-2.109c-.347 0-.832.171-.832.909v1.962h2.99l-.344 3.332z"/><path fill-rule="evenodd" clip-rule="evenodd" fill="#FFF" d="M129.509 13.475a2.855 2.855 0 0 0-2.854-2.856h-13.387a2.853 2.853 0 0 0-2.854 2.856v7.655a2.851 2.851 0 0 0 2.854 2.855h13.387a2.854 2.854 0 0 0 2.854-2.855v-7.655zm-11.455 7.057V13.34l5.451 3.596-5.451 3.596z"/><path fill="#FFF" d="M94.118 11.916a6.57 6.57 0 0 1-1.881.517 3.3 3.3 0 0 0 1.441-1.814 6.548 6.548 0 0 1-2.083.794 3.274 3.274 0 0 0-2.394-1.034 3.277 3.277 0 0 0-3.191 4.024 9.31 9.31 0 0 1-6.755-3.424 3.275 3.275 0 0 0 1.014 4.376 3.263 3.263 0 0 1-1.483-.411l-.001.042a3.279 3.279 0 0 0 2.629 3.213 3.308 3.308 0 0 1-.862.116c-.213 0-.418-.021-.617-.06a3.277 3.277 0 0 0 3.061 2.275 6.567 6.567 0 0 1-4.85 1.357 9.255 9.255 0 0 0 5.023 1.473c6.027 0 9.325-4.994 9.325-9.325 0-.142-.002-.283-.01-.425a6.565 6.565 0 0 0 1.634-1.694"/></svg>