<svg xmlns="http://www.w3.org/2000/svg" width="91.648" height="188.939" viewBox="0 0 91.648 188.939"><g fill="#FFF"><path d="M4.765 136.754H89.45v49.307H4.765zm17.219-3.695l-.165.242h13.882l.164-.242 8.759-12.998H30.742l-8.758 12.998zm27.47 0l-.163.242h13.881l.164-.242 8.76-12.998H58.213l-8.759 12.998zm-44.689.242h3.464l.163-.242 8.76-12.998H4.765v13.24zm71.996 0H89.45v-13.24h-3.765l-8.76 12.998-.164.242zm-58.734-30.279l11.912 10.631 13.453-3.422-11.914-10.633-13.451 3.424zm26.622-6.773l11.914 10.631 13.45-3.424-11.912-10.632-13.452 3.425zm26.622-6.777l11.913 10.632 3.649-.93-3.266-12.832-12.296 3.13zm0 0"/><path d="M4.855 106.374l-3.357.855 3.268 12.832 12.005-3.057-11.916-10.63zm13.32-61.777c.129.461.383.783.764.966.383.184.914.314 1.597.39l-.962-3.48c-1.176.54-1.641 1.247-1.399 2.124zm4.561 4.642l1.111 4.01c1.088-.549 1.489-1.339 1.205-2.368-.145-.522-.412-.902-.801-1.144-.388-.238-.893-.405-1.515-.498z"/><path d="M16.758 31.164C7.298 33.783 1.752 43.575 4.371 53.035c2.619 9.46 12.411 15.006 21.871 12.387 9.461-2.619 15.006-12.41 12.387-21.87S26.218 28.546 16.758 31.164zm10.767 22.283c-.555 1.047-1.471 1.862-2.747 2.448l.197.714c.042.153-.001.311-.13.47a.94.94 0 0 1-.494.323.921.921 0 0 1-.6-.021c-.188-.071-.301-.186-.344-.339l-.178-.646c-1.346.34-2.58.343-3.707.009s-1.783-.837-1.971-1.514c-.099-.353-.066-.746.096-1.181.16-.433.41-.697.748-.79.229-.063.539-.012.925.153.386.166.856.33 1.411.489.559.16 1.137.191 1.738.091l-1.27-4.586a57.42 57.42 0 0 1-1.442-.146 9.758 9.758 0 0 1-1.317-.281c-.547-.146-.982-.332-1.309-.556s-.65-.539-.971-.948a4.104 4.104 0 0 1-.713-1.463c-.38-1.368-.248-2.534.395-3.497.643-.964 1.587-1.709 2.831-2.235l-.179-.646c-.043-.153-.004-.309.118-.468a.933.933 0 0 1 .505-.325.94.94 0 0 1 .591.023c.192.07.31.182.353.336l.166.6a9.26 9.26 0 0 1 2.831-.263c.909.062 1.448.393 1.616.991.092.339.081.718-.035 1.139-.114.421-.363.684-.75.79-.152.043-.534.008-1.144-.104a4.858 4.858 0 0 0-1.811.005l1.122 4.056c.695.056 1.278.135 1.754.234a9.294 9.294 0 0 1 1.594.515c.589.241 1.08.615 1.477 1.116.395.503.694 1.123.898 1.861.385 1.385.299 2.599-.254 3.646zm30.539 6.281c-.102.375-.057.706.135.992.193.285.51.596.957.931l.76-2.832c-1.043-.107-1.661.197-1.852.909zm1.278 5.127l-.878 3.263c.987.064 1.594-.323 1.82-1.16.114-.425.083-.802-.089-1.13-.174-.327-.459-.651-.853-.973z"/><path d="M62.609 49.748c-7.697-2.068-15.612 2.496-17.679 10.193-2.067 7.696 2.495 15.612 10.192 17.679 7.695 2.067 15.612-2.496 17.68-10.192 2.068-7.698-2.496-15.613-10.193-17.68zm-1.654 20.024c-.818.504-1.795.697-2.93.58l-.156.581c-.033.125-.129.217-.285.275a.762.762 0 0 1-.479.022.749.749 0 0 1-.41-.261c-.104-.127-.133-.254-.102-.379l.141-.525c-1.08-.317-1.945-.824-2.596-1.522-.65-.697-.902-1.32-.754-1.871.076-.287.261-.55.554-.786.29-.236.573-.318.848-.244.188.05.382.213.584.488.2.276.462.584.786.925.324.342.717.602 1.178.779l1.004-3.73c-.417-.3-.732-.532-.949-.697a8.15 8.15 0 0 1-.807-.74c-.322-.328-.551-.637-.688-.928a3.74 3.74 0 0 1-.287-1.063 3.367 3.367 0 0 1 .104-1.319c.299-1.113.872-1.873 1.72-2.283.846-.409 1.813-.542 2.901-.396l.141-.525c.033-.125.125-.217.276-.277a.747.747 0 0 1 .487-.02c.162.043.296.13.403.259.104.129.142.256.106.381l-.131.487c.783.237 1.479.564 2.09.983s.852.872.719 1.359c-.072.275-.236.537-.49.782-.256.247-.537.329-.852.244-.123-.033-.377-.215-.757-.545s-.803-.577-1.269-.743l-.886 3.301c.462.325.838.62 1.13.887.29.266.59.604.902 1.017.313.412.501.875.572 1.389.068.515.023 1.073-.139 1.672-.3 1.126-.86 1.94-1.679 2.443zM47.57 11.66c-.1.375-.056.706.136.992s.51.596.957.931l.76-2.832c-1.045-.106-1.663.197-1.853.909zm1.277 5.128l-.877 3.263c.988.064 1.596-.322 1.819-1.159.115-.425.085-.802-.087-1.131-.174-.327-.459-.652-.855-.973z"/><path d="M52.115 1.681C44.418-.387 36.504 4.176 34.437 11.874c-2.068 7.696 2.494 15.611 10.191 17.679s15.613-2.496 17.68-10.192c2.067-7.698-2.496-15.613-10.193-17.68zM50.46 21.705c-.818.504-1.795.697-2.93.58l-.156.582c-.033.124-.129.216-.284.275a.769.769 0 0 1-.479.022.746.746 0 0 1-.41-.262c-.103-.127-.134-.254-.102-.379l.142-.525c-1.08-.317-1.946-.824-2.597-1.521-.65-.698-.902-1.321-.754-1.872.077-.287.262-.55.553-.786s.574-.318.85-.244c.188.05.382.213.582.488.201.275.463.584.788.925.323.342.716.601 1.178.779l1.003-3.731c-.416-.3-.732-.531-.949-.697a8.232 8.232 0 0 1-.807-.739c-.322-.328-.551-.637-.688-.928a3.74 3.74 0 0 1-.287-1.063 3.36 3.36 0 0 1 .104-1.318c.299-1.113.873-1.874 1.721-2.283.846-.409 1.813-.542 2.9-.396l.141-.525c.035-.124.126-.218.275-.277a.756.756 0 0 1 .488-.02c.162.043.296.13.404.259.104.129.141.256.105.381l-.13.487c.782.237 1.478.564 2.089.983s.851.872.72 1.359c-.073.275-.237.537-.491.782-.254.248-.537.329-.85.244-.125-.033-.378-.215-.758-.544a3.942 3.942 0 0 0-1.27-.744l-.885 3.301c.461.325.837.62 1.129.887.291.266.591.604.902 1.017.312.412.502.875.572 1.39.069.515.023 1.072-.139 1.672-.299 1.124-.859 1.937-1.68 2.441z"/></g></svg>