<?xml version="1.0" encoding="utf-8"?>
<!-- Generator: Adobe Illustrator 16.0.0, SVG Export Plug-In . SVG Version: 6.00 Build 0)  -->
<!DOCTYPE svg PUBLIC "-//W3C//DTD SVG 1.1//EN" "http://www.w3.org/Graphics/SVG/1.1/DTD/svg11.dtd">
<svg version="1.1" id="Capa_1" xmlns="http://www.w3.org/2000/svg" xmlns:xlink="http://www.w3.org/1999/xlink" x="0px" y="0px"
	 width="24.605px" height="36.117px" viewBox="0 0 24.605 36.117" enable-background="new 0 0 24.605 36.117" xml:space="preserve">
<g>
	<path fill="#238641" d="M23.346,18.427c0,0.861-0.295,1.479-0.887,1.853L3.824,34.759c-0.182,0.216-0.411,0.324-0.686,0.324
		c-0.41,0-0.797-0.193-1.164-0.566c-0.362-0.373-0.552-0.831-0.552-1.367c0-0.59,0.229-1.074,0.689-1.448l16.992-13.268L2.112,5.24
		C1.648,4.863,1.423,4.379,1.423,3.79c0-0.537,0.189-0.988,0.552-1.368c0.367-0.376,0.754-0.563,1.164-0.563
		c0.274,0,0.504,0.108,0.686,0.325l18.635,14.479C23.047,17.035,23.346,17.628,23.346,18.427z"/>
</g>
</svg>
