<?xml version="1.0" encoding="utf-8"?>
<!-- Generator: Adobe Illustrator 16.0.0, SVG Export Plug-In . SVG Version: 6.00 Build 0)  -->
<!DOCTYPE svg PUBLIC "-//W3C//DTD SVG 1.1//EN" "http://www.w3.org/Graphics/SVG/1.1/DTD/svg11.dtd">
<svg version="1.1" id="Capa_1" xmlns="http://www.w3.org/2000/svg" xmlns:xlink="http://www.w3.org/1999/xlink" x="0px" y="0px"
	 width="44.921px" height="30.926px" viewBox="0 0 44.921 30.926" enable-background="new 0 0 44.921 30.926" xml:space="preserve">
<path fill="#FFFFFF" d="M32.313,29.57h-9.965c-0.673,0-1.21-0.54-1.21-1.21c0-0.665,0.537-1.21,1.21-1.21h9.965
	c4.827,0,8.756-3.931,8.756-8.764c0-4.826-3.929-8.754-8.756-8.754H5.33l2.519,2.519c0.233,0.24,0.351,0.544,0.351,0.858
	c0,0.306-0.117,0.617-0.351,0.851c-0.472,0.471-1.234,0.471-1.71,0L1.554,9.28c0,0,0,0,0-0.006c0,0,0,0-0.007,0l0,0V9.267
	c-0.006,0-0.006,0-0.006,0c-0.148-0.153-0.245-0.338-0.302-0.54c-0.01-0.045-0.024-0.099-0.031-0.146V8.576
	c-0.021-0.201,0-0.414,0.088-0.613C1.36,7.81,1.449,7.678,1.561,7.564l4.578-4.581c0.476-0.472,1.238-0.472,1.71,0
	c0.475,0.474,0.475,1.237,0,1.708L5.33,7.22h26.983c6.163,0,11.176,5.012,11.176,11.174C43.489,24.557,38.477,29.57,32.313,29.57
	L32.313,29.57z M32.313,29.57"/>
</svg>
