<?xml version="1.0" encoding="utf-8"?>
<!-- Generator: Adobe Illustrator 16.0.0, SVG Export Plug-In . SVG Version: 6.00 Build 0)  -->
<!DOCTYPE svg PUBLIC "-//W3C//DTD SVG 1.1//EN" "http://www.w3.org/Graphics/SVG/1.1/DTD/svg11.dtd">
<svg version="1.1" id="Capa_1" xmlns="http://www.w3.org/2000/svg" xmlns:xlink="http://www.w3.org/1999/xlink" x="0px" y="0px"
	 width="57.788px" height="51.467px" viewBox="0 0 57.788 51.467" enable-background="new 0 0 57.788 51.467" xml:space="preserve">
<g>
	<path fill="#FFFFFF" d="M19.511,42.257h-3.294c-0.829,0-1.498,0.67-1.498,1.498s0.669,1.498,1.498,1.498h3.294
		c0.827,0,1.498-0.67,1.498-1.498S20.338,42.257,19.511,42.257L19.511,42.257z M19.511,42.257"/>
	<path fill="#FFFFFF" d="M53.347,23.577H33.888V6.111c0-2.478-2.016-4.493-4.493-4.493H6.333c-2.478,0-4.494,2.016-4.494,4.493
		v39.589c0,2.477,2.017,4.492,4.494,4.492h21.559c0.099,0.021,0.199,0.031,0.304,0.031h25.152c1.927,0,3.495-1.568,3.495-3.495
		V27.071C56.842,25.145,55.274,23.577,53.347,23.577L53.347,23.577z M53.141,26.572L40.638,37.08c-0.286,0.24-0.846,0.24-1.132,0
		l-5.618-4.723v-5.785H53.141z M6.333,4.614h23.063c0.827,0,1.498,0.672,1.498,1.498V37.25H4.834V6.111
		C4.834,5.286,5.506,4.614,6.333,4.614L6.333,4.614z M4.834,45.701v-5.456h26.059v5.456c0,0.824-0.671,1.496-1.498,1.496H6.333
		C5.506,47.197,4.834,46.525,4.834,45.701L4.834,45.701z M53.347,47.228H33.621c0.173-0.477,0.268-0.992,0.268-1.527v-9.432
		l3.691,3.105c0.699,0.586,1.595,0.879,2.492,0.879s1.795-0.293,2.493-0.879l11.282-9.483v16.838
		C53.847,47,53.619,47.228,53.347,47.228L53.347,47.228z M53.347,47.228"/>
</g>
</svg>
