<?xml version="1.0" encoding="utf-8"?>
<!-- Generator: Adobe Illustrator 16.0.0, SVG Export Plug-In . SVG Version: 6.00 Build 0)  -->
<!DOCTYPE svg PUBLIC "-//W3C//DTD SVG 1.1//EN" "http://www.w3.org/Graphics/SVG/1.1/DTD/svg11.dtd">
<svg version="1.1" id="Capa_1" xmlns="http://www.w3.org/2000/svg" xmlns:xlink="http://www.w3.org/1999/xlink" x="0px" y="0px"
	 width="91.648px" height="188.939px" viewBox="0 0 91.648 188.939" enable-background="new 0 0 91.648 188.939"
	 xml:space="preserve">
<g>
	<g>
		<rect x="4.765" y="136.754" fill="#FFFFFF" width="84.685" height="49.307"/>
		<path fill="#FFFFFF" d="M21.984,133.059l-0.165,0.242h13.882l0.164-0.242l8.759-12.998H30.742L21.984,133.059z M21.984,133.059"/>
		<path fill="#FFFFFF" d="M49.454,133.059l-0.163,0.242h13.881l0.164-0.242l8.76-12.998H58.213L49.454,133.059z M49.454,133.059"/>
		<path fill="#FFFFFF" d="M4.765,133.301h3.464l0.163-0.242l8.76-12.998H4.765v12.998V133.301z M4.765,133.301"/>
		<path fill="#FFFFFF" d="M76.761,133.301H89.45v-13.24h-3.765l-8.76,12.998L76.761,133.301z M76.761,133.301"/>
		<path fill="#FFFFFF" d="M18.027,103.022l11.912,10.631l13.453-3.422L31.478,99.598L18.027,103.022z M18.027,103.022"/>
		<path fill="#FFFFFF" d="M44.649,96.249l11.914,10.631l13.45-3.424L58.101,92.824L44.649,96.249z M44.649,96.249"/>
		<path fill="#FFFFFF" d="M71.271,89.472l11.913,10.632l3.649-0.93l-3.266-12.832L71.271,89.472z M71.271,89.472"/>
		<path fill="#FFFFFF" d="M4.855,106.374l-3.357,0.855l3.268,12.832l12.005-3.057L4.855,106.374z M4.855,106.374"/>
	</g>
	<g>
		<path fill="#FFFFFF" d="M18.175,44.597c0.129,0.461,0.383,0.783,0.764,0.966c0.383,0.184,0.914,0.314,1.597,0.39l-0.962-3.48
			C18.398,43.013,17.933,43.72,18.175,44.597z"/>
		<path fill="#FFFFFF" d="M22.736,49.239l1.111,4.01c1.088-0.549,1.489-1.339,1.205-2.368c-0.145-0.522-0.412-0.902-0.801-1.144
			C23.863,49.499,23.358,49.332,22.736,49.239z"/>
		<path fill="#FFFFFF" d="M16.758,31.164C7.298,33.783,1.752,43.575,4.371,53.035c2.619,9.46,12.411,15.006,21.871,12.387
			c9.461-2.619,15.006-12.41,12.387-21.87S26.218,28.546,16.758,31.164z M27.525,53.447c-0.555,1.047-1.471,1.862-2.747,2.448
			l0.197,0.714c0.042,0.153-0.001,0.311-0.13,0.47c-0.129,0.16-0.294,0.268-0.494,0.323c-0.215,0.059-0.415,0.053-0.6-0.021
			c-0.188-0.071-0.301-0.186-0.344-0.339l-0.178-0.646c-1.346,0.34-2.58,0.343-3.707,0.009s-1.783-0.837-1.971-1.514
			c-0.099-0.353-0.066-0.746,0.096-1.181c0.16-0.433,0.41-0.697,0.748-0.79c0.229-0.063,0.539-0.012,0.925,0.153
			c0.386,0.166,0.856,0.33,1.411,0.489c0.559,0.16,1.137,0.191,1.738,0.091l-1.27-4.586c-0.629-0.058-1.109-0.106-1.442-0.146
			c-0.335-0.04-0.773-0.134-1.317-0.281c-0.547-0.146-0.982-0.332-1.309-0.556s-0.65-0.539-0.971-0.948
			c-0.319-0.407-0.557-0.895-0.713-1.463c-0.38-1.368-0.248-2.534,0.395-3.497c0.643-0.964,1.587-1.709,2.831-2.235l-0.179-0.646
			c-0.043-0.153-0.004-0.309,0.118-0.468c0.123-0.157,0.29-0.266,0.505-0.325c0.201-0.056,0.397-0.048,0.591,0.023
			c0.192,0.07,0.31,0.182,0.353,0.336l0.166,0.6c0.977-0.238,1.921-0.325,2.831-0.263c0.909,0.062,1.448,0.393,1.616,0.991
			c0.092,0.339,0.081,0.718-0.035,1.139c-0.114,0.421-0.363,0.684-0.75,0.79c-0.152,0.043-0.534,0.008-1.144-0.104
			c-0.611-0.112-1.214-0.11-1.811,0.005l1.122,4.056c0.695,0.056,1.278,0.135,1.754,0.234c0.475,0.101,1.006,0.272,1.594,0.515
			c0.589,0.241,1.08,0.615,1.477,1.116c0.395,0.503,0.694,1.123,0.898,1.861C28.164,51.186,28.078,52.4,27.525,53.447z"/>
	</g>
	<g>
		<path fill="#FFFFFF" d="M58.064,59.728c-0.102,0.375-0.057,0.706,0.135,0.992c0.193,0.285,0.51,0.596,0.957,0.931l0.76-2.832
			C58.873,58.712,58.255,59.016,58.064,59.728z"/>
		<path fill="#FFFFFF" d="M59.342,64.855l-0.878,3.263c0.987,0.064,1.594-0.323,1.82-1.16c0.114-0.425,0.083-0.802-0.089-1.13
			C60.021,65.501,59.736,65.177,59.342,64.855z"/>
		<path fill="#FFFFFF" d="M62.609,49.748c-7.697-2.068-15.612,2.496-17.679,10.193c-2.067,7.696,2.495,15.612,10.192,17.679
			c7.695,2.067,15.612-2.496,17.68-10.192C74.87,59.73,70.306,51.815,62.609,49.748z M60.955,69.772
			c-0.818,0.504-1.795,0.697-2.93,0.58l-0.156,0.581c-0.033,0.125-0.129,0.217-0.285,0.275c-0.156,0.06-0.315,0.065-0.479,0.022
			c-0.175-0.048-0.312-0.134-0.41-0.261c-0.104-0.127-0.133-0.254-0.102-0.379l0.141-0.525c-1.08-0.317-1.945-0.824-2.596-1.522
			c-0.65-0.697-0.902-1.32-0.754-1.871c0.076-0.287,0.261-0.55,0.554-0.786c0.29-0.236,0.573-0.318,0.848-0.244
			c0.188,0.05,0.382,0.213,0.584,0.488c0.2,0.276,0.462,0.584,0.786,0.925c0.324,0.342,0.717,0.602,1.178,0.779l1.004-3.73
			c-0.417-0.3-0.732-0.532-0.949-0.697c-0.217-0.167-0.487-0.413-0.807-0.74c-0.322-0.328-0.551-0.637-0.688-0.928
			c-0.135-0.291-0.23-0.646-0.287-1.063c-0.055-0.417-0.02-0.856,0.104-1.319c0.299-1.113,0.872-1.873,1.72-2.283
			c0.846-0.409,1.813-0.542,2.901-0.396l0.141-0.525c0.033-0.125,0.125-0.217,0.276-0.277c0.149-0.061,0.313-0.067,0.487-0.02
			c0.162,0.043,0.296,0.13,0.403,0.259c0.104,0.129,0.142,0.256,0.106,0.381l-0.131,0.487c0.783,0.237,1.479,0.564,2.09,0.983
			s0.852,0.872,0.719,1.359c-0.072,0.275-0.236,0.537-0.49,0.782c-0.256,0.247-0.537,0.329-0.852,0.244
			c-0.123-0.033-0.377-0.215-0.757-0.545s-0.803-0.577-1.269-0.743l-0.886,3.301c0.462,0.325,0.838,0.62,1.13,0.887
			c0.29,0.266,0.59,0.604,0.902,1.017c0.313,0.412,0.501,0.875,0.572,1.389c0.068,0.515,0.023,1.073-0.139,1.672
			C62.334,68.455,61.774,69.269,60.955,69.772z"/>
	</g>
	<g>
		<path fill="#FFFFFF" d="M47.57,11.66c-0.1,0.375-0.056,0.706,0.136,0.992s0.51,0.596,0.957,0.931l0.76-2.832
			C48.378,10.645,47.76,10.948,47.57,11.66z"/>
		<path fill="#FFFFFF" d="M48.847,16.788l-0.877,3.263c0.988,0.064,1.596-0.322,1.819-1.159c0.115-0.425,0.085-0.802-0.087-1.131
			C49.528,17.434,49.243,17.109,48.847,16.788z"/>
		<path fill="#FFFFFF" d="M52.115,1.681c-7.697-2.068-15.611,2.495-17.678,10.193c-2.068,7.696,2.494,15.611,10.191,17.679
			s15.613-2.496,17.68-10.192C64.375,11.663,59.812,3.748,52.115,1.681z M50.46,21.705c-0.818,0.504-1.795,0.697-2.93,0.58
			l-0.156,0.582c-0.033,0.124-0.129,0.216-0.284,0.275c-0.156,0.059-0.315,0.065-0.479,0.022c-0.174-0.047-0.311-0.134-0.41-0.262
			c-0.103-0.127-0.134-0.254-0.102-0.379l0.142-0.525c-1.08-0.317-1.946-0.824-2.597-1.521c-0.65-0.698-0.902-1.321-0.754-1.872
			c0.077-0.287,0.262-0.55,0.553-0.786s0.574-0.318,0.85-0.244c0.188,0.05,0.382,0.213,0.582,0.488
			c0.201,0.275,0.463,0.584,0.788,0.925c0.323,0.342,0.716,0.601,1.178,0.779l1.003-3.731c-0.416-0.3-0.732-0.531-0.949-0.697
			c-0.217-0.166-0.486-0.413-0.807-0.739c-0.322-0.328-0.551-0.637-0.688-0.928c-0.135-0.291-0.23-0.646-0.287-1.063
			c-0.055-0.417-0.02-0.856,0.104-1.318c0.299-1.113,0.873-1.874,1.721-2.283c0.846-0.409,1.813-0.542,2.9-0.396l0.141-0.525
			c0.035-0.124,0.126-0.218,0.275-0.277c0.15-0.061,0.313-0.066,0.488-0.02c0.162,0.043,0.296,0.13,0.404,0.259
			c0.104,0.129,0.141,0.256,0.105,0.381l-0.13,0.487c0.782,0.237,1.478,0.564,2.089,0.983s0.851,0.872,0.72,1.359
			c-0.073,0.275-0.237,0.537-0.491,0.782c-0.254,0.248-0.537,0.329-0.85,0.244c-0.125-0.033-0.378-0.215-0.758-0.544
			c-0.381-0.331-0.805-0.578-1.27-0.744l-0.885,3.301c0.461,0.325,0.837,0.62,1.129,0.887c0.291,0.266,0.591,0.604,0.902,1.017
			c0.312,0.412,0.502,0.875,0.572,1.39c0.069,0.515,0.023,1.072-0.139,1.672C51.841,20.388,51.281,21.201,50.46,21.705z"/>
	</g>
</g>
</svg>
