<?xml version="1.0" encoding="utf-8"?>
<!-- Generator: Adobe Illustrator 16.0.0, SVG Export Plug-In . SVG Version: 6.00 Build 0)  -->
<!DOCTYPE svg PUBLIC "-//W3C//DTD SVG 1.1//EN" "http://www.w3.org/Graphics/SVG/1.1/DTD/svg11.dtd">
<svg version="1.1" id="Capa_1" xmlns="http://www.w3.org/2000/svg" xmlns:xlink="http://www.w3.org/1999/xlink" x="0px" y="0px"
	 width="39.729px" height="59.143px" viewBox="0 0 39.729 59.143" enable-background="new 0 0 39.729 59.143" xml:space="preserve">
<path fill="#9DBB42" d="M24.743,31.806v-3.799c0,0,0,0,0,0.003c3.535-1.456,6.377-4.456,6.377-8.258
	c0-0.604,0.004-1.272-0.004-1.982h0.787c0,0,0.547-5.435-0.783-9.768c-1.33-4.338-5.936-3.76-5.939-3.76
	C24.038,2.86,21.425,1.51,19.31,1.602C16.146,1.737,9.335,3.113,8.3,9.309c-1.029,6.19-0.342,8.461-0.342,8.461H8.88
	c-0.004,0.71-0.002,1.379-0.002,1.982c0,3.921,3.021,6.989,6.711,8.392v3.622C5.604,32.854,1.972,37.699,1.972,42.547
	c0,2.448,0,6.088,0,9.38c4.988,3.849,11.238,6.142,18.025,6.142c6.791,0,13.037-2.293,18.029-6.142c0-3.292,0-6.932,0-9.38
	C38.026,37.755,34.473,32.963,24.743,31.806z"/>
</svg>
