<?xml version="1.0" encoding="utf-8"?>
<!-- Generator: Adobe Illustrator 16.0.0, SVG Export Plug-In . SVG Version: 6.00 Build 0)  -->
<!DOCTYPE svg PUBLIC "-//W3C//DTD SVG 1.1//EN" "http://www.w3.org/Graphics/SVG/1.1/DTD/svg11.dtd">
<svg version="1.1" id="Capa_1" xmlns="http://www.w3.org/2000/svg" xmlns:xlink="http://www.w3.org/1999/xlink" x="0px" y="0px"
	 width="20.542px" height="20.429px" viewBox="0 0 20.542 20.429" enable-background="new 0 0 20.542 20.429" xml:space="preserve">
<path fill="#FFFFFF" d="M69.622,13.919h-2.646v9.442h-3.924v-9.442h-1.865v-3.334h1.865V8.427c0-1.544,0.732-3.961,3.959-3.961
	l2.906,0.013v3.238h-2.109c-0.346,0-0.832,0.171-0.832,0.909v1.962h2.99L69.622,13.919z"/>
<path fill-rule="evenodd" clip-rule="evenodd" fill="#FFFFFF" d="M129.509,13.475c0-1.577-1.277-2.856-2.854-2.856h-13.387
	c-1.58,0-2.854,1.279-2.854,2.856v7.655c0,1.577,1.273,2.855,2.854,2.855h13.387c1.576,0,2.854-1.278,2.854-2.855V13.475z
	 M118.054,20.532V13.34l5.451,3.596L118.054,20.532z"/>
<path fill="#FFFFFF" d="M18.258,5.664c-0.588,0.261-1.219,0.437-1.881,0.517c0.676-0.407,1.195-1.048,1.441-1.814
	c-0.635,0.376-1.336,0.648-2.082,0.794c-0.598-0.637-1.451-1.034-2.395-1.034c-1.809,0-3.276,1.467-3.276,3.279
	c0,0.255,0.029,0.506,0.085,0.745C7.427,8.014,5.012,6.709,3.396,4.728C3.114,5.212,2.952,5.774,2.952,6.375
	c0,1.138,0.578,2.141,1.458,2.729C3.874,9.086,3.367,8.939,2.926,8.693C2.925,8.708,2.925,8.721,2.925,8.735
	c0,1.588,1.13,2.912,2.629,3.213c-0.274,0.074-0.564,0.116-0.862,0.116c-0.213,0-0.418-0.021-0.617-0.06
	c0.417,1.302,1.627,2.25,3.061,2.275c-1.121,0.88-2.534,1.403-4.07,1.403c-0.265,0-0.525-0.015-0.78-0.046
	c1.448,0.931,3.171,1.473,5.023,1.473c6.028,0,9.325-4.994,9.325-9.325c0-0.142-0.002-0.283-0.01-0.425
	C17.264,6.899,17.82,6.321,18.258,5.664"/>
</svg>
