<?xml version="1.0" encoding="utf-8"?>
<!-- Generator: Adobe Illustrator 16.0.0, SVG Export Plug-In . SVG Version: 6.00 Build 0)  -->
<!DOCTYPE svg PUBLIC "-//W3C//DTD SVG 1.1//EN" "http://www.w3.org/Graphics/SVG/1.1/DTD/svg11.dtd">
<svg version="1.1" id="Capa_1" xmlns="http://www.w3.org/2000/svg" xmlns:xlink="http://www.w3.org/1999/xlink" x="0px" y="0px"
	 width="20.542px" height="20.429px" viewBox="0 0 20.542 20.429" enable-background="new 0 0 20.542 20.429" xml:space="preserve">
<path fill="#FFFFFF" d="M69.622,13.919h-2.646v9.442h-3.924v-9.442h-1.865v-3.334h1.865V8.427c0-1.544,0.732-3.961,3.959-3.961
	l2.906,0.013v3.238h-2.109c-0.346,0-0.832,0.171-0.832,0.909v1.962h2.99L69.622,13.919z"/>
<path fill-rule="evenodd" clip-rule="evenodd" fill="#FFFFFF" d="M19.818,6.792c0-1.577-1.277-2.856-2.854-2.856H3.578
	c-1.58,0-2.854,1.279-2.854,2.856v7.655c0,1.577,1.273,2.855,2.854,2.855h13.387c1.576,0,2.854-1.278,2.854-2.855V6.792z
	 M8.363,13.848V6.657l5.451,3.596L8.363,13.848z"/>
<path fill="#FFFFFF" d="M93.428,7.244c-0.588,0.261-1.219,0.437-1.881,0.517c0.676-0.407,1.195-1.048,1.441-1.814
	c-0.635,0.376-1.336,0.648-2.082,0.794c-0.598-0.637-1.451-1.034-2.395-1.034c-1.809,0-3.276,1.467-3.276,3.279
	c0,0.255,0.029,0.506,0.086,0.745c-2.725-0.138-5.139-1.442-6.756-3.424c-0.281,0.484-0.443,1.046-0.443,1.647
	c0,1.138,0.578,2.141,1.457,2.729c-0.535-0.018-1.043-0.165-1.482-0.411c-0.002,0.015-0.002,0.028-0.002,0.042
	c0,1.588,1.131,2.912,2.629,3.213c-0.273,0.074-0.564,0.116-0.861,0.116c-0.213,0-0.418-0.021-0.617-0.06
	c0.416,1.302,1.627,2.25,3.061,2.275c-1.121,0.88-2.535,1.403-4.07,1.403c-0.266,0-0.525-0.015-0.781-0.046
	c1.449,0.931,3.172,1.473,5.023,1.473c6.028,0,9.325-4.994,9.325-9.325c0-0.142-0.002-0.283-0.01-0.425
	C92.434,8.479,92.99,7.901,93.428,7.244"/>
</svg>
