<svg xmlns="http://www.w3.org/2000/svg" xmlns:xlink="http://www.w3.org/1999/xlink" width="659" height="560" viewBox="0 0 659 560"><defs><path id="a" d="M554.438 394.173h19.709v31.146h-19.709z"/></defs><clipPath id="b"><use xlink:href="#a" overflow="visible"/></clipPath><path clip-path="url(#b)" d="M569.461 425.318c-.362 0-.546-.194-.625-.54l-1.091-5.691h-6.929l-1.049 5.691c-.08.346-.278.54-.63.54h-4.157c-.438 0-.634-.232-.513-.665l6.468-29.934c.071-.384.302-.548.656-.548h5.411c.346 0 .59.164.658.548l6.462 29.934c.079.433-.074.665-.546.665h-4.115zm-5.184-24.326l-2.49 13.582h4.987l-2.497-13.582z"/><defs><path id="c" d="M577.625 394.173h15.177v31.146h-15.177z"/></defs><clipPath id="d"><use xlink:href="#c" overflow="visible"/></clipPath><path clip-path="url(#d)" d="M582.922 420.18h9.264c.43 0 .616.239.616.615v3.9c0 .429-.188.623-.616.623H578.25c-.396 0-.628-.194-.628-.623v-29.898c0-.384.231-.624.628-.624h4.047c.426 0 .625.24.625.624v25.383z"/><path fill="#A8D038" d="M323.622 349.072c-2.817 4.527-5.631 9.185-8.439 13.72 21.539-53.299 7.62-106.924 5.799-160.197-1.126-.099-2.24-.177-3.367-.282a63407.804 63407.804 0 0 1-9.272 37.863c-.659-8.921.078-17.492 1.293-25.993 3.642-25.423 1.737-32.784-3.976-75.18-5.709-42.412-28.891-92.267-45.899-100.538-1.919-1.565-5.838.109-7.089.192-3.478-2.554-6.654-6.759-8.884-6.176-5.464 1.433-11.063 4.254-15.405 8.252-1.634 1.509-.965 8.399.457 11.829 2.751 6.567 6.8 12.42 10.314 18.577-.609.488-1.207.985-1.805 1.482-5.586-6.838-11.177-13.665-16.863-20.616-11.524 17.581-8.309 36.831 10.336 69.621-3.079 4.179-7.939 7.94-7.548 10.682.847 5.92 3.189 26.712 6.714 54.335.509 3.889 14.265 28.634 14.807 32.775.584 4.423-12.047-11.736-11.42-7.079 5.415 39.929 12.643 87.313 21.014 124.813.659 2.951 10.314 6.353 10.961 9.171.452 1.977-11.003-4.39-10.557-2.491 2.612 11.238 7.567 25.51 12.469 32.461h52.636c2.715-6.951 2.875-17.818 3.724-27.221"/><path fill="#D96600" d="M217.538 251.132c-.94-.082-1.876-.048-2.809-.131-2.593 10.553-5.177 21.187-7.771 31.737-.557-7.454.068-14.617 1.082-21.732 3.045-21.301 1.463-27.427-3.329-62.948-4.782-35.503-24.198-77.246-38.433-84.169-1.606-1.316-4.896.094-5.942.162-2.906-2.148-5.567-5.665-7.439-5.168-4.575 1.2-9.258 3.562-12.893 6.917-1.371 1.264-.814 7.029.379 9.899 2.3 5.502 5.694 10.4 8.628 15.557-.509.406-1.002.82-1.502 1.237-4.677-5.724-9.356-11.442-14.125-17.264-9.642 14.722-6.949 30.846 8.657 58.292-2.573 3.501-6.646 6.646-6.319 8.951.714 4.954 2.684 22.372 5.628 45.482.418 3.271 11.94 23.993 12.394 27.461.489 3.704-10.084-9.826-9.565-5.922 4.534 33.426 10.59 73.11 17.601 104.514.551 2.472 8.634 5.31 9.167 7.669.393 1.66-9.201-3.719-8.835-2.132.537 2.333 1.214 6.749 1.964 6.749h51.776c13.377-41.706 3.116-83.47 1.686-125.161"/><path fill="#D9131F" d="M135.627 312.573c-.937-.091-1.877-.058-2.818-.15-2.583 10.572-5.172 21.187-7.763 31.765-.555-7.481.061-14.645 1.083-21.748 3.045-21.301 1.459-27.426-3.323-62.945-4.791-35.505-24.198-77.259-38.44-84.165-1.604-1.317-4.894.087-5.941.154-2.9-2.144-5.561-5.665-7.432-5.175-4.581 1.199-9.266 3.573-12.901 6.923-1.371 1.263-.813 7.034.387 9.889 2.302 5.51 5.685 10.41 8.621 15.567-.502.41-1 .824-1.503 1.23-4.677-5.712-9.346-11.437-14.118-17.248-9.647 14.713-6.956 30.833 8.657 58.284-2.579 3.513-6.646 6.646-6.319 8.955.707 4.957 2.677 22.368 5.623 45.482.418 3.268 11.94 23.979 12.397 27.455.491 3.709-10.097-10.08-9.57-6.176 2.394 17.596 5.199 34.771 8.349 55.622h69.785c-1.015-20.849-4.044-42.453-4.774-63.719"/><path fill="#41077D" d="M597.346 320.671c.523-3.907-10.05 9.761-9.563 6.048.452-3.476 11.986-24.121 12.396-27.393 2.952-23.117 4.916-40.499 5.619-45.444.335-2.314-3.728-5.439-6.308-8.948 15.608-27.446 18.302-43.555 8.653-58.273-4.77 5.82-9.45 11.533-14.127 17.25-.5-.406-1.005-.813-1.501-1.223 2.935-5.157 6.323-10.057 8.621-15.564 1.195-2.858 1.752-8.634.396-9.892-3.646-3.351-8.335-5.724-12.9-6.923-1.877-.49-4.532 3.042-7.444 5.175-1.054-.061-4.332-1.467-5.938-.151-14.244 6.91-33.651 48.674-38.433 84.177-4.781 35.514-6.375 41.667-3.329 62.953 1.017 7.131 1.64 14.314 1.083 21.776a23928.445 23928.445 0 0 0-7.771-31.683c-.939.088-1.876-.074-2.806.018-.736 21.266-3.754 42.869-4.78 63.72h69.782c3.15-20.851 5.969-38.028 8.35-55.623"/><path fill="#320C84" d="M497.839 371.943c7.011-31.402 13.063-70.951 17.596-104.394.526-3.893-10.052 9.689-9.562 5.996.455-3.475 11.979-24.158 12.389-27.416 2.956-23.132 4.925-40.524 5.637-45.478.314-2.306-3.752-5.439-6.328-8.939 15.616-27.451 18.311-43.575 8.658-58.292-4.77 5.826-9.444 11.543-14.127 17.257-.497-.406-.992-.817-1.489-1.238 2.935-5.142 6.317-10.046 8.62-15.557 1.199-2.866 1.75-8.636.378-9.896-3.628-3.355-8.316-5.721-12.896-6.913-1.865-.488-4.528 3.028-7.428 5.168-1.05-.06-4.338-1.466-5.942-.15-14.245 6.917-33.652 48.667-38.443 84.18-4.788 35.502-6.373 41.664-3.319 62.957 1.016 7.115 1.633 14.306 1.076 21.777-2.587-10.57-5.174-21.127-7.767-31.688-.929.083-1.876-.076-2.81.007-1.331 38.959-10.396 75.263-.654 116.969h50.634c2.482 0 5.453-2.891 5.777-4.35"/><path fill="#008E25" d="M406.874 341.455c.448-1.891-11.002 4.354-10.559 2.377.646-2.809 10.303-6.163 10.961-9.109 8.372-37.498 15.601-84.861 21.021-124.776.624-4.656-12.011 11.518-11.428 7.093.549-4.156 14.305-28.882 14.802-32.775 3.528-27.623 5.875-48.415 6.717-54.32.392-2.757-4.468-6.51-7.545-10.697 18.643-32.779 21.854-52.026 10.336-69.606a95144.532 95144.532 0 0 1-16.866 20.608c-.598-.488-1.195-.985-1.789-1.482 3.504-6.149 7.544-12.002 10.297-18.569 1.426-3.43 2.096-10.321.459-11.829-4.346-4.005-9.938-6.83-15.402-8.252-2.23-.586-5.404 3.619-8.884 6.176-1.253-.079-5.165-1.765-7.09-.192-17.012 8.259-40.185 58.129-45.898 100.526-5.721 42.409-7.612 49.761-3.976 75.191 1.215 8.5 1.955 17.084 1.29 26.006-3.087-12.613-6.188-25.228-9.278-37.847-1.113.109-2.234.211-3.347.32-1.832 53.275-15.758 106.948 5.788 160.251-2.813-4.531-5.623-9.313-8.43-13.841.914 10.271 1.023 22.632 4.543 29.583h50.612c5.274-6.949 10.837-22.665 13.666-34.836"/><defs><path id="e" d="M67.507 438.857H595.8v6.948H67.507z"/></defs><clipPath id="f"><use xlink:href="#e" overflow="visible"/></clipPath><path clip-path="url(#f)" d="M67.507 438.857H595.8v6.948H67.507z"/><defs><path id="g" d="M69.096 394.173h15.571v31.146H69.096z"/></defs><clipPath id="h"><use xlink:href="#g" overflow="visible"/></clipPath><path clip-path="url(#h)" d="M84.667 398.698c0 .391-.232.622-.619.622h-9.657v7.816h7.317c.391 0 .621.241.621.625v3.899c0 .422-.229.612-.621.612h-7.317v12.421c0 .391-.239.623-.619.623H69.72c-.423 0-.619-.232-.619-.623v-29.898c0-.384.195-.624.619-.624h14.328c.386 0 .619.24.619.624v3.903z"/><defs><path id="i" d="M87.784 394.173h15.564v31.146H87.784z"/></defs><clipPath id="j"><use xlink:href="#i" overflow="visible"/></clipPath><path clip-path="url(#j)" d="M102.57 394.173c.432 0 .778.36.778.782v24.756c0 3.657-1.946 5.607-5.601 5.607h-4.369c-3.654 0-5.601-1.95-5.601-5.607v-24.756c0-.422.346-.782.779-.782h3.74c.424 0 .77.36.77.782v23.67c0 1.045.551 1.555 1.565 1.555h2.021c1.01 0 1.559-.51 1.559-1.555v-23.67c0-.422.346-.782.779-.782h3.58z"/><defs><path id="k" d="M107.237 394.173h16.621v31.146h-16.621z"/></defs><clipPath id="l"><use xlink:href="#k" overflow="visible"/></clipPath><path clip-path="url(#l)" d="M123.233 394.173c.392 0 .625.24.625.624v29.898c0 .391-.232.623-.625.623h-3.851c-.348 0-.585-.156-.7-.511l-5.96-16.612h-.195v16.5c0 .391-.192.623-.615.623h-4.047c-.389 0-.628-.232-.628-.623v-29.898c0-.384.239-.624.628-.624h3.85c.35 0 .583.164.701.521l5.911 16.533h.237v-16.43c0-.384.2-.624.625-.624h4.044z"/><defs><path id="m" d="M127.752 394.173h15.566v31.146h-15.566z"/></defs><clipPath id="n"><use xlink:href="#m" overflow="visible"/></clipPath><path clip-path="url(#n)" d="M127.749 394.797c0-.384.192-.624.625-.624h9.337c3.663 0 5.608 1.99 5.608 5.65v19.888c0 3.657-1.945 5.607-5.608 5.607h-9.337c-.433 0-.625-.194-.625-.623v-29.898zm8.877 25.383c1.008 0 1.557-.51 1.557-1.555v-17.7c0-1.065-.549-1.604-1.557-1.604h-3.59v20.857h3.59v.002z"/><defs><path id="o" d="M145.658 394.173h19.708v31.146h-19.708z"/></defs><clipPath id="p"><use xlink:href="#o" overflow="visible"/></clipPath><path clip-path="url(#p)" d="M160.679 425.318c-.357 0-.549-.194-.629-.54l-1.082-5.691h-6.938l-1.048 5.691c-.078.346-.272.54-.618.54H146.2c-.432 0-.628-.232-.509-.665l6.458-29.934c.075-.384.314-.548.666-.548h5.411c.346 0 .584.164.657.548l6.467 29.934c.079.433-.079.665-.552.665h-4.119zm-5.179-24.326l-2.496 13.582h4.984l-2.488-13.582z"/><defs><path id="q" d="M168.062 394.173h15.611v31.146h-15.611z"/></defs><clipPath id="r"><use xlink:href="#q" overflow="visible"/></clipPath><path clip-path="url(#r)" d="M183.673 403.989c0 .388-.231.622-.616.622h-3.893c-.434 0-.628-.234-.628-.622v-3.114c0-1.016-.541-1.555-1.555-1.555h-2.022c-1.054 0-1.557.539-1.557 1.555v17.75c0 1.045.541 1.555 1.557 1.555h2.022c1.015 0 1.555-.51 1.555-1.555v-3.115c0-.387.195-.619.628-.619h3.893c.385 0 .616.232.616.619v4.201c0 3.657-1.987 5.607-5.604 5.607h-4.365c-3.654 0-5.643-1.95-5.643-5.607v-19.923c0-3.667 1.988-5.615 5.643-5.615h4.365c3.616 0 5.604 1.948 5.604 5.615v4.201z"/><defs><path id="s" d="M187.561 394.173h5.297v31.146h-5.297z"/></defs><clipPath id="t"><use xlink:href="#s" overflow="visible"/></clipPath><path clip-path="url(#t)" d="M192.234 394.173c.391 0 .624.24.624.624v29.898c0 .391-.232.623-.624.623h-4.053c-.424 0-.619-.232-.619-.623v-29.898c0-.384.195-.624.619-.624h4.053z"/><defs><path id="u" d="M196.748 394.173h15.574v31.146h-15.574z"/></defs><clipPath id="v"><use xlink:href="#u" overflow="visible"/></clipPath><path clip-path="url(#v)" d="M196.75 399.781c0-3.66 1.939-5.608 5.605-5.608h4.359c3.66 0 5.599 1.948 5.599 5.608v19.93c0 3.657-1.939 5.607-5.599 5.607h-4.359c-3.666 0-5.605-1.95-5.605-5.607v-19.93zm8.991 20.514c1.013 0 1.555-.5 1.555-1.554v-17.982c0-1.016-.542-1.561-1.555-1.561h-2.263c-1.013 0-1.555.545-1.555 1.561v17.982c0 1.054.542 1.554 1.555 1.554h2.263z"/><defs><path id="w" d="M216.208 394.173h16.622v31.146h-16.622z"/></defs><clipPath id="x"><use xlink:href="#w" overflow="visible"/></clipPath><path clip-path="url(#x)" d="M232.205 394.173c.389 0 .625.24.625.624v29.898c0 .391-.236.623-.625.623h-3.854c-.346 0-.583-.156-.698-.511l-5.961-16.612h-.193v16.5c0 .391-.192.623-.619.623h-4.044c-.398 0-.624-.232-.624-.623v-29.898c0-.384.225-.624.624-.624h3.848c.35 0 .576.164.696.521l5.915 16.533h.238v-16.43c0-.384.195-.624.625-.624h4.047z"/><defs><path id="y" d="M246.063 394.173h19.706v31.146h-19.706z"/></defs><clipPath id="z"><use xlink:href="#y" overflow="visible"/></clipPath><path clip-path="url(#z)" d="M261.081 425.318c-.356 0-.541-.194-.628-.54l-1.083-5.691h-6.931l-1.049 5.691c-.079.346-.271.54-.628.54H246.6c-.43 0-.628-.232-.507-.665l6.465-29.934c.067-.384.304-.548.659-.548h5.41c.346 0 .59.164.666.548l6.458 29.934c.076.433-.084.665-.549.665h-4.121zm-5.179-24.326l-2.487 13.582h4.974l-2.487-13.582z"/><defs><path id="A" d="M269.251 394.173h15.997v31.146h-15.997z"/></defs><clipPath id="B"><use xlink:href="#A" overflow="visible"/></clipPath><path clip-path="url(#B)" d="M285.248 409.286c0 2.604-.971 4.315-2.842 5.129l2.682 10.197c.118.474-.112.706-.541.706H280.5c-.39 0-.582-.194-.667-.54l-2.599-9.888h-2.693v9.805c0 .391-.232.623-.624.623h-4.045c-.387 0-.618-.232-.618-.623v-29.898c0-.384.231-.624.618-.624h9.77c3.662 0 5.606 1.948 5.606 5.608v9.505zm-6.853.462c1.016 0 1.56-.545 1.56-1.553v-7.32c0-1.016-.544-1.555-1.56-1.555h-3.854v10.428h3.854z"/><defs><path id="C" d="M288.36 394.173h15.571v31.146H288.36z"/></defs><clipPath id="D"><use xlink:href="#C" overflow="visible"/></clipPath><path clip-path="url(#D)" d="M303.303 394.173c.434 0 .625.24.625.624v3.901c0 .391-.191.622-.625.622h-4.509v25.375c0 .429-.2.623-.625.623h-4.046c-.39 0-.628-.194-.628-.623V399.32h-4.515c-.392 0-.619-.231-.619-.622v-3.901c0-.384.229-.624.619-.624h14.323z"/><defs><path id="E" d="M307.038 394.173h5.298v31.146h-5.298z"/></defs><clipPath id="F"><use xlink:href="#E" overflow="visible"/></clipPath><path clip-path="url(#F)" d="M311.71 394.173c.39 0 .624.24.624.624v29.898c0 .391-.234.623-.624.623h-4.052c-.426 0-.62-.232-.62-.623v-29.898c0-.384.193-.624.62-.624h4.052z"/><defs><path id="G" d="M316.219 394.173h15.572v31.146h-15.572z"/></defs><clipPath id="H"><use xlink:href="#G" overflow="visible"/></clipPath><path clip-path="url(#H)" d="M326.183 394.173c3.657 0 5.612 1.948 5.612 5.608v4.129c0 .392-.196.625-.629.625h-4.042c-.39 0-.628-.233-.628-.625v-3.035c0-1.016-.504-1.555-1.558-1.555h-1.865c-.967 0-1.558.539-1.558 1.555v5.367l9.266 3.044c.66.271 1.015.69 1.015 1.437v8.988c0 3.657-1.955 5.607-5.612 5.607h-4.355c-3.621 0-5.604-1.95-5.604-5.607v-4.085c0-.427.237-.623.617-.623h4.052c.427 0 .624.196.624.623v2.999c0 1.045.591 1.555 1.558 1.555h1.865c1.016 0 1.558-.51 1.558-1.555v-5.188l-9.221-3.023c-.701-.232-1.052-.711-1.052-1.439v-9.192c0-3.66 1.983-5.608 5.604-5.608l4.353-.002z"/><defs><path id="I" d="M334.127 394.173h15.563v31.146h-15.563z"/></defs><clipPath id="J"><use xlink:href="#I" overflow="visible"/></clipPath><path clip-path="url(#J)" d="M349.066 394.173c.432 0 .624.24.624.624v3.901c0 .391-.192.622-.624.622h-4.511v25.375c0 .429-.191.623-.624.623h-4.044c-.391 0-.632-.194-.632-.623V399.32h-4.509c-.388 0-.618-.231-.618-.622v-3.901c0-.384.229-.624.618-.624h14.32z"/><defs><path id="K" d="M352.805 394.173h5.295v31.146h-5.295z"/></defs><clipPath id="L"><use xlink:href="#K" overflow="visible"/></clipPath><path clip-path="url(#L)" d="M357.477 394.173c.392 0 .624.24.624.624v29.898c0 .391-.231.623-.624.623h-4.048c-.429 0-.624-.232-.624-.623v-29.898c0-.384.195-.624.624-.624h4.048z"/><defs><path id="M" d="M361.99 394.173h15.607v31.146H361.99z"/></defs><clipPath id="N"><use xlink:href="#M" overflow="visible"/></clipPath><path clip-path="url(#N)" d="M377.599 403.989c0 .388-.236.622-.624.622h-3.896c-.421 0-.624-.234-.624-.622v-3.114c0-1.016-.542-1.555-1.551-1.555h-2.026c-1.05 0-1.561.539-1.561 1.555v17.75c0 1.045.552 1.555 1.561 1.555h2.026c1.009 0 1.551-.51 1.551-1.555v-3.115c0-.387.202-.619.624-.619h3.896c.388 0 .624.232.624.619v4.201c0 3.657-1.987 5.607-5.61 5.607h-4.356c-3.656 0-5.646-1.95-5.646-5.607v-19.923c0-3.667 1.989-5.615 5.646-5.615h4.356c3.623 0 5.61 1.948 5.61 5.615v4.201z"/><defs><path id="O" d="M380.714 394.173h19.708v31.146h-19.708z"/></defs><clipPath id="P"><use xlink:href="#O" overflow="visible"/></clipPath><path clip-path="url(#P)" d="M395.736 425.318c-.357 0-.545-.194-.633-.54l-1.087-5.691h-6.925l-1.052 5.691c-.083.346-.275.54-.625.54h-4.167c-.417 0-.621-.232-.503-.665l6.468-29.934c.076-.384.305-.548.654-.548h5.413c.346 0 .583.164.657.548l6.471 29.934c.066.433-.092.665-.555.665h-4.116zm-5.183-24.326l-2.484 13.582h4.976l-2.492-13.582z"/><defs><path id="Q" d="M412.458 394.173h19.702v31.146h-19.702z"/></defs><clipPath id="R"><use xlink:href="#Q" overflow="visible"/></clipPath><path clip-path="url(#R)" d="M431.456 394.173c.583 0 .854.36.625.896l-7.121 17.324v12.146c0 .511-.273.781-.782.781h-3.738c-.505 0-.774-.271-.774-.781v-12.146l-7.131-17.324c-.226-.534.052-.896.632-.896h3.888c.475 0 .746.202.9.624l4.366 11.178 4.354-11.178c.147-.422.426-.624.888-.624h3.893z"/><defs><path id="S" d="M207.12 383.762h6.437v8.42h-6.437z"/></defs><clipPath id="T"><use xlink:href="#S" overflow="visible"/></clipPath><path clip-path="url(#T)" d="M213.56 384.684l-1.209 6.842c-.09.496-.401.723-.906.633l-3.674-.651c-.493-.087-.717-.401-.625-.901l1.202-6.842"/><defs><path id="U" d="M309.678 383.762h6.445v8.42h-6.445z"/></defs><clipPath id="V"><use xlink:href="#U" overflow="visible"/></clipPath><path clip-path="url(#V)" d="M316.122 384.684l-1.204 6.842c-.09.496-.402.723-.904.633l-3.684-.651c-.496-.087-.718-.401-.624-.901l1.202-6.842"/><defs><path id="W" d="M444.609 394.173h15.609v31.146h-15.609z"/></defs><clipPath id="X"><use xlink:href="#W" overflow="visible"/></clipPath><path clip-path="url(#X)" d="M460.219 403.989c0 .388-.233.622-.621.622h-3.9c-.421 0-.621-.234-.621-.622v-3.114c0-1.016-.538-1.555-1.552-1.555h-2.023c-1.054 0-1.565.539-1.565 1.555v17.75c0 1.045.558 1.555 1.565 1.555h2.023c1.014 0 1.552-.51 1.552-1.555v-3.115c0-.387.199-.619.621-.619h3.9c.388 0 .621.232.621.619v4.201c0 3.657-1.994 5.607-5.604 5.607h-4.363c-3.651 0-5.642-1.95-5.642-5.607v-19.923c0-3.667 1.989-5.615 5.642-5.615h4.363c3.61 0 5.604 1.948 5.604 5.615v4.201z"/><defs><path id="Y" d="M464.107 394.173h15.563v31.146h-15.563z"/></defs><clipPath id="Z"><use xlink:href="#Y" overflow="visible"/></clipPath><path clip-path="url(#Z)" d="M478.897 394.173c.429 0 .773.36.773.782v24.756c0 3.657-1.94 5.607-5.598 5.607h-4.361c-3.665 0-5.598-1.95-5.598-5.607v-24.756c0-.422.339-.782.768-.782h3.731c.437 0 .79.36.79.782v23.67c0 1.045.542 1.555 1.551 1.555h2.026c1.009 0 1.561-.51 1.561-1.555v-23.67c0-.422.347-.782.775-.782h3.582z"/><defs><path id="aa" d="M483.565 394.173h15.184v31.146h-15.184z"/></defs><clipPath id="ab"><use xlink:href="#aa" overflow="visible"/></clipPath><path clip-path="url(#ab)" d="M488.857 420.18h9.267c.429 0 .618.239.618.615v3.9c0 .429-.189.623-.618.623h-13.931c-.398 0-.628-.194-.628-.623v-29.898c0-.384.229-.624.628-.624h4.046c.422 0 .618.24.618.624v25.383z"/><defs><path id="ac" d="M497.967 394.173h15.563v31.146h-15.563z"/></defs><clipPath id="ad"><use xlink:href="#ac" overflow="visible"/></clipPath><path clip-path="url(#ad)" d="M512.906 394.173c.433 0 .624.24.624.624v3.901c0 .391-.191.622-.624.622h-4.51v25.375c0 .429-.192.623-.629.623h-4.044c-.387 0-.628-.194-.628-.623V399.32h-4.509c-.389 0-.621-.231-.621-.622v-3.901c0-.384.232-.624.621-.624h14.32z"/><defs><path id="ae" d="M516.646 394.173h15.569v31.146h-15.569z"/></defs><clipPath id="af"><use xlink:href="#ae" overflow="visible"/></clipPath><path clip-path="url(#af)" d="M531.434 394.173c.43 0 .775.36.775.782v24.756c0 3.657-1.945 5.607-5.597 5.607h-4.363c-3.663 0-5.604-1.95-5.604-5.607v-24.756c0-.422.346-.782.773-.782h3.738c.422 0 .778.36.778.782v23.67c0 1.045.541 1.555 1.558 1.555h2.02c1.01 0 1.562-.51 1.562-1.555v-23.67c0-.422.351-.782.779-.782h3.581z"/><defs><path id="ag" d="M536.102 394.173h15.996v31.146h-15.996z"/></defs><clipPath id="ah"><use xlink:href="#ag" overflow="visible"/></clipPath><path clip-path="url(#ah)" d="M552.098 409.286c0 2.604-.977 4.315-2.836 5.129l2.68 10.197c.115.474-.113.706-.542.706h-4.052c-.38 0-.583-.194-.657-.54l-2.606-9.888H541.4v9.805c0 .391-.237.623-.625.623h-4.053c-.384 0-.62-.232-.62-.623v-29.898c0-.384.236-.624.62-.624h9.772c3.663 0 5.604 1.948 5.604 5.608v9.505zm-6.85.462c1.021 0 1.562-.545 1.562-1.553v-7.32c0-1.016-.541-1.555-1.562-1.555h-3.85v10.428h3.85z"/><defs><path id="ai" d="M67.624 464.986h29.279v58.406H67.624z"/></defs><clipPath id="aj"><use xlink:href="#ai" overflow="visible"/></clipPath><path clip-path="url(#aj)" d="M96.903 483.386c0 .724-.432 1.166-1.162 1.166h-7.308c-.797 0-1.167-.442-1.167-1.166v-5.845c0-1.903-1.022-2.923-2.92-2.923h-3.801c-1.969 0-2.919 1.02-2.919 2.923v33.291c0 1.979 1.029 2.926 2.919 2.926h3.801c1.898 0 2.92-.947 2.92-2.926v-5.845c0-.724.369-1.163 1.167-1.163h7.308c.73 0 1.162.439 1.162 1.163v7.895c0 6.856-3.721 10.512-10.52 10.512H78.22c-6.873 0-10.596-3.654-10.596-10.512v-37.383c0-6.864 3.724-10.513 10.596-10.513h8.163c6.799 0 10.52 3.647 10.52 10.513v7.887z"/><defs><path id="ak" d="M102.753 464.986h36.969v58.406h-36.969z"/></defs><clipPath id="al"><use xlink:href="#ak" overflow="visible"/></clipPath><path clip-path="url(#al)" d="M130.926 523.394c-.662 0-1.021-.364-1.167-1.019l-2.043-10.659h-13.009l-1.963 10.659c-.15.653-.51 1.019-1.162 1.019h-7.812c-.809 0-1.177-.438-.956-1.24l12.124-56.151c.147-.726.585-1.015 1.238-1.015h10.146c.664 0 1.094.289 1.239 1.015l12.125 56.151c.146.803-.145 1.24-1.025 1.24h-7.735zm-9.712-45.635l-4.669 25.49h9.341l-4.672-25.49z"/><defs><path id="am" d="M144.789 464.986h29.28v58.406h-29.28z"/></defs><clipPath id="an"><use xlink:href="#am" overflow="visible"/></clipPath><path clip-path="url(#an)" d="M174.065 483.386c0 .724-.431 1.166-1.167 1.166h-7.301c-.799 0-1.167-.442-1.167-1.166v-5.845c0-1.903-1.022-2.923-2.919-2.923h-3.801c-1.969 0-2.918 1.02-2.918 2.923v33.291c0 1.979 1.027 2.926 2.918 2.926h3.801c1.897 0 2.919-.947 2.919-2.926v-5.845c0-.724.368-1.163 1.167-1.163h7.301c.737 0 1.167.439 1.167 1.163v7.895c0 6.856-3.72 10.512-10.512 10.512h-8.171c-6.87 0-10.588-3.654-10.588-10.512v-37.383c0-6.864 3.718-10.513 10.588-10.513h8.171c6.792 0 10.512 3.647 10.512 10.513v7.887z"/><defs><path id="ao" d="M181.366 464.986h9.928v58.406h-9.928z"/></defs><clipPath id="ap"><use xlink:href="#ao" overflow="visible"/></clipPath><path clip-path="url(#ap)" d="M190.124 464.986c.729 0 1.167.437 1.167 1.166v56.067c0 .734-.439 1.173-1.167 1.173h-7.593c-.804 0-1.168-.438-1.168-1.173v-56.067c0-.729.365-1.166 1.168-1.166h7.593z"/><defs><path id="aq" d="M198.591 464.986h29.204v64.832h-29.204z"/></defs><clipPath id="ar"><use xlink:href="#aq" overflow="visible"/></clipPath><path clip-path="url(#ar)" d="M227.794 512.882c0 4.596-1.604 7.737-4.749 9.339l2.926 6.28c.363.811-.22 1.317-1.021 1.317h-7.596c-.73 0-.955-.44-1.239-1.02l-2.482-5.405h-4.531c-6.858 0-10.512-3.648-10.512-10.513v-37.383c0-6.864 3.654-10.513 10.512-10.513h8.181c6.862 0 10.511 3.647 10.511 10.513v37.385zm-19.274-2.05c0 1.979 1.022 2.926 2.919 2.926h3.801c1.897 0 2.919-.947 2.919-2.926v-33.291c0-1.893-1.022-2.923-2.919-2.923h-3.801c-1.897 0-2.919 1.03-2.919 2.923v33.291z"/><defs><path id="as" d="M235.091 464.986h29.212v58.406h-29.212z"/></defs><clipPath id="at"><use xlink:href="#as" overflow="visible"/></clipPath><path clip-path="url(#at)" d="M262.84 464.986c.801 0 1.459.653 1.459 1.459v46.437c0 6.863-3.648 10.512-10.518 10.512h-8.173c-6.861 0-10.521-3.647-10.521-10.512v-46.437c0-.806.663-1.459 1.469-1.459h7.008c.799 0 1.459.653 1.459 1.459v44.387c0 1.979 1.021 2.926 2.919 2.926h3.796c1.901 0 2.928-.946 2.928-2.926v-44.387c0-.806.651-1.459 1.459-1.459h6.715z"/><defs><path id="au" d="M271.592 464.986h29.134v58.406h-29.134z"/></defs><clipPath id="av"><use xlink:href="#au" overflow="visible"/></clipPath><path clip-path="url(#av)" d="M300.726 473.456c0 .719-.294 1.241-1.169 1.241h-18.245v14.604h13.936c.729 0 1.174.434 1.174 1.238v7.225c0 .798-.445 1.241-1.174 1.241h-13.936v14.752h18.245c.875 0 1.169.36 1.169 1.166v7.297c0 .734-.294 1.173-1.169 1.173h-26.874c-.652 0-1.083-.438-1.083-1.173v-56.067c0-.729.43-1.166 1.083-1.166h26.874c.875 0 1.169.437 1.169 1.166v7.303z"/><defs><path id="aw" d="M324.814 464.986h29.207v58.406h-29.207z"/></defs><clipPath id="ax"><use xlink:href="#aw" overflow="visible"/></clipPath><path clip-path="url(#ax)" d="M352.85 464.986c.807 0 1.166.437 1.166 1.166v7.304c0 .723-.359 1.162-1.166 1.162h-8.47v47.603c0 .809-.365 1.173-1.174 1.173h-7.589c-.723 0-1.167-.364-1.167-1.173v-47.603h-8.469c-.737 0-1.175-.439-1.175-1.162v-7.304c0-.729.438-1.166 1.175-1.166h26.869z"/><defs><path id="ay" d="M359.854 464.986h29.202v58.406h-29.202z"/></defs><clipPath id="az"><use xlink:href="#ay" overflow="visible"/></clipPath><path clip-path="url(#az)" d="M387.596 464.986c.806 0 1.459.653 1.459 1.459v46.437c0 6.863-3.641 10.512-10.509 10.512h-8.184c-6.861 0-10.509-3.647-10.509-10.512v-46.437c0-.806.661-1.459 1.459-1.459h7.01c.806 0 1.457.653 1.457 1.459v44.387c0 1.979 1.025 2.926 2.922 2.926h3.8c1.899 0 2.918-.946 2.918-2.926v-44.387a1.46 1.46 0 0 1 1.459-1.459h6.718z"/><defs><path id="aA" d="M396.357 464.986h31.173v58.406h-31.173z"/></defs><clipPath id="aB"><use xlink:href="#aA" overflow="visible"/></clipPath><path clip-path="url(#aB)" d="M426.36 464.986c.729 0 1.17.437 1.17 1.166v56.067c0 .734-.44 1.173-1.17 1.173h-7.227c-.649 0-1.095-.297-1.313-.946l-11.171-31.178h-.369v30.951c0 .734-.36 1.173-1.173 1.173h-7.586c-.729 0-1.166-.438-1.166-1.173v-56.067c0-.729.436-1.166 1.166-1.166h7.229c.658 0 1.087.289 1.313.95l11.096 31.025h.437V466.15c0-.729.368-1.166 1.17-1.166l7.594.002z"/><defs><path id="aC" d="M434.823 464.986h29.209v58.406h-29.209z"/></defs><clipPath id="aD"><use xlink:href="#aC" overflow="visible"/></clipPath><path clip-path="url(#aD)" d="M434.823 466.152c0-.729.372-1.166 1.17-1.166h17.522c6.861 0 10.518 3.727 10.518 10.579v37.315c0 6.863-3.656 10.513-10.518 10.513h-17.522c-.798 0-1.17-.365-1.17-1.174v-56.067zm16.65 47.606c1.9 0 2.919-.947 2.919-2.926v-33.216c0-1.979-1.019-2.998-2.919-2.998h-6.712v39.14h6.712z"/><defs><path id="aE" d="M468.419 464.986h36.964v58.406h-36.964z"/></defs><clipPath id="aF"><use xlink:href="#aE" overflow="visible"/></clipPath><path clip-path="url(#aF)" d="M496.591 523.394c-.656 0-1.022-.364-1.171-1.019l-2.042-10.659h-12.999l-1.967 10.659c-.146.653-.516 1.019-1.17 1.019h-7.81c-.809 0-1.173-.438-.954-1.24l12.122-56.151c.146-.726.582-1.015 1.244-1.015h10.141c.663 0 1.099.289 1.25 1.015l12.118 56.151c.143.803-.145 1.24-1.02 1.24h-7.742zm-9.713-45.635l-4.671 25.49h9.343l-4.672-25.49z"/><defs><path id="aG" d="M510.454 464.986h41.614v58.406h-41.614z"/></defs><clipPath id="aH"><use xlink:href="#aG" overflow="visible"/></clipPath><path clip-path="url(#aH)" d="M550.612 464.986c.956 0 1.459.508 1.459 1.459v55.485c0 .955-.503 1.462-1.459 1.462h-6.788c-.948 0-1.46-.507-1.46-1.462v-32.858h-.512l-7.227 33.006c-.225.877-.729 1.314-1.604 1.314h-3.58c-.877 0-1.394-.438-1.606-1.314l-7.229-33.006h-.516v32.858c0 .955-.504 1.462-1.452 1.462h-6.721c-.955 0-1.463-.507-1.463-1.462v-55.485c0-.951.508-1.459 1.463-1.459h9.633c.879 0 1.399.437 1.608 1.309l8.103 36.363 8.105-36.363c.222-.872.729-1.309 1.604-1.309h9.642z"/><defs><path id="aI" d="M557.191 464.986h36.97v58.406h-36.97z"/></defs><clipPath id="aJ"><use xlink:href="#aI" overflow="visible"/></clipPath><path clip-path="url(#aJ)" d="M585.362 523.394c-.661 0-1.023-.364-1.165-1.019l-2.047-10.659h-12.998l-1.972 10.659c-.145.653-.512 1.019-1.158 1.019h-7.815c-.81 0-1.182-.438-.947-1.24l12.118-56.151c.144-.726.578-1.015 1.233-1.015h10.146c.662 0 1.1.289 1.249 1.015l12.115 56.151c.146.803-.146 1.24-1.027 1.24h-7.732zm-9.711-45.635l-4.673 25.49h9.345l-4.672-25.49z"/></svg>